<svg xmlns="http://www.w3.org/2000/svg" xmlns:xlink="http://www.w3.org/1999/xlink" xmlns:inkscape="http://www.inkscape.org/namespaces/inkscape" version="1.1" width="1000" height="1000" viewBox="0 0 1000 1000">
<defs>
<clipPath id="clip_1">
<path transform="matrix(1,0,0,-1,0,1000)" d="M0 1000H1000V0H0Z"/>
</clipPath>
</defs>
<g>
<g inkscape:groupmode="layer" inkscape:label="Vrstva 50">
</g>
<g inkscape:groupmode="layer" inkscape:label="Skupina vrstev">
</g>
<g inkscape:groupmode="layer" inkscape:label="Skupina vrstev">
<g clip-path="url(#clip_1)">
<path transform="matrix(1,0,0,-1,752.8946,940.5179)" d="M0 0C24.339 17.044 21.378 56.375-5.723 69.019-30.214 82.384-59.263 81.479-85.541 89.562-327.824 155.466-156.706 646.312-347.516 829.638-378.118 866.076-421.841 895.787-470.632 897.327-492.007 896.956-519.649 887.818-522.1 863.261-521.571 839.946-515.255 832.239-499.692 815.782-487.996 806.466-472.497 802.331-460.197 793.483-379.707 745.266-339.906 688.35-337.049 593.203-320.509 433.467-349.263 216.807-256.455 82.064-213.862 30.975-152.09-6.304-85.586-14.38-56.656-17.268-24.614-17.701 0 0M-3.274-23.127C-85.6-55.21-179.497-14.679-242.226 40.637-362.259 156.65-337.148 342.944-350.625 495.376-353.637 549.494-351.876 604.717-364.998 657.631-383.884 729.704-452.439 769.244-513.506 802.221-530.911 815.072-539.859 836.968-540.67 858.183-540.938 912.8-471.859 925.197-430.419 908.794-387.941 895.751-353.046 866.759-325.867 832.286-184.873 660.698-244.55 424.268-188.456 224.305-178.267 184.444-156.98 145.564-121.003 123.716-81.882 97.859-30.637 106.222 8.508 81.678 49.547 56.133 40.45-5.654-3.274-23.127" fill="#4c0f1f"/>
<path transform="matrix(1,0,0,-1,644.3841,509.2985)" d="M0 0C.082 .324 .216 .243 .039-.02 .028-.045-.012-.025 0 0" fill="#4c0f1f"/>
<path transform="matrix(1,0,0,-1,317.0311,156.60053)" d="M0 0C-17.73-2.274-34.801 7.428-47.808 18.652-48.426 19.083-56.162 26.354-54.417 26.72-53.573 24.007-49.63 22.783-47.503 21.201-38.724 16.072-28.661 11.589-18.993 9.088 4.526 2.256 23.989 12.614 34.398 34.187 32.01 20.166 20.531 1.772 0 0" fill="#4c0f1f"/>
<path transform="matrix(1,0,0,-1,371.3613,100.66913)" d="M0 0C-1.818 13.831-7.054 27.349-15.611 38.398-3.866 29.959 2.4 14.217 0 0" fill="#4c0f1f"/>
<path transform="matrix(1,0,0,-1,390.1684,208.82172)" d="M0 0C-14.891-4.226-34.672-.672-43.177 13.279-31.601 2.03-12.409 1.935 2.651 5.387 10.037 7.166 14.946 13.379 20.466 18.134 15.642 10.387 9.672 1.899 0 0" fill="#4c0f1f"/>
<path transform="matrix(1,0,0,-1,432.5341,167.6178)" d="M0 0C-.016 .026 .023 .05 .039 .024L.043 .017 .039 .024C.067 .012 .095 .026 .123 .031 .119 .038 .119 .038 .114 .034 6.78 10.516 1.318 31.28 .888 43.47 5.368 31.852 10.926 9.004 0 0" fill="#4c0f1f"/>
<path transform="matrix(1,0,0,-1,427.6267,284.4422)" d="M0 0C-9.595-3.219-21.749-1.188-28.838 6.105-16.17-1.27-.987 2.119 12.472 5.033 8.684 2.975 4.241 1.304 0 0" fill="#4c0f1f"/>
<path transform="matrix(1,0,0,-1,467.2775,269.69154)" d="M0 0C6.4 6.012 10.523 14.676 14.676 22.556 12.978 13.693 8.492 4.3 .016 .038 .024 .024 .018 .005 0 0" fill="#4c0f1f"/>
<path transform="matrix(1,0,0,-1,443.8801,357.94844)" d="M0 0C-11.864-1.511-25.626 1.908-34.265 9.907-34.265 9.907-34.266 9.902-34.269 9.898-18.513 2.166-.003 2.297 17.021 5.118 11.758 2.834 5.833 .809 0 0" fill="#4c0f1f"/>
<path transform="matrix(1,0,0,-1,487.0194,353.5749)" d="M0 0C-.029 .007-.105-.055-.14-.032L-.144-.026C3.444 2.059 7.679 3.887 11.507 5.215 8.023 2.725 4.2 1.056 0 0" fill="#4c0f1f"/>
<path transform="matrix(1,0,0,-1,467.6213,433.7696)" d="M0 0C-19.528-4.43-45.931-4.221-57.442 14.946-42.562 .62-19.277 1.415 0 0" fill="#4c0f1f"/>
<path transform="matrix(1,0,0,-1,496.5844,440.2022)" d="M0 0C-2.514-.619-5.79-1.314-8.045-.99-8.047-.991-8.047-.992-8.048-.994 .025 1.163 7.862 5.269 15.838 7.484 10.955 4.274 5.66 1.495 0 0" fill="#4c0f1f"/>
<path transform="matrix(1,0,0,-1,495.8042,512.1216)" d="M0 0C-24.189-6.693-52.005-6.495-74.146 6.383-74.573 6.497-79.559 10.431-78.495 10.497-78.485 10.511-78.496 10.466-78.495 10.453L-78.488 10.457C-78.487 10.44-78.485 10.423-78.484 10.406-78.484 10.406-78.482 10.417-78.482 10.416-52.89-3.731 4.302 4.6 31.677 14.054 28.346 9.589 9.705 2.293 0 0" fill="#4c0f1f"/>
<path transform="matrix(1,0,0,-1,518.739,597.5639)" d="M0 0C-8.95-2.567-18.543-2.225-27.386 .533-27.386 .528-27.388 .523-27.389 .517-13.724 .088 2.786 2.853 16.633 7.376 11.805 3.935 5.775 1.606 0 0" fill="#4c0f1f"/>
<path transform="matrix(1,0,0,-1,449.5756,606.65347)" d="M0 0C-8.29-1.198-17.885-2.564-25.559 1.069-17.168-.087-8.315 1.289 0 0" fill="#4c0f1f"/>
<path transform="matrix(1,0,0,-1,461.1436,687.6131)" d="M0 0C-13.925-1.79-30.637 2.873-36.123 16.887-27.681 5.648-13.021 2.279 0 0" fill="#4c0f1f"/>
<path transform="matrix(1,0,0,-1,514.2821,669.51296)" d="M0 0C-.468-.225-8.077-2.909-7.84-2.384-7.84-2.384-7.836-2.39-7.84-2.384-7.818-2.398-7.789-2.401-7.763-2.408-7.765-2.405-7.767-2.405-7.768-2.404-7.73-2.398-7.691-2.391-7.653-2.385-7.653-2.385-7.663-2.382-7.664-2.382 8.773 5.269 18.296 21.267 25.143 37.145 22.643 21.694 15.541 5.937 0 0" fill="#4c0f1f"/>
<path transform="matrix(1,0,0,-1,467.4331,772.3321)" d="M0 0C-6.336 .705-17.197 2.13-19.957 7.971-9.779 .063 14.61 4.356 26.917 5.971 18.573 2.25 9.339-.465 0 0" fill="#4c0f1f"/>
<path transform="matrix(1,0,0,-1,521.7777,745.5808)" d="M0 0C-.037 .023 .021 .057 .035 .03 .026 .046 .032 .028 .041 .034L.035 .03C.035 .03 .035 .03 .035 .03 10.41 10.902 22.349 22.481 27.673 36.757 26.437 20.68 13.329 7.432 0 0" fill="#4c0f1f"/>
<path transform="matrix(1,0,0,-1,528.2534,802.5509)" d="M0 0C-3.43-1.677-7.902-3.949-11.376-4.051-11.359-4.049-11.349-4.052-11.339-4.054L-11.345-4.058C-2.261-.068 4.632 7.673 11.779 14.369 22.294 24.403 30.643 36.335 36.75 49.51 33.328 28.25 19.006 10.031 0 0" fill="#4c0f1f"/>
<path transform="matrix(1,0,0,-1,477.8235,824.5936)" d="M0 0C-1.705-.241-3.98-.871-5.471 .043 .293 .28 6.203 3.796 11.829 5.634 8.443 3.024 4.355 .96 0 0" fill="#4c0f1f"/>
<path transform="matrix(1,0,0,-1,533.2888,880.7879)" d="M0 0C-3.899-1.916-8.333-3.45-12.746-3.264-12.985-3.251-13.608-3.002-13.164-2.756-13.061-2.762-13.239-2.88-13.219-2.927-13.214-2.937-13.212-2.949-13.21-2.961 1.822 1.13 13.528 13.945 25.237 23.542 19.001 13.708 10.607 5.018 0 0" fill="#4c0f1f"/>
<path transform="matrix(1,0,0,-1,587.1601,834.7521)" d="M0 0C6.893 12.027 5.605 26.201 2.286 39.024 9.713 26.573 10.606 10.889 0 0" fill="#4c0f1f"/>
<path transform="matrix(1,0,0,-1,608.2709,932.5659)" d="M0 0C-5.606-1.957-11.962-4.679-17.876-2.647-17.902-2.563-17.718-2.457-17.77-2.573-17.783-2.581-17.792-2.595-17.805-2.603-17.807-2.604-17.808-2.606-17.808-2.608 6.093 .026 20.529 23.662 31.561 42.797 26.874 25.817 17.959 6.233 0 0" fill="#4c0f1f"/>
<path transform="matrix(1,0,0,-1,653.689,868.3692)" d="M0 0C-2.92 9.66-7.866 19.086-9.975 28.959-5.008 20.093-.165 10.298 .036-.031 .035-.033 .033-.034 .031-.035 .015-.045-.011-.023 0 0" fill="#4c0f1f"/>
<path transform="matrix(1,0,0,-1,688.8866,961.1402)" d="M0 0C-1.971-.721-4.222-1.49-6.197-.569 9.13 2.885 22.338 27.975 26.682 42.235 28.071 47.47 29.176 53.029 30.353 58.188 32.881 34.915 22.407 9.566 0 0" fill="#4c0f1f"/>
<path transform="matrix(1,0,0,-1,719.6346,880.804)" d="M0 0C-.023 .039-.022 .066-.022 .11-.027 .129 0 .139 .015 .132-3.853 14.016-14.743 24.173-23.315 34.995-11.652 26.998 .442 14.975 0 0" fill="#4c0f1f"/>
<path transform="matrix(1,0,0,-1,507.1763,505.4315)" d="M0 0C-27.111-14.6-59.33-14.053-87.856-4.104-88.591-4.066-89.421-3.969-89.549-4.789-90.01-6.957-89.922-9.34-90.218-11.443-90.572-10.228-90.63-8.751-90.823-7.452-90.982-6.191-91.606-3.953-90.536-2.915-88.542-.993-84.773-1.883-82.336-2.15-78.268-2.599-74.22-3.132-70.488-3.468-47.274-4.915-23.126-2.678-1.02 4.465 5.631 6.454 12.92 8.878 15.894 15.538 15.791 9.424 6.702 2.777 0 0" fill="#4c0f1f"/>
<path transform="matrix(1,0,0,-1,501.688,510.6006)" d="M0 0C-24.27-8.788-63.069-1.639-87.424 5.902-89.449 6.089-90.168 7.785-87.882 8.348-87.62 8.365-88.371 8.064-88.454 7.918-88.748 7.715-89.072 7.073-88.579 6.918-70.147 5.692-51.725 3.948-33.242 4.405-22.582 4.688-11.668 2.107-1.259 5.291 6.818 8.902 16.662 10.735 23.069 16.929 22.412 14.531 19.151 12.138 16.99 10.419 11.593 6.634 5.89 2.993 0 0" fill="#4c0f1f"/>
<path transform="matrix(1,0,0,-1,747.1676,871.4998)" d="M0 0C27.105-12.646 30.068-51.974 5.727-69.016-10.541-80.715-30.043-84.492-49.759-84.873-33.249-73.176-25.747-51.538-27.928-31.45-29.103-36.611-30.21-42.173-31.6-47.403-34.935-58.611-43.67-75.843-54.51-84.904-63.052-84.849-71.583-84.218-79.859-83.395-103.722-80.498-126.984-73.839-148.967-64.132-145.513-63.536-142.086-62.184-138.897-61.067-120.935-54.832-112.022-35.253-107.336-18.271-117.603-36.076-130.809-57.768-151.854-62.826-179.234-50.339-204.566-33.117-226.537-12.549-222.153-12.717-217.752-11.186-213.88-9.286-203.273-4.267-194.876 4.417-188.642 14.256-200.303 4.692-211.958-8.056-226.91-12.2-226.947-12.169-226.988-12.132-227.029-12.095-227.006-12.073-226.999-12.041-227.043-12.042-227.049-12.046-227.062-12.054-227.069-12.058-235.47-4.153-243.383 4.246-250.725 13.048-258.43 23.893-265.227 35.097-271.231 46.601-270.569 46.696-269.927 46.822-269.345 46.903-264.987 47.865-260.905 49.93-257.517 52.536-262.115 51.036-266.892 48.423-271.634 47.376-280.778 65.04-288.071 83.411-293.933 102.285-289.513 100.346-283.727 99.616-279.731 99.166-270.395 98.7-261.162 101.421-252.814 105.137-263.389 103.753-282.873 100.396-294.607 104.475-302.908 131.759-308.268 160.072-311.94 188.778-304.482 184.168-294.708 182.77-286.022 183.887-294.866 185.436-304.471 187.488-312.368 192.175-315.314 216.094-317.132 240.277-318.55 264.341-311.848 262.795-304.293 263.876-297.593 264.842-304.423 265.901-311.613 265.168-318.616 265.509-320 289.3-321.014 312.981-322.338 336.196-322.819 344.322-323.259 352.455-323.661 360.584-293.131 351.006-259.393 353.331-230.487 366.748-229.029 342.052-227.548 317.565-225.546 293.547-224.878 288.467-224.216 283.294-223.551 278.043-234.386 275.532-245.832 274.147-255.78 274.452-255.79 274.455-255.805 274.464-255.815 274.466L-255.817 274.456C-245.192 271.07-233.653 271.587-223.241 275.578-221.079 258.524-218.851 240.739-216.077 222.816-222.117 213.141-229.934 204.33-240.724 199.601-240.965 199.08-233.35 201.761-232.884 201.984-224.973 205.007-219.252 210.578-215.21 217.352-211.791 196.112-207.537 174.77-201.681 154.338-207.797 143.755-217.071 134.631-225.35 125.956L-225.356 125.952-225.361 125.959C-225.385 125.97-225.426 125.936-225.391 125.922-215.426 131.481-205.584 140.286-200.736 151.097-196.637 137.219-191.763 123.788-185.868 111.126-191.503 100.846-198.605 91.453-207.135 83.318-214.291 76.632-221.183 68.833-230.292 64.895-230.282 64.893-230.271 64.89-230.261 64.887-209.126 69.777-191.516 88.46-184.626 108.501-176.826 92.235-167.299 77.283-155.498 64.346-154.343 54.901-155.119 45.286-160.009 36.75-153.316 43.618-151.2 52.392-152.42 61.06-138.827 47.009-122.376 35.531-102.302 27.578-99.875 19.32-95.957 11.309-93.479 3.127-93.494 3.109-93.462 3.084-93.449 3.092L-93.442 3.096C-93.604 11.471-96.82 19.494-100.68 26.946-94.112 24.43-87.161 22.289-79.807 20.548-66.829 16.555-53.175 14.753-39.728 12.344-34.508 5.877-29.814-.976-27.531-9.118-27.529-9.134-27.528-9.151-27.533-9.172-27.55-9.173-27.552-9.184-27.554-9.194-27.554-9.238-27.555-9.266-27.531-9.304-27.532-9.26-27.532-9.216-27.533-9.172-27.526-9.168-27.526-9.168-27.516-9.171-27.517-9.154-27.529-9.134-27.531-9.118-27.356-1.408-30.497 5.507-35.177 11.498-22.972 9.146-11.02 6.017 0 0" fill="#981e3d"/>
<path transform="matrix(1,0,0,-1,438.5631,155.32428)" d="M0 0C18.504-29.37 32.231-60.731 42.564-93.38 38.692-100.795 34.722-108.688 28.777-114.299 28.764-114.307 28.745-114.319 28.732-114.327 28.736-114.333 28.734-114.344 28.734-114.344 28.753-114.332 28.762-114.317 28.777-114.299 36.453-110.426 40.838-102.341 42.847-94.263 61.198-152.575 68.795-214.967 73.506-277.49 65.656-279.729 57.932-283.738 49.992-285.872 52.247-286.188 55.516-285.493 58.016-284.876 63.552-283.415 68.721-280.73 73.516-277.608 75.131-299.02 76.406-320.445 77.661-341.731 67.128-346.751 55.597-349.21 43.997-351.422 24.189-350.469 4.385-351.108-15.382-349.039-16.585-323.947-17.517-298.848-18.547-273.748-5.288-282.524 13.947-281.879 29.058-278.445 13.585-277.312-4.466-277.598-18.687-270.343-19.693-246.036-20.805-221.732-22.353-197.454-14.157-202.02-3.852-203.794 5.316-202.622 11.147-201.816 17.076-199.793 22.337-197.505 7.586-199.945-8.274-200.373-22.491-195.415-22.559-194.275-22.636-193.133-22.714-191.99-24.096-170.755-26.459-149.136-31.658-128.399-25.165-131.068-17.46-131.307-10.939-129.118-6.692-127.815-2.252-126.145 1.532-124.086-9.343-126.445-21.345-129.111-32.235-126.15-37.19-107.218-44.581-89.066-55.844-72.655-59.858-66.23-64.289-60.167-69.077-54.421-62.14-55.698-54.81-55.324-48.394-53.501-38.724-51.596-32.755-43.109-27.932-35.361-33.451-40.116-38.36-46.328-45.742-48.112-54.436-50.103-64.503-50.91-73.683-49.087-90.282-30.577-110.425-15.33-131.141-1.383-127.974-1.71-124.763-1.689-121.534-1.275-100.999 .495-89.522 18.89-87.136 32.911-98.518 7.603-124.242-.216-149.203 10.537-157.372 15.697-166.589 19.292-175.04 23.898-175.453 24.355-175.776 24.868-175.952 25.445-176.329 25.365-176.26 24.962-175.917 24.373-179.228 26.227-182.418 28.245-185.363 30.59-200.925 47.043-207.241 54.75-207.769 78.071-205.318 102.62-177.677 111.761-156.305 112.135-127.627 111.225-100.695 100.587-77.156 84.567-71.911 75.405-68.573 65.12-67.201 54.653-65.696 63.569-67.598 73.089-72.129 81.027-57.622 70.475-44.503 57.926-33.186 44.443-21.81 31.52-11.671 18.063-2.645 4.146-2.516-2.1-3.217-7.92-5.827-12.129-5.881-12.171-5.931-12.22-5.992-12.266L-5.988-12.272C-5.963-12.284-5.937-12.268-5.903-12.265-5.907-12.259-5.907-12.259-5.914-12.263-5.887-12.219-5.854-12.172-5.827-12.129-2.412-9.204-.658-4.888 0 0M48.454-198.251C52.658-197.196 56.475-195.525 59.961-193.036 56.138-194.364 51.902-196.193 48.31-198.277L48.314-198.283C48.353-198.304 48.429-198.239 48.454-198.251" fill="#f5dfa2"/>
<path transform="matrix(1,0,0,-1,423.282,504.3969)" d="M0 0C-.038 .003-.066 .022-.102 .036-1.305 25.128-2.237 50.227-3.267 75.327-1.284 74.014 .835 72.912 3.052 71.999 3.599 52.023 4.815 32.077 6.493 12.148 6.873 7.965 7.691 3.644 6.428-.457 4.285-.307 2.143-.153 0 0" fill="#f7f5d8"/>
<path transform="matrix(1,0,0,-1,419.875,425.6646)" d="M0 0C-1.007 24.307-2.118 48.612-3.667 72.889-.771 71.276 2.388 70.012 5.666 69.102 6.112 51.456 6.135 33.799 6.137 16.148 6.139 9.865 6.215 3.586 6.358-2.69 4.171-1.931 2.047-1.044 0 0" fill="#f7f5d8"/>
<path transform="matrix(1,0,0,-1,416.071,350.73719)" d="M0 0C-.067 1.14-.145 2.283-.223 3.425-1.605 24.66-3.969 46.28-9.167 67.017-6.181 65.789-2.938 65.076 .328 64.876 5.804 42.837 8.845 20.217 9.382-2.486 6.196-1.884 3.06-1.067 0 0" fill="#f7f5d8"/>
<path transform="matrix(1,0,0,-1,406.3265,281.47138)" d="M0 0C-4.955 18.932-12.345 37.083-23.609 53.494-27.622 59.92-32.053 65.983-36.842 71.729-32.077 70.852-27.127 70.753-22.416 71.369-9.066 48.551 1.585 24.007 9.248-1.291 6.111-1.207 3.013-.819 0 0" fill="#f7f5d8"/>
<path transform="matrix(1,0,0,-1,364.8785,204.40863)" d="M0 0C-16.598 18.51-36.742 33.757-57.457 47.703-54.291 47.377-51.079 47.398-47.851 47.811-43.927 48.15-40.332 49.096-37.07 50.502-15.849 37.557 2.272 19.887 15.973-.834 10.638-1.219 5.178-1.028 0 0" fill="#f7f5d8"/>
<path transform="matrix(1,0,0,-1,298.0356,147.51099)" d="M0 0C-2.873 .746-5.787 1.662-8.677 2.726-16.845 7.887-26.063 11.481-34.514 16.087-34.927 16.544-35.25 17.057-35.425 17.634-35.803 17.554-35.734 17.152-35.391 16.562-64.103 32.144-83.966 79.041-47.392 96.999-55.49 87.666-57.757 73.891-55.527 61.96-52.303 49.491-43.533 39.009-34.273 30.38-17.727 16.68 2.263 7.654 21.153-1.475 14.626-2.611 7.52-2.184 0 0" fill="#f7f5d8"/>
<path transform="matrix(1,0,0,-1,298.0388,147.5091)" d="M0 0C-7.337 1.216-13.297 6.001-19.765 9.217-7.418 6.437 4.798-1.177 18.083 1.609 36.628 4.417 48.483 16.908 52.079 34.973 52.925 38.863 53.664 42.74 53.235 46.694 55.266 41.401 54.833 35.107 54.31 29.428L53.39 25.099C43.149 3.821 23.765-6.909 0 0" fill="#f7f5d8"/>
<path transform="matrix(1,0,0,-1,392.8225,203.43213)" d="M0 0C-8.889-1.851-19.519-3.619-28.352 .479-27.201 .522-25.647 .148-24.379 .069-5.537-1.592 10.55 4.835 21.02 20.827 21.654 21.651 22.209 22.778 22.755 23.505 21.77 19.7 19.729 16.154 17.81 12.75 12.293 7.998 7.388 1.787 0 0" fill="#f7f5d8"/>
<path transform="matrix(1,0,0,-1,441.8823,280.16084)" d="M0 0C-.853-.362-1.723-.682-2.605-.982L-1.785 .755C-10.926-1.228-20.862-3.427-30.265-2.321-32.06-2.014-33.834-1.617-35.596-1.145-35.941 .169-36.298 1.479-36.667 2.785-29.52 1.479-22.28 1.287-15.058 .889-8.443 .729-.899-.586 4.547 3.743 4.08 2.611 1.765 .492 0 0" fill="#f7f5d8"/>
<path transform="matrix(1,0,0,-1,468.6109,349.86543)" d="M0 0C-16.534-6.659-35.813-6.177-52.571-.321-52.63 .637-52.695 1.596-52.76 2.555-52.831 3.65-52.905 4.747-52.982 5.845-33.081 .583-12.799-2.103 7.133 3.568 7.482 3.631 7.926 3.923 8.198 3.874 5.642 2.246 2.825 1.073 0 0" fill="#f7f5d8"/>
<path transform="matrix(1,0,0,-1,474.0381,425.2812)" d="M0 0C-17.087-9.762-38.285-6.978-54.327 3.624-54.352 4.204-54.376 4.782-54.4 5.362-37.15-1.307-17.977-4.629 0 0" fill="#f7f5d8"/>
<path transform="matrix(1,0,0,-1,697.407,956.3777)" d="M0 0C.225 .159 .448 .321 .669 .484 2.318 .441 3.967 .412 5.616 .384 6.497 .378 7.379 .374 8.261 .373 5.517 .174 2.76 .054 0 0" fill="#ad4b64"/>
<path transform="matrix(1,0,0,-1,667.3069,954.9001)" d="M0 0C-23.864 2.898-47.125 9.557-69.109 19.263-66.172 19.77-63.257 20.822-60.49 21.813-33.788 7.735-3.803 1.295 26.141-.829 25.878-1.06 25.614-1.286 25.349-1.508 16.807-1.453 8.276-.822 0 0" fill="#ad4b64"/>
<path transform="matrix(1,0,0,-1,595.3115,934.331)" d="M0 0C-27.38 12.487-52.712 29.709-74.683 50.277-70.424 50.115-66.15 51.555-62.359 53.379-40.126 34.973-17.859 15.847 8.135 2.921 5.559 1.676 2.852 .686 0 0" fill="#ad4b64"/>
<path transform="matrix(1,0,0,-1,520.2552,883.7049)" d="M0 0C-.037 .031-.077 .068-.118 .106-.096 .128-.088 .159-.133 .159-.139 .155-.152 .147-.159 .143-8.559 8.048-16.472 16.446-23.815 25.248-31.519 36.093-38.317 47.298-44.32 58.801-43.659 58.896-43.016 59.022-42.435 59.103-40.587 59.511-38.788 60.118-37.071 60.88-24.133 39.526-7.68 20.648 10.666 4.548 7.283 2.616 3.745 1.038 0 0" fill="#ad4b64"/>
<path transform="matrix(1,0,0,-1,475.5317,824.1286)" d="M0 0C-9.144 17.664-16.438 36.035-22.299 54.909-19.712 53.774-16.658 53.053-13.768 52.561-8.888 35.098-2.187 18.031 7.007 2.367 4.68 1.411 2.335 .515 0 0" fill="#ad4b64"/>
<path transform="matrix(1,0,0,-1,452.5585,767.0298)" d="M0 0C-8.301 27.285-13.66 55.597-17.333 84.303-13.255 81.782-8.483 80.222-3.576 79.508-2.735 71.71-1.879 63.915-1.023 56.122-.61 52.389-.183 48.656 .262 44.929 .261 44.939 .26 44.95 .259 44.96 2.155 29.268 4.692 13.663 8.462-1.691 5.394-1.408 2.519-.876 0 0" fill="#ad4b64"/>
<path transform="matrix(1,0,0,-1,434.7972,679.32986)" d="M0 0C-2.945 23.92-4.764 48.102-6.182 72.166-2.46 71.308 1.526 71.259 5.482 71.552 7.777 54.258 9.557 36.896 11.294 19.535 12.13 11.145 13.009 2.757 13.909-5.626 9.034-4.296 4.267-2.533 0 0" fill="#ad4b64"/>
<path transform="matrix(1,0,0,-1,428.5493,605.9961)" d="M0 0C-1.384 23.792-2.398 47.472-3.722 70.687-4.178 78.392-4.597 86.104-4.982 93.812 2.243 62.871 6.825 31.353 11.5-.064 7.67-.053 3.807-.185 0 0" fill="#ad4b64"/>
<path transform="matrix(1,0,0,-1,589.4841,805.6336)" d="M0 0C-12.098 9.7-21.732 22.125-29.977 35.159-28.814 37.582-27.799 40.076-26.943 42.633-19.144 26.367-9.617 11.415 2.185-1.523 2.196-1.615 2.206-1.707 2.217-1.799 1.468-1.209 .728-.609 0 0" fill="#ad4b64"/>
<path transform="matrix(1,0,0,-1,553.9896,761.307)" d="M0 0C-4.797 8.388-8.999 17.122-12.84 25.98-13.42 27.319-13.992 28.664-14.554 30.012-11.722 33.341-9.314 36.989-7.559 40.902-3.46 27.024 1.413 13.593 7.309 .93 6.069-1.331 4.759-3.549 3.378-5.72 2.228-3.831 1.103-1.924 0 0" fill="#ad4b64"/>
<path transform="matrix(1,0,0,-1,531.3216,708.71096)" d="M0 0C-4.283 14.592-6.34 29.87-7.177 45.096-4.063 47.791-1.483 51.011 .635 54.561 4.054 33.321 8.308 11.979 14.164-8.453 12.009-12.182 9.463-15.729 6.706-19.139 4.187-12.859 1.905-6.482 0 0" fill="#ad4b64"/>
<path transform="matrix(1,0,0,-1,523.7261,651.9945)" d="M0 0C-.262 13.884 .612 27.685 2.058 41.453 3.664 28.955 5.373 16.167 7.363 3.308 5.214-.168 2.838-3.491 .184-6.554 .101-4.365 .041-2.181 0 0" fill="#ad4b64"/>
<path transform="matrix(1,0,0,-1,434.2538,649.6385)" d="M0 0C-1.571 6.885-2.956 13.801-4.23 20.74-4.748 27.989-5.211 35.24-5.638 42.478-3.885 42.074-2.074 41.849-.235 41.755 .184 27.888-.027 13.746 0 0" fill="#ad4b64"/>
<path transform="matrix(1,0,0,-1,428.5498,605.9934)" d="M0 0C-1.384 23.792-2.398 47.472-3.722 70.688-4.203 78.814-4.643 86.946-5.045 95.076-3.286 94.526-1.513 94.012 .269 93.535 3.28 69.826 6.331 45.995 5.151 22.054 5.153 22.269 5.159 22.477 5.161 22.691 5.017 15.088 5.215 7.496 5.421-.098 3.608-.104 1.798-.087 0 0" fill="#ad4b64"/>
<path transform="matrix(1,0,0,-1,474.255,606.063)" d="M0 0C-5.874-1.171-11.854-2.123-17.846-2.318-21.798-2.445-25.764-2.033-24.682-.597-28.086-.069-31.581 .014-35.097 .006-38.777 1.014-42.43 2.307-45.925 3.906-45.981 4.89-46.036 5.873-46.09 6.857-31.096 2.488-15.43 .406 0 0" fill="#ad4b64"/>
<path transform="matrix(1,0,0,-1,482.6564,686.8893)" d="M0 0C-7.828-1.147-15.782-1.828-21.512-.726-30.357 .823-39.961 2.875-47.858 7.562-47.981 8.555-48.1 9.55-48.219 10.543-40.337 8.142-32.56 5.318-24.617 3.452-16.567 1.569-8.043 .898 0 0" fill="#ad4b64"/>
<path transform="matrix(1,0,0,-1,492.0383,763.8465)" d="M0 0C-12.537-4.798-26.407-5.899-39.522-3.039-39.94-1.663-40.35-.286-40.753 1.095-20.346-.776-.311 4.084 19.599 7.841 13.454 4.813 6.586 2.316 0 0" fill="#ad4b64"/>
<path transform="matrix(1,0,0,-1,486.5992,819.09219)" d="M0 0C-4.299-.875-8.718-1.15-13.108-1.019-13.6-.033-14.087 .957-14.567 1.947-.081 3.815 15.591 6.528 26.519 16.661 20.804 7.374 10.386 2.223 0 0" fill="#ad4b64"/>
<path transform="matrix(1,0,0,-1,558.5245,857.2466)" d="M0 0C-11.798-9.258-23.269-23.182-38.679-26.076-39.149-25.632-39.617-25.188-40.084-24.742-28.793-21.024-19.43-13.716-10.243-6.5-3.321-.392 4.196 5.499 10.193 12.324 5.483 3.243-1.628-4.723-9.065-11.664-5.655-8.108-2.635-4.157 0 0" fill="#ad4b64"/>
<path transform="matrix(1,0,0,-1,605.2388,928.7223)" d="M0 0C-3.31-1.804-6.712-3.443-10.297-4.625-10.641-4.739-10.99-4.85-11.341-4.955-11.867-4.712-12.392-4.466-12.915-4.22 6.594 7.892 25.774 24.42 36.421 44.955 35.986 42.117 34.854 38.926 34.591 38.95 26.239 24.339 16.414 7.411 0 0" fill="#ad4b64"/>
<path transform="matrix(1,0,0,-1,688.698,956.3405)" d="M0 0C-1.212 .032-2.424 .075-3.633 .126 11.652 11.912 19.023 30.105 27.272 46.858 27.284 46.882 27.326 46.872 27.314 46.848 23.646 28.845 17.14 9.353 0 0" fill="#ad4b64"/>
<path transform="matrix(1,0,0,-1,717.4776,881.3455)" d="M0 0C-3.494 7.379-6.726 14.939-10.278 22.231-10.199 22.216-10.119 22.202-10.039 22.188-4.294 16.023-.956 8.188 0 0" fill="#ad4b64"/>
<path transform="matrix(1,0,0,-1,660.4589,873.7781)" d="M0 0C-2.41 5.534-5.294 10.948-8.427 15.896-9.762 20.498-11.762 24.954-13.972 29.222-13.395 29-12.814 28.783-12.231 28.567-5.656 20.435-1.64 10.289 .037 .041L.033 .047C.032 .028 .032 .036 .039 .024 .05 .004 .015-.025 0 0" fill="#ad4b64"/>
<path transform="matrix(1,0,0,-1,641.8656,844.0504)" d="M0 0C-.597 .712-1.197 1.422-1.803 2.127-.226 1.437 1.374 .771 2.999 .127 3.699-2.254 4.522-4.614 5.399-6.963 3.66-4.597 1.855-2.278 0 0" fill="#ad4b64"/>
<path transform="matrix(1,0,0,-1,586.15,833.6728)" d="M0 0C2.441 9.913 2.925 20.65 1.79 30.759 3.008 29.322 4.249 27.908 5.519 26.516 6.502 17.588 4.343 7.588 0 0" fill="#ad4b64"/>
<path transform="matrix(1,0,0,-1,532.2445,786.752)" d="M0 0C.016 .066 .067-.01 .066-.022 2.067 .61 3.304 3 4.651 4.561 12.094 15.421 17.349 26.931 24.014 37.982 24.792 36.06 25.59 34.153 26.41 32.26 20.308 20.514 12.92 8.603 2.149 .62 1.449 .192 .137-.528 0 0" fill="#ad4b64"/>
<path transform="matrix(1,0,0,-1,517.6091,738.68887)" d="M0 0C-.124 .01-.05 .199-.024 .083L-.017 .087C-.022 .084-.021 .08-.02 .078-.015 .077-.01 .076-.004 .075 9.369 11.025 16.688 23.52 24.05 35.881 24.414 34.411 24.785 32.943 25.164 31.48 19.88 18.975 11.081 7.805 0 0" fill="#ad4b64"/>
<path transform="matrix(1,0,0,-1,752.8946,940.5179)" d="M0 0C24.339 17.044 21.378 56.375-5.723 69.019-30.214 82.384-59.263 81.479-85.541 89.562-327.824 155.466-156.706 646.312-347.516 829.638-378.118 866.076-421.841 895.787-470.632 897.327-492.007 896.956-519.649 887.818-522.1 863.261-521.571 839.946-515.255 832.239-499.692 815.782-487.996 806.466-472.497 802.331-460.197 793.483-379.707 745.266-339.906 688.35-337.049 593.203-320.509 433.467-349.263 216.807-256.455 82.064-213.862 30.975-152.09-6.304-85.586-14.38-56.656-17.268-24.614-17.701 0 0M-3.274-23.127C-85.6-55.21-179.497-14.679-242.226 40.637-362.259 156.65-337.148 342.944-350.625 495.376-353.637 549.494-351.876 604.717-364.998 657.631-383.884 729.704-452.439 769.244-513.506 802.221-530.911 815.072-539.859 836.968-540.67 858.183-540.938 912.8-471.859 925.197-430.419 908.794-387.941 895.751-353.046 866.759-325.867 832.286-184.873 660.698-244.55 424.268-188.456 224.305-178.267 184.444-156.98 145.564-121.003 123.716-81.882 97.859-30.637 106.222 8.508 81.678 49.547 56.133 40.45-5.654-3.274-23.127" fill="#4c0f1f"/>
<path transform="matrix(1,0,0,-1,644.3841,509.2985)" d="M0 0C.082 .324 .216 .243 .039-.02 .028-.045-.012-.025 0 0" fill="#4c0f1f"/>
<path transform="matrix(1,0,0,-1,317.0311,156.60053)" d="M0 0C-17.73-2.274-34.801 7.428-47.808 18.652-48.426 19.083-56.162 26.354-54.417 26.72-53.573 24.007-49.63 22.783-47.503 21.201-38.724 16.072-28.661 11.589-18.993 9.088 4.526 2.256 23.989 12.614 34.398 34.187 32.01 20.166 20.531 1.772 0 0" fill="#4c0f1f"/>
<path transform="matrix(1,0,0,-1,371.3613,100.66913)" d="M0 0C-1.818 13.831-7.054 27.349-15.611 38.398-3.866 29.959 2.4 14.217 0 0" fill="#4c0f1f"/>
<path transform="matrix(1,0,0,-1,390.1684,208.82172)" d="M0 0C-14.891-4.226-34.672-.672-43.177 13.279-31.601 2.03-12.409 1.935 2.651 5.387 10.037 7.166 14.946 13.379 20.466 18.134 15.642 10.387 9.672 1.899 0 0" fill="#4c0f1f"/>
<path transform="matrix(1,0,0,-1,432.5341,167.6178)" d="M0 0C-.016 .026 .023 .05 .039 .024L.043 .017 .039 .024C.067 .012 .095 .026 .123 .031 .119 .038 .119 .038 .114 .034 6.78 10.516 1.318 31.28 .888 43.47 5.368 31.852 10.926 9.004 0 0" fill="#4c0f1f"/>
<path transform="matrix(1,0,0,-1,427.6267,284.4422)" d="M0 0C-9.595-3.219-21.749-1.188-28.838 6.105-16.17-1.27-.987 2.119 12.472 5.033 8.684 2.975 4.241 1.304 0 0" fill="#4c0f1f"/>
<path transform="matrix(1,0,0,-1,467.2775,269.69154)" d="M0 0C6.4 6.012 10.523 14.676 14.676 22.556 12.978 13.693 8.492 4.3 .016 .038 .024 .024 .018 .005 0 0" fill="#4c0f1f"/>
<path transform="matrix(1,0,0,-1,443.8801,357.94844)" d="M0 0C-11.864-1.511-25.626 1.908-34.265 9.907-34.265 9.907-34.266 9.902-34.269 9.898-18.513 2.166-.003 2.297 17.021 5.118 11.758 2.834 5.833 .809 0 0" fill="#4c0f1f"/>
<path transform="matrix(1,0,0,-1,487.0194,353.5749)" d="M0 0C-.029 .007-.105-.055-.14-.032L-.144-.026C3.444 2.059 7.679 3.887 11.507 5.215 8.023 2.725 4.2 1.056 0 0" fill="#4c0f1f"/>
<path transform="matrix(1,0,0,-1,467.6213,433.7696)" d="M0 0C-19.528-4.43-45.931-4.221-57.442 14.946-42.562 .62-19.277 1.415 0 0" fill="#4c0f1f"/>
<path transform="matrix(1,0,0,-1,496.5844,440.2022)" d="M0 0C-2.514-.619-5.79-1.314-8.045-.99-8.047-.991-8.047-.992-8.048-.994 .025 1.163 7.862 5.269 15.838 7.484 10.955 4.274 5.66 1.495 0 0" fill="#4c0f1f"/>
<path transform="matrix(1,0,0,-1,495.8042,512.1216)" d="M0 0C-24.189-6.693-52.005-6.495-74.146 6.383-74.573 6.497-79.559 10.431-78.495 10.497-78.485 10.511-78.496 10.466-78.495 10.453L-78.488 10.457C-78.487 10.44-78.485 10.423-78.484 10.406-78.484 10.406-78.482 10.417-78.482 10.416-52.89-3.731 4.302 4.6 31.677 14.054 28.346 9.589 9.705 2.293 0 0" fill="#4c0f1f"/>
<path transform="matrix(1,0,0,-1,518.739,597.5639)" d="M0 0C-8.95-2.567-18.543-2.225-27.386 .533-27.386 .528-27.388 .523-27.389 .517-13.724 .088 2.786 2.853 16.633 7.376 11.805 3.935 5.775 1.606 0 0" fill="#4c0f1f"/>
<path transform="matrix(1,0,0,-1,449.5756,606.65347)" d="M0 0C-8.29-1.198-17.885-2.564-25.559 1.069-17.168-.087-8.315 1.289 0 0" fill="#4c0f1f"/>
<path transform="matrix(1,0,0,-1,461.1436,687.6131)" d="M0 0C-13.925-1.79-30.637 2.873-36.123 16.887-27.681 5.648-13.021 2.279 0 0" fill="#4c0f1f"/>
<path transform="matrix(1,0,0,-1,514.2821,669.51296)" d="M0 0C-.468-.225-8.077-2.909-7.84-2.384-7.84-2.384-7.836-2.39-7.84-2.384-7.818-2.398-7.789-2.401-7.763-2.408-7.765-2.405-7.767-2.405-7.768-2.404-7.73-2.398-7.691-2.391-7.653-2.385-7.653-2.385-7.663-2.382-7.664-2.382 8.773 5.269 18.296 21.267 25.143 37.145 22.643 21.694 15.541 5.937 0 0" fill="#4c0f1f"/>
<path transform="matrix(1,0,0,-1,467.4331,772.3321)" d="M0 0C-6.336 .705-17.197 2.13-19.957 7.971-9.779 .063 14.61 4.356 26.917 5.971 18.573 2.25 9.339-.465 0 0" fill="#4c0f1f"/>
<path transform="matrix(1,0,0,-1,521.7777,745.5808)" d="M0 0C-.037 .023 .021 .057 .035 .03 .026 .046 .032 .028 .041 .034L.035 .03C.035 .03 .035 .03 .035 .03 10.41 10.902 22.349 22.481 27.673 36.757 26.437 20.68 13.329 7.432 0 0" fill="#4c0f1f"/>
<path transform="matrix(1,0,0,-1,528.2534,802.5509)" d="M0 0C-3.43-1.677-7.902-3.949-11.376-4.051-11.359-4.049-11.349-4.052-11.339-4.054L-11.345-4.058C-2.261-.068 4.632 7.673 11.779 14.369 22.294 24.403 30.643 36.335 36.75 49.51 33.328 28.25 19.006 10.031 0 0" fill="#4c0f1f"/>
<path transform="matrix(1,0,0,-1,477.8235,824.5936)" d="M0 0C-1.705-.241-3.98-.871-5.471 .043 .293 .28 6.203 3.796 11.829 5.634 8.443 3.024 4.355 .96 0 0" fill="#4c0f1f"/>
<path transform="matrix(1,0,0,-1,533.2888,880.7879)" d="M0 0C-3.899-1.916-8.333-3.45-12.746-3.264-12.985-3.251-13.608-3.002-13.164-2.756-13.061-2.762-13.239-2.88-13.219-2.927-13.214-2.937-13.212-2.949-13.21-2.961 1.822 1.13 13.528 13.945 25.237 23.542 19.001 13.708 10.607 5.018 0 0" fill="#4c0f1f"/>
<path transform="matrix(1,0,0,-1,587.1601,834.7521)" d="M0 0C6.893 12.027 5.605 26.201 2.286 39.024 9.713 26.573 10.606 10.889 0 0" fill="#4c0f1f"/>
<path transform="matrix(1,0,0,-1,608.2709,932.5659)" d="M0 0C-5.606-1.957-11.962-4.679-17.876-2.647-17.902-2.563-17.718-2.457-17.77-2.573-17.783-2.581-17.792-2.595-17.805-2.603-17.807-2.604-17.808-2.606-17.808-2.608 6.093 .026 20.529 23.662 31.561 42.797 26.874 25.817 17.959 6.233 0 0" fill="#4c0f1f"/>
<path transform="matrix(1,0,0,-1,653.689,868.3692)" d="M0 0C-2.92 9.66-7.866 19.086-9.975 28.959-5.008 20.093-.165 10.298 .036-.031 .035-.033 .033-.034 .031-.035 .015-.045-.011-.023 0 0" fill="#4c0f1f"/>
<path transform="matrix(1,0,0,-1,688.8866,961.1402)" d="M0 0C-1.971-.721-4.222-1.49-6.197-.569 9.13 2.885 22.338 27.975 26.682 42.235 28.071 47.47 29.176 53.029 30.353 58.188 32.881 34.915 22.407 9.566 0 0" fill="#4c0f1f"/>
<path transform="matrix(1,0,0,-1,719.6346,880.804)" d="M0 0C-.023 .039-.022 .066-.022 .11-.027 .129 0 .139 .015 .132-3.853 14.016-14.743 24.173-23.315 34.995-11.652 26.998 .442 14.975 0 0" fill="#4c0f1f"/>
<path transform="matrix(1,0,0,-1,507.1763,505.4315)" d="M0 0C-27.111-14.6-59.33-14.053-87.856-4.104-88.591-4.066-89.421-3.969-89.549-4.789-90.01-6.957-89.922-9.34-90.218-11.443-90.572-10.228-90.63-8.751-90.823-7.452-90.982-6.191-91.606-3.953-90.536-2.915-88.542-.993-84.773-1.883-82.336-2.15-78.268-2.599-74.22-3.132-70.488-3.468-47.274-4.915-23.126-2.678-1.02 4.465 5.631 6.454 12.92 8.878 15.894 15.538 15.791 9.424 6.702 2.777 0 0" fill="#4c0f1f"/>
<path transform="matrix(1,0,0,-1,501.688,510.6006)" d="M0 0C-24.27-8.788-63.069-1.639-87.424 5.902-89.449 6.089-90.168 7.785-87.882 8.348-87.62 8.365-88.371 8.064-88.454 7.918-88.748 7.715-89.072 7.073-88.579 6.918-70.147 5.692-51.725 3.948-33.242 4.405-22.582 4.688-11.668 2.107-1.259 5.291 6.818 8.902 16.662 10.735 23.069 16.929 22.412 14.531 19.151 12.138 16.99 10.419 11.593 6.634 5.89 2.993 0 0" fill="#4c0f1f"/>
<g inkscape:groupmode="layer" inkscape:label="Skupina vrstev">
</g>
<g inkscape:groupmode="layer" inkscape:label="Skupina vrstev">
</g>
<g inkscape:groupmode="layer" inkscape:label="Skupina vrstev">
</g>
<g inkscape:groupmode="layer" inkscape:label="Skupina vrstev">
</g>
<g inkscape:groupmode="layer" inkscape:label="Skupina vrstev">
</g>
<g inkscape:groupmode="layer" inkscape:label="Skupina vrstev">
</g>
<g inkscape:groupmode="layer" inkscape:label="Skupina vrstev">
</g>
</g>
</g>
</g>
</svg>
