<svg xmlns="http://www.w3.org/2000/svg" xmlns:xlink="http://www.w3.org/1999/xlink" xmlns:inkscape="http://www.inkscape.org/namespaces/inkscape" version="1.1" width="1000" height="1000" viewBox="0 0 1000 1000">
<defs>
<clipPath id="clip_1">
<path transform="matrix(1,0,0,-1,0,1000)" d="M0 1000H1000V0H0Z"/>
</clipPath>
</defs>
<g>
<g inkscape:groupmode="layer" inkscape:label="Vrstva 50">
</g>
<g inkscape:groupmode="layer" inkscape:label="Skupina vrstev">
<g clip-path="url(#clip_1)">
<path transform="matrix(1,0,0,-1,238.1999,248.35572)" d="M0 0C-3.719 2.17-6.262 6.047-8.94 9.335-12.704 14.284-16.04 19.532-19.059 24.97-32.106 48.342-40.134 74.664-40.954 101.49-41.949 136.03-25.476 171.838 4.087 190.576 15.026 197.054 27.541 200.715 40.12 202.208 53.124 203.904 66.326 202.522 79.106 199.845 89.354 197.399 98.913 192.391 107.567 186.462 112.343 182.71 119.72 178.717 118.426 171.6 118.003 169.115 115.774 167.586 113.361 167.486 108.981 167.2 105.952 170.57 102.915 173.19 97.495 177.455 91.481 180.902 85.169 183.669 64.899 191.583 41.413 191.374 21.033 183.889 9.386 179.707-.191 171.412-7.853 161.865-37.726 124.848-29.67 72.493-8.353 33.3-4.059 25.655 .519 17.987 6.665 11.672 13.621 7.111 7.705-3.713 0 0" fill="#4c0f1f"/>
<path transform="matrix(1,0,0,-1,359.3836,73.62451)" d="M0 0C-.175 .121-.35 .241-.524 .362-.636 .393-.749 .426-.86 .458-.562 .324-.275 .171 0 0M1.764-1.583C1.418-1.116 1.02-.68 .527-.363 .99-.716 1.407-1.125 1.764-1.583M-8.725-9.924C-12.697-5.409-8.711 1.075-3.204 1.535 8.316 4.762 19.809 8.057 31.573 10.293 90.51 23.913 153.504 24.879 212.374 10.525 222.75 6.558 218.221-5.252 207.705-2.083 141.683 13.518 72.899 9.152 8.205-9.241 2.697-10.155-4.066-15.007-8.725-9.924" fill="#4c0f1f"/>
<path transform="matrix(1,0,0,-1,719.8705,224.52948)" d="M0 0C-7.851 4.315-.125 12.763 3.774 17.029 30.053 50.463 33.13 98.319 20.263 137.814 10.593 168.067-19.684 186.074-50.705 185.194-83.586 185.158-121.172 177.373-141.955 149.69-141.893 149.793-141.831 149.896-141.844 149.906-141.609 150.199-141.466 150.547-141.32 150.89-143.737 144.314-154.122 146.072-154.249 153.104-151.633 163.151-141.181 170.208-133.427 176.602-26.309 235.88 64.124 175.184 35.99 52.368 33.355 39.926 14.816-3.285 0 0" fill="#4c0f1f"/>
<path transform="matrix(1,0,0,-1,647.4197,973.8148)" d="M0 0C-31.888 3.486-60.135 19.558-90.252 29.189-100.865 32.01-111.86 32.682-122.768 33.459-144.087 34.764-165.399 36.253-186.746 36.945-191.409 36.981-196.161 37.471-200.76 36.513-211.265 34.001-220.696 28.57-230.663 24.602-237.813 21.75-245.18 19.526-252.641 17.651-275.271 12.553-298.616 8.127-321.895 10.018-345.981 12.617-370.19 21.221-388.314 37.673-405.271 54.56-418.702 75.487-425.443 98.537-435.917 137.43-426.278 178.474-412.01 215.139-409.425 221.978-406.823 228.811-404.237 235.655-399.429 248.56-393.493 261.873-395.341 275.969-397.132 296.838-412.675 312.107-424.153 328.361-437.445 346.999-448.182 367.649-453.704 389.953-460.238 419.463-454.877 454.26-441.2 481.079-431.143 501.323-415.122 517.693-399.962 534.171-392.626 541.962-384.965 549.471-378.05 557.653-376.017 560.278-377.18 563.951-377.683 566.927-379.389 573.911-381.683 580.719-384.044 587.507-396.057 621.855-405.061 657.383-408.235 693.706-408.883 703.911-410.194 714.358-408.813 724.496-406.788 730.101-400.359 732.914-396.853 725.853-394.98 721.002-396.341 715.56-395.831 710.475-395.651 704.03-395.164 697.601-394.574 691.599-391.612 660.666-384.181 630.378-374.425 600.923-370.961 590.335-366.813 579.931-364.418 569.026-360.886 554.539-367.422 548.94-376.499 539.308-385.365 529.957-394.401 520.769-402.908 511.097-432.191 480.278-445.443 447.187-442.585 404.408-439.344 378.284-426.446 354.413-411.242 333.328-396.977 315.157-381.533 295.91-381.63 271.588-381.264 251.875-391.182 233.974-397.426 215.756-406.246 193.331-413.837 170.18-415.818 146.03-417.341 128.251-416.044 109.978-409.56 93.225-402.014 75.036-390.882 58.007-376.162 44.835-358.574 30.993-336.269 23.968-314.056 22.948-294.134 22.739-275.671 26.274-256.497 30.502-246.083 33.102-235.922 36.563-226.199 41.115-216.639 45.485-206.727 50.198-196.031 50.478-167.49 50.069-138.963 48.036-110.497 45.99-95.45 45.051-80.828 41.083-67.003 35.166-35.293 21.907-3.335 8.83 31.798 13.117 56.322 16.156 78.296 28.881 98.076 43.051 107.61 50.16 117.082 57.539 124.571 66.863 135.557 81.582 142.69 99.154 145.672 117.248 147.944 133.759 148.935 151.937 147.576 168.286 145.567 186.461 142.109 206.059 136.099 223.095 124.103 257.244 99.176 289.737 103.903 327.582 107.483 354.412 121.293 379.319 128.916 404.865 134.085 422.049 136.462 440.045 134.5 457.946 131.408 490.599 112.638 520.11 87.584 540.618 82.019 544.927 76.17 548.788 70.154 552.451 61.303 558.288 46.611 565.126 47.125 577.527 47.331 579.528 47.776 581.53 48.181 583.498 60.444 631.008 68.045 678.977 70.164 727.81 70.337 736.08 70.063 744.342 69.727 752.602 69.199 756.668 69.849 761.908 74.468 763.199 78.508 764.556 83.193 761.253 83.164 756.927 82.953 754 83.23 751.048 83.326 748.121 83.752 737.786 83.738 727.443 83.092 717.113 81.17 689.111 78.065 661.156 73.051 633.526 69.975 614.272 64.342 595.58 60.512 576.495 65.837 569.603 74.347 566.047 81.43 561.247 87.885 557.194 94.101 552.802 99.888 547.837 151.73 502.054 160.412 441.305 134.015 379.039 124.839 354.335 111.642 327.964 118.739 301.082 125.415 275.379 139.741 252.515 148.699 227.627 156.386 205.174 160.562 181.427 161.626 157.733 161.744 141.677 160.793 125.479 157.928 109.662 154.854 94.375 148.818 79.695 140.642 66.446 132.454 53.353 120.714 43.026 108.345 33.988 75.751 9.396 41.612-5.645 0 0" fill="#4c0f1f"/>
<path transform="matrix(1,0,0,-1,246.5705,254.21698)" d="M0 0C-3.335 .692-5.888 2.886-7.788 5.653-10.312 8.108-12.819 10.602-15.101 13.288-20.054 17.521-18.824 25.635-11.771 26.242-7.148 26.723-4.408 20.751-1.768 18.52 1.596 14.984 6.36 11.542 6.493 6.216 6.711 2.771 3.613-.759 0 0" fill="#4c0f1f"/>
<path transform="matrix(1,0,0,-1,250.6556,198.19422)" d="M0 0C-17.869 23.676-24.346 60.684-4.687 85.206 14.658 109.255 52.791 115.133 79.156 99.66 51.095 109.107 14.484 98.907-.873 72.567-13.498 51.09-10.151 19.874 1.395-1.195H1.391 1.396 1.402 1.396C1.039-1.385 .235-.247 0 0" fill="#4c0f1f"/>
<path transform="matrix(1,0,0,-1,685.8586,205.2351)" d="M0 0C19.893 26.721 29.959 63.97 13.923 94.924 2.922 115.533-19.84 129.521-43.489 126.238-54.904 124.422-67.843 121.477-75.981 113.211-76.27 113.093-75.605 114.389-75.597 114.338-52.938 139.376-9.622 141.002 13.271 115.324 45.699 82.81 31.92 27.709 0 0" fill="#4c0f1f"/>
<path transform="matrix(1,0,0,-1,350.6433,272.5653)" d="M0 0C-9.331 8.803-11.49 23.516-9.379 35.7-4.698 59.302 23.174 75.715 45.964 67.458 70.227 59.239 79.634 24.766 62.521 5.621 73.302 24.215 64.184 52.326 42.901 58.445 20.176 64.524-5.522 45.706-5.226 21.844-5.022 14.095-4.413 4.844 1.363-.817 1.265-1.039 .208-.255 0 0" fill="#4c0f1f"/>
<path transform="matrix(1,0,0,-1,596.7921,268.68989)" d="M0 0C35.602 24.626 3.207 84.983-36.521 62.802-52.092 54.077-60.972 30.383-50.01 15.072-71.644 36.803-50.159 76.314-21.489 77.649 20.394 82.105 39.855 17.054 0 0" fill="#4c0f1f"/>
<path transform="matrix(1,0,0,-1,375.0064,270.4668)" d="M0 0C-5.762 1.713-11.891 5.056-14.706 10.564H-14.7-14.706C-5.6 1.275 12.304 .6 21.975 9.711 30.905 18.808 34.606 23.69 25.831 34.833 34.888 27.692 36.443 20.555 29.345 11.165 23.447 1.011 11.107-3.145 0 0" fill="#4c0f1f"/>
<path transform="matrix(1,0,0,-1,570.6273,263.3576)" d="M0 0C-9.008 3.771-18.323 12.636-18.829 22.459-14.513 11.046-.632 2.053 11.633 4.236 26.293 9.311 31.431 16.607 28.3 32.031 30.65 26.47 32.419 20.19 30.83 14.067 26.117 2.927 11.698-5.11 0 0" fill="#4c0f1f"/>
<path transform="matrix(1,0,0,-1,365.4029,329.7229)" d="M0 0C16.99 35.593 54.86 56.204 91.895 65.38 144.319 77.257 208.514 53.405 232.72 3.737 179.419 76.423 52.914 69.487 0 0" fill="#4c0f1f"/>
<path transform="matrix(1,0,0,-1,471.3633,358.7058)" d="M0 0C-20.673 5.002-36.966 21.892-46.631 39.953-46.631 39.941-46.631 39.939-46.631 39.925-35.246 27.002-21.197 15.084-4.461 9.978 24.941 .759 61.158 13.611 62.72 48.138 67.531 11.593 32.575-8.512 0 0" fill="#4c0f1f"/>
<path transform="matrix(1,0,0,-1,450.1798,424.75099)" d="M0 0C-28.672 7.655-58.243 22.445-75.331 47.304-75.33 47.304-75.33 47.299-75.325 47.299L-75.331 47.298C-25.261 .501 71.945-7.081 123.445 41.158 128.321 45.91 132.626 51.352 136.562 56.728 114.144 6.675 50.672-13.185 0 0" fill="#4c0f1f"/>
<path transform="matrix(1,0,0,-1,468.3285,439.84474)" d="M0 0C-5.14 .522-10.204 1.615-15.112 3.175 28.133 .834 77.993 20.913 105.526 54.67 86.633 16.327 41.91-5.315 0 0" fill="#4c0f1f"/>
<path transform="matrix(1,0,0,-1,463.6659,492.287)" d="M0 0C-37.234 4.634-76.306 16.193-106.461 38.306-35.381 5.275 84.152-2.678 149.12 46.495 115.817 7.529 49.082-4.711 0 0" fill="#4c0f1f"/>
<path transform="matrix(1,0,0,-1,632.9125,665.5078)" d="M0 0C-40.125 10.863-68.694 45.339-72.241 86.722-73.401 114.162-62.837 145.399-43.724 165.055-43.723 165.055-43.729 165.055-43.729 165.05V165.055C-43.729 165.05-43.729 165.05-43.734 165.05H-43.729C-43.734 165.05-43.734 165.05-43.741 165.05-57.699 143.104-63.491 114.351-61.709 88.538-56.138 48.899-35.741 18.257 0 0" fill="#4c0f1f"/>
<path transform="matrix(1,0,0,-1,648.4357,639.8893)" d="M0 0C-31.68 6.534-57.409 37.327-56.144 69.96-33.259-29.464 98.984 7.433 81.808 102.987 82.913 101.453 85.203 90.464 86.222 85.656 96.15 38.108 47.821-11.137 0 0" fill="#4c0f1f"/>
<path transform="matrix(1,0,0,-1,590.4351,553.4596)" d="M0 0C-.038 31.042 21.549 62.333 52.191 69.994 72.748 75.738 98.412 71.751 113.208 55.929L113.205 55.932C94.286 68.676 68.969 67.583 48.47 59.275 23.978 48.813 5.596 25.738 0 0" fill="#4c0f1f"/>
<path transform="matrix(1,0,0,-1,328.2365,678.56008)" d="M0 0C-14.92 2.032-30.468 5.988-43.406 13.645 25.645-10.527 83.701 25.565 82.077 100.818 81.551 120.363 77.264 140.175 67.47 157.237 61.204 167.573 51.665 175.482 43.134 183.822 124.633 139.567 106.426-11.634 0 0" fill="#4c0f1f"/>
<path transform="matrix(1,0,0,-1,380.8038,579.97268)" d="M0 0C9.603 49.802-42.39 79.792-86.186 67.305-96.861 64.247-106.625 57.541-113.199 48.744-108.52 58.988-99.917 67.283-89.831 72.195-41.7 95.974 21.599 54.952 0 0" fill="#4c0f1f"/>
<path transform="matrix(1,0,0,-1,321.9701,655.19668)" d="M0 0C-25.121 .801-53.067 12.249-64.828 35.444-40.905 7.259 5.442 2.744 36.845 20.362 57.238 31.926 65.164 55.458 67.352 77.4 72.629 32.809 45.638-.445 0 0" fill="#4c0f1f"/>
<path transform="matrix(1,0,0,-1,362.3844,940.1134)" d="M0 0C60.285 5.955 48.909 110.488 26.083 150.404 14.709 167.838-7.274 183.308-28.684 175.759-41.389 171.896-53.214 162.016-56.979 149.115-54.954 165.939-39.748 179.27-23.891 183.913 66.936 204.537 88.796-2.208 0 0" fill="#4c0f1f"/>
<path transform="matrix(1,0,0,-1,324.704,932.7093)" d="M0 0C-29.227 10.935-38.279 45.618-39.82 73.858-40.383 82.964-40.115 92.792-36.507 101.179-38.87 83.644-32.924 66.287-28.529 49.533-21.583 25.705-9.018 1.09 18.32-1.962 12.289-2.234 5.933-1.688 0 0" fill="#4c0f1f"/>
<path transform="matrix(1,0,0,-1,347.5701,955.4819)" d="M0 0C-12.842 1.664-25.639 5.047-37.669 9.508 41.425-7.685 101.113 25.539 95.237 112.187 94.32 147.775 83.157 189.081 48.13 205.165 8.829 224.006-59.696 230.039-79.529 181.836-64.077 239.873 19.648 238.286 62.282 212.583 104.482 186.794 111.262 131.054 108.228 85.789 104.189 26.433 58.259-8.471 0 0" fill="#4c0f1f"/>
<path transform="matrix(1,0,0,-1,629.145,965.6042)" d="M0 0C-27.332 9.837-49.076 30.402-55.627 59.262-65.686 95.15-64.078 136.348-43.436 168.071-57.251 135.628-54.937 98.894-44.784 65.829-31.34 12.467 25.373-7.732 75.174 4.214 51.611-5.313 24.378-8.053 0 0" fill="#4c0f1f"/>
<path transform="matrix(1,0,0,-1,722.3106,819.8149)" d="M0 0C-.993 12.08-.749 24.849-5.551 36.173-23.719 68.194-54.685 76.752-85.626 55.981-92.643 50.903-100.135 45.511-104.294 38.041-91.205 71.295-42.784 91.715-15.557 62.621 4.772 42.474 4.099 26.571 0 0" fill="#4c0f1f"/>
<path transform="matrix(1,0,0,-1,655.9124,949.4604)" d="M0 0C-54.898 7.177-59.378 76.57-51.262 120.044-50.967 121.69-50.734 123.369-50.34 124.992-50.67 87.382-47.056 23.483-2.022 13.606 51.222 4.153 58.317 67.613 65.395 105.549 65.335 59.675 61.444-3.723 0 0" fill="#4c0f1f"/>
<path transform="matrix(1,0,0,-1,778.5461,811.028)" d="M0 0C-.529 17.231-9.974 31.762-19.37 45.48-25.192 54.469-31.768 63.055-39.719 70.275-67.227 96.577-98.883 98.365-133.961 87.897-146.289 83.68-159.064 77.326-167.475 67.303-159.068 81.93-143.444 91.568-127.933 97.336-88.56 112.565-52.445 104.757-26.036 71.056-12.117 51.038 3.226 25.089 0 0" fill="#4c0f1f"/>
<path transform="matrix(1,0,0,-1,376.2261,117.49823)" d="M0 0C60.012 24.833 126.87 21.509 189.147 7.29 126.258 7.687 62.309 11.018 0 0" fill="#4c0f1f"/>
<path transform="matrix(1,0,0,-1,645.4504,462.1374)" d="M0 0C10.839 9.765 23.733 17.122 35.327 25.62 35.331 25.606 35.317 25.596 35.306 25.596 26.318 14.044 12.875 6.344 0 0" fill="#4c0f1f"/>
<path transform="matrix(1,0,0,-1,706.5623,661.6203)" d="M0 0C39.186 25.349 67.246 67.044 78.049 112.21 80.111 119.629 82.044 127.281 84.104 134.6 83.765 128.378 83.309 122.162 82.735 115.952 81.305 65.283 47.852 17.252 0 0" fill="#4c0f1f"/>
<path transform="matrix(1,0,0,-1,708.1555,715.4955)" d="M0 0C-1.946 .641-3.922 1.475-5.849 1.812-3.379 2.382-.801 .809 1.51 1.669 9.704 7.652 19.034 12.5 29.496 11.764 20.62 9.991 12.509 5.555 4.587 1.184 3.219 .481 1.593-.45 0 0" fill="#4c0f1f"/>
<path transform="matrix(1,0,0,-1,387.7246,743.6129)" d="M0 0C-13.98 9.953-29.216 19.611-42.044 30.474-42.042 30.491-42.018 30.435-42.016 30.451-26.139 23.216-10.977 13.716 0 0" fill="#4c0f1f"/>
<path transform="matrix(1,0,0,-1,794.994,805.5288)" d="M0 0C1.385-16.392 .325-34.478-1.901-51.04-4.884-69.134-12.022-86.7-23.001-101.424-37.185-118.166-55.932-130.511-74.831-141.337-100.006-155.277-126.218-158.949-154.437-153.62-181.219-144.629-202.591-124.703-210.631-94.245-220.789-61.181-223.102-24.447-209.285 7.995-229.929-23.729-231.536-64.923-221.478-100.812-218.042-115.94-210.43-128.789-200.034-139.002-211.624-134.428-223.066-129.191-235.128-125.942-256.95-120.757-279.637-121.144-301.902-119.465-312.311-118.855-322.729-118.258-333.154-117.976-342.944-117.234-352.728-118.087-361.836-121.968-323.143-79.186-331.657 32.094-385.144 62.632-395.736 68.965-408.724 73.841-422.54 76.715-430.728 83.005-439.892 88.081-449.3 92.378-449.294 92.366-449.283 92.355-449.283 92.366-443.456 87.429-437.129 82.742-430.652 78.166-470.494 84.071-514.478 73.174-526.805 33.376-526.916 32.954-526.966 32.197-526.955 31.881-507.112 80.079-438.604 74.052-399.294 55.21-364.267 39.125-353.103-2.179-352.185-37.768-348.505-92.044-370.55-125.359-406.978-138.452-419.549-141.277-432.32-143.373-445.124-144.729-456.826-145.127-471.672-143.303-474.819-144.073-502.547-139.34-524.413-127.909-540.72-104.564-560.611-77.438-567.125-49.533-562.732-16.296-558.468 1.123-550.228 16.769-538.419 37.135-471.423 159.474-572.618 166.797-568.86 262.343-565.735 307.234-519.238 338.247-514.678 381.564-513.023 383.866-511.914 386.452-511.42 389.242-510.18 396.859-512.855 404.39-514.928 411.626-530.902 457.201-544.076 504.384-543.49 553.12-538.609 559.381-545.946 565.671-550.189 569.833-552.035 571.389-553.931 574.775-556.478 576.51-563.974 587.077-569.773 598.744-574.486 610.787-589.761 650.708-589.282 696.186-556.911 727.539-536.464 747.547-504.728 749.956-478.117 743.301-469.389 740.409-461.131 736.021-453.881 730.363-451.387 728.303-449.095 725.594-445.819 724.892-443.024 715.775-433.683 721.312-427.405 722.662-362.579 741.08-293.593 745.476-227.466 729.701-224.536 726.927-219.032 727.022-216.869 730.969-196.042 758.424-158.596 766.158-125.832 766.19-49.844 768.278-34.338 679.692-56.894 622.451-60.681 613.745-65.429 605.466-71.35 598.027-73.314 595.266-77.54 592.841-77.872 588.986-78.65 587.035-78.817 585.1-77.816 583.427-77.486 575.467-77.247 567.495-77.41 559.525-78.404 535.528-81.105 511.603-84.343 487.813-84.343 487.813-84.349 487.808-84.349 487.808-87.309 468.559-91.026 449.001-95.953 429.612-97.616 422.867-99.498 416.13-100.45 409.241-100.984 404.009-97.882 399.489-94.29 396.041-83.968 386.649-70.748 381.195-59.991 372.335-46.419 361.278-35.028 347.555-26.355 332.364-10.232 303.26-8.783 267.987-18.659 236.579-28.637 198.339-55.629 165.357-88.43 143.907-69.777 150.634-53.308 162.037-40.07 176.454-54.988 130.987-26.448 95.614-11.476 54.81-5.431 37.765-2.059 18.195 0 0M-16.446-5.499C-13.221 19.588-28.567 45.541-42.483 65.557-52.925 78.878-64.878 88.158-77.955 93.562-71.389 97.098-64.623 100.339-57.345 101.796-65.974 102.408-73.835 99.211-80.919 94.713H-80.924C-100.184 101.735-121.745 100.595-144.379 91.838-159.891 86.067-175.514 76.432-183.921 61.804-175.514 71.828-162.738 78.183-150.412 82.398-115.329 92.867-83.676 91.077-56.166 64.778-48.215 57.556-41.638 48.972-35.817 39.981-26.421 26.265-16.974 11.731-16.446-5.499M-146.559 165.64C-98.738 154.504-50.406 203.748-60.336 251.296-61.353 256.105-63.644 267.091-64.751 268.626-47.586 173.012-179.852 136.223-202.703 235.6-203.97 202.969-178.239 172.173-146.559 165.64M-72.685-14.283C-68.584 12.331-67.913 28.169-88.241 48.337-115.465 77.423-163.891 57.009-176.977 23.757-172.818 31.224-165.329 36.617-158.312 41.694-127.366 62.465-96.403 53.909-78.233 21.889-73.435 10.564-73.674-2.207-72.685-14.283M-139.081-143.934C-77.638-147.654-73.746-84.254-73.685-38.38-80.763-76.32-87.857-139.781-141.105-130.324-186.142-120.436-189.74-56.563-189.42-18.937-198.681-63.397-195.924-136.167-139.081-143.934M-91.354 308.001H-91.349C-106.149 323.819-131.808 327.805-152.369 322.062-183.009 314.4-204.598 283.109-204.559 252.069-198.966 277.805-180.579 300.884-156.088 311.342-135.589 319.654-110.275 320.744-91.354 308.001M-109.135 600.295C-77.216 628-63.438 683.104-95.864 715.618-118.759 741.294-162.071 739.67-184.733 714.634-184.738 714.684-185.405 713.389-185.116 713.506-176.977 721.773-164.039 724.714-152.624 726.532-128.973 729.813-106.211 715.824-95.213 695.219-79.178 664.262-89.242 627.016-109.135 600.295M-114.239 368.987C-114.228 368.987-114.211 368.998-114.217 369.01-125.809 360.514-138.702 353.158-149.544 343.39-136.668 349.733-123.224 357.434-114.239 368.987M-193.534 556.239C-191.949 562.36-193.717 568.643-196.07 574.203-192.931 558.776-198.085 551.472-212.732 546.409-224.997 544.224-238.88 553.22-243.195 564.629-242.689 554.804-233.376 545.942-224.369 542.172-212.671 537.063-198.249 545.097-193.534 556.239M-182.208 359.733C-247.188 310.581-366.636 318.493-437.791 351.55-407.634 329.434-368.565 317.875-331.33 313.244-282.248 308.529-215.512 320.772-182.208 359.733M-234.722 599.639C-194.996 621.823-162.599 561.465-198.204 536.84-158.346 553.892-177.805 618.943-219.694 614.489-248.359 613.154-269.848 573.642-248.21 551.913-259.176 567.225-250.297 590.91-234.722 599.639M-205.844 305.038C-205.832 305.049-205.821 305.06-205.81 305.071-205.816 305.071-205.816 305.071-205.82 305.071-256.971 250.929-236.008 159.713-162.08 140.021-223.242 168.621-241.319 249.56-205.844 305.038M-217.742 421.05C-214.056 426.221-210.953 431.77-208.251 437.507-212.187 432.131-216.491 426.688-221.367 421.934-272.862 373.702-370.06 381.28-420.133 428.067-403.047 403.22-373.48 388.43-344.813 380.78-319.627 374.325-291.61 375.787-266.874 385.055-289.798 373.886-316.068 367.725-339.537 368.743-340.243 368.693-341.277 369.104-341.777 368.859-301.955 357.043-255.235 372.306-230.29 405.577-226.747 411.267-221.618 415.532-217.742 421.05M-196.869 479.541C-221.081 529.21-285.269 553.065-337.696 541.182-374.731 532.009-412.599 511.398-429.59 475.805-376.679 545.29-250.176 552.23-196.869 479.541M-229.623 695.279C-291.78 709.616-358.662 712.796-418.77 688.063-356.561 698.93-292.622 695.831-229.623 695.279M-261.954 477.956C-260.786 483.499-260.086 489.414-260.909 494.964-262.484 460.431-298.681 447.581-328.089 456.8-344.822 461.922-358.921 473.813-370.26 486.773V486.746C-360.559 468.713-344.308 451.818-323.63 446.826-299.639 440.209-266.802 450.968-261.954 477.956M-375.648 548.61C-368.142 568.426-377.9 593.29-398.388 600.423-421.178 608.68-449.05 592.267-453.731 568.665-455.799 556.323-453.698 539.838-442.99 532.148-448.766 537.808-449.372 547.059-449.578 554.81-449.872 578.667-424.175 597.487-401.451 591.41-380.168 585.289-371.05 557.178-381.831 538.586-379.301 541.388-376.999 544.974-375.648 548.61M-384.683 227.789C-384.433 197.12-394.591 162.727-421.828 145.619-448.26 129.973-481.87 130.513-510.164 140.616-404.895 84.417-333.11 201.512-395.869 288.33-403.52 297.554-413.878 304.003-423.624 310.792-415.092 302.452-405.556 294.54-399.289 284.205-389.492 267.141-385.205 247.332-384.683 227.789M-390.643 546.225C-388.085 550.034-385.267 554.432-386.334 559.219-387.185 563.639-390.86 567.108-394.157 569.894-385.379 558.744-389.083 553.868-398.01 544.774-407.684 535.661-425.587 536.334-434.694 545.625-425.49 530.115-399.425 530.235-390.643 546.225M-432.608-134.584C-343.826-136.81-365.665 69.953-456.5 49.333-472.357 44.685-487.563 31.352-489.587 14.528-485.823 27.433-473.997 37.312-461.292 41.177-439.881 48.721-417.903 33.254-406.526 15.818-383.707-24.11-372.311-128.589-432.608-134.584M-473.024 150.334C-427.388 149.889-400.395 183.143-405.671 227.733-407.862 205.788-415.785 182.259-436.179 170.693-467.576 153.077-513.934 157.592-537.852 185.777-526.093 162.582-498.143 151.134-473.024 150.334M-414.189 225.553C-392.589 280.507-455.888 321.528-504.02 297.749-514.106 292.839-522.713 284.544-527.388 274.302-520.817 283.098-511.053 289.803-500.378 292.861-456.578 305.349-404.587 275.359-414.189 225.553M-470.288-127.182C-464.356-128.867-458.001-129.412-451.968-129.144-479.316-126.078-491.869-101.485-498.822-77.649-503.214-60.892-509.158-43.539-506.795-26.003-510.403-34.388-510.675-44.218-510.108-53.325-508.568-81.563-499.517-116.246-470.288-127.182M-482.098 710.414C-476.426 709.569-470.661 708.329-465.185 706.995-491.544 722.469-529.685 716.587-549.028 692.539-568.773 667.884-562.452 628.828-542.945 606.138-570.057 657.04-542.84 713.438-482.098 710.414" fill="#981e3d"/>
<path transform="matrix(1,0,0,-1,532.2894,296.00428)" d="M0 0C3.675-12.955-8.129-25.336-17.836-32.192-11.042-24.525-2.635-13.383-5.638-2.724-14.862 3.419-37.34-.523-48.655-.901-65.829-2.307-109.919-4.12-83.876-29.522-134.14 5.102-9.593 21.206 0 0" fill="#c1788b"/>
<path transform="matrix(1,0,0,-1,552.0437,231.22382)" d="M0 0C-1.479 12.763 7.779 23.334 20.66 23.329 19.323 22.823 17.636 22.435 16.312 21.806 6.368 17.573 .544 7.216 .672-3.325 .469-3.54 .016-.183 0 0" fill="#c1788b"/>
<path transform="matrix(1,0,0,-1,358.0362,247.88269)" d="M0 0C-4.221 12.276 9.379 24.604 21.233 23.074 10.616 21.212-1.164 10.967 .389-.483 .398-.492 .407-.501 .416-.51 .417-.51 .419-.511 .421-.512 .422-.51 .423-.508 .423-.506V-.511C.435-.507 .455-.359 .489-.417 .477-.937 .008-.012 0 0" fill="#c1788b"/>
<path transform="matrix(1,0,0,-1,366.9336,781.4601)" d="M0 0C6.84-21.202-6.98-48.908-24.309-61.431-32.4-67.77-46.415-69.85-51.919-59.224-58.854-44.386-50.074-25.51-40.938-13.383-37.613-6.866-33.249-.795-27.683 3.864-18.592 12.06-4.936 13.078 0 0" fill="#c1788b"/>
<path transform="matrix(1,0,0,-1,656.3252,800.9586)" d="M0 0C2.911-18.058 .043-37.483-8.874-53.53-19.47-72.658-39.04-72.019-43.279-49.21-46.164-32.914-42.816-15.635-35.778-.784-33.877 3.119-31.653 6.889-28.912 10.258-26.877 13.95-24.186 17.458-20.494 19.471-8.369 25.571-1.358 9.695 0 0" fill="#c1788b"/>
<path transform="matrix(1,0,0,-1,698.6801,504.0885)" d="M0 0C12.443-9.024 11.943-28.4 1.212-38.558-11.787-50.801-25.448-42.85-40.003-44.968-53.547-49.166-62.271-58.874-78.128-53.442-90.826-49.172-92.611-33.932-85.083-24.107-67.503-1.039-26.329 20.232 0 0" fill="#c1788b"/>
<path transform="matrix(1,0,0,-1,335.881,522.5362)" d="M0 0C27.46-11.937 14.817-50.167-14.028-45.569-25.748-43.456-32.898-32.853-42.989-27.521-51.134-22.896-58.206-22.957-66.224-27.716-71.118-33.473-74.449-38.576-74.881-44.718-75.853-40.622-73.9-36.403-72.873-32.509-72.612-30.991-72.429-29.484-71.294-28.345-56.268-4.247-27.796 9.64 0 0" fill="#c1788b"/>
<path transform="matrix(1,0,0,-1,443.7205,407.7635)" d="M0 0C7.945-2.185 5.432-14.167-2.741-13.105-14.773-10.814-25.726-4.642-36.584 .773-50.89 8.546-65.762 17.419-74.147 31.88-89.67 57.139-78.311 91.321-53.775 106.299-42.572 113.572-30.046 119.115-17.569 123.491-21.795 121.117-26.065 118.731-30.268 116.229-28.8 117.069-27.26 117.853-25.653 118.576-59.057 97.443-51.657 50.906-28.884 24.219-20.505 14.917-10.48 6.349 0 0" fill="#c1788b"/>
<path transform="matrix(1,0,0,-1,311.4453,50.452028)" d="M0 0C5.388-.589 13.41-1.99 12.443-9.135 11.503-15.351 4.698-15.418-.228-15.829-33.346-22.705-64.12-43.654-80.49-73.535-87.807-90.17-91.738-108.462-92.016-126.643-91.349-132.826-90.604-138.958-91.521-140.354-91.282-143.117-90.949-145.869-90.532-148.599-96.389-124.584-104.785-99.933-99.961-75.003-89.049-22.345-55.365 8.512 0 0" fill="#c1788b"/>
<path transform="matrix(1,0,0,-1,381.6833,237.64209)" d="M0 0C1.202-5.708-4.068-11.262-9.707-11.125-15.332-11.408-19.392-5.423-16.885-.339-13.601 6.398-2.198 9.018 0 0" fill="#c1788b"/>
<path transform="matrix(1,0,0,-1,577.2852,220.1842)" d="M0 0C1.405-7.263-9.357-15.617-14.55-8.44-17.06-3.934-13.265 2.838-8.918 4.842-5.138 6.767-.396 4.258 0 0" fill="#c1788b"/>
<path transform="matrix(1,0,0,-1,280.0153,407.8802)" d="M0 0C.795-5.565 .851-10.914 .3-16.085-4.259-59.402-50.756-90.415-53.881-135.305-57.639-230.852 43.556-238.174-23.44-360.514-35.25-380.88-43.489-396.525-47.754-413.945-47.754-413.945-47.759-413.95-47.759-413.956-51.112-427.65-52.007-442.439-50.261-461.487-59.841-423.596-54.164-397.787-38.802-365.323-32.403-343.762-26.871-322.034-27.388-299.416-33.254-227.527-99.817-211.654-80.346-126.398-73.763-92.744-53.792-63.538-29.451-40.026-21.205-30.857-9.407-23.73-3.747-12.777-5.76-21.061-13.055-27.177-17.903-33.982-21.155-37.98-24.38-41.988-27.544-46.053-19.639-37.42-11.255-29.234-3.469-20.483-1.312-14.061-.044-7.289 0 0M-15.557-302.875C-13.085-290.837-15.319-278.518-20.31-267.403-16.474-279.545-15.106-291.288-15.557-302.875" fill="#c1788b"/>
<path transform="matrix(1,0,0,-1,307.5978,163.44)" d="M0 0C.828 .639 1.818 1.674 2.729 1.83-24.62-30.178-15.995-83.12-15.267-122.367-13.049-160.075-9.424-198.01 .2-234.41-26.982-178.194-48.899-47.948 0 0" fill="#c1788b"/>
<path transform="matrix(1,0,0,-1,369.34,431.0099)" d="M0 0C-55.991 4.565-91.938 53.311-103.039 104.975-116.485 159.158-99.202 225.185-62.337 266.687-115.483 187.075-107.842 28.674 0 0" fill="#c1788b"/>
<path transform="matrix(1,0,0,-1,345.8651,423.11)" d="M0 0C-73.196 32.489-91.656 151.836-55.248 216.931-61.266 199.57-64.078 181.24-63.895 162.909-60.775 104.788-51.307 35.716 .085 .029 .193 .01 .044-.023 0 0" fill="#c1788b"/>
<path transform="matrix(1,0,0,-1,731.8854,197.90253)" d="M0 0C6.26 27.604 14.81 56.52 6.849 84.678-.876 108.129-17.259 137.942-41.419 147.107-83.894 161.833-162.503 151.274-156.539 92.105-156.539 92.105-156.539 92.106-156.539 92.108-156.532 92.103-156.527 92.099-156.5 92.088-158.519 94.729-158.129 99.408-158.401 102.776-159.4 167.084-58.774 181.462-17.969 148.85 .583 132.198 12.66 108.181 17.369 83.86 22.291 54.788 10.493 26.417 0 0" fill="#c1788b"/>
<path transform="matrix(1,0,0,-1,410.2368,440.6386)" d="M0 0C-46.442 10.797-89.074 17.728-113.802 63.993-138.503 126.149-140.043 222.841-98.431 278.006-98.435 278.004-98.44 278.003-98.445 278-98.444 278.002-98.444 278.004-98.445 278.004-128.666 222.255-123.254 123.107-100.163 65.432-76.391 23.378-40.755 17.069 0 0" fill="#c1788b"/>
<path transform="matrix(1,0,0,-1,306.248,357.28309)" d="M0 0C-14.017 34.23-24.949 78.136-15.328 114.634-15.265 114.656-15.222 114.599-15.302 114.595-16.501 94.646-11.673 75.005-8.566 55.421-5.749 36.975-3.352 18.275 0 0" fill="#981e3d"/>
<path transform="matrix(1,0,0,-1,238.1999,248.35572)" d="M0 0C-3.719 2.17-6.262 6.047-8.94 9.335-12.704 14.284-16.04 19.532-19.059 24.97-32.106 48.342-40.134 74.664-40.954 101.49-41.949 136.03-25.476 171.838 4.087 190.576 15.026 197.054 27.541 200.715 40.12 202.208 53.124 203.904 66.326 202.522 79.106 199.845 89.354 197.399 98.913 192.391 107.567 186.462 112.343 182.71 119.72 178.717 118.426 171.6 118.003 169.115 115.774 167.586 113.361 167.486 108.981 167.2 105.952 170.57 102.915 173.19 97.495 177.455 91.481 180.902 85.169 183.669 64.899 191.583 41.413 191.374 21.033 183.889 9.386 179.707-.191 171.412-7.853 161.865-37.726 124.848-29.67 72.493-8.353 33.3-4.059 25.655 .519 17.987 6.665 11.672 13.621 7.111 7.705-3.713 0 0" fill="#4c0f1f"/>
<path transform="matrix(1,0,0,-1,359.3836,73.62451)" d="M0 0C-.175 .121-.35 .241-.524 .362-.636 .393-.749 .426-.86 .458-.562 .324-.275 .171 0 0M1.764-1.583C1.418-1.116 1.02-.68 .527-.363 .99-.716 1.407-1.125 1.764-1.583M-8.725-9.924C-12.697-5.409-8.711 1.075-3.204 1.535 8.316 4.762 19.809 8.057 31.573 10.293 90.51 23.913 153.504 24.879 212.374 10.525 222.75 6.558 218.221-5.252 207.705-2.083 141.683 13.518 72.899 9.152 8.205-9.241 2.697-10.155-4.066-15.007-8.725-9.924" fill="#4c0f1f"/>
<path transform="matrix(1,0,0,-1,719.8705,224.52948)" d="M0 0C-7.851 4.315-.125 12.763 3.774 17.029 30.053 50.463 33.13 98.319 20.263 137.814 10.593 168.067-19.684 186.074-50.705 185.194-83.586 185.158-121.172 177.373-141.955 149.69-141.893 149.793-141.831 149.896-141.844 149.906-141.609 150.199-141.466 150.547-141.32 150.89-143.737 144.314-154.122 146.072-154.249 153.104-151.633 163.151-141.181 170.208-133.427 176.602-26.309 235.88 64.124 175.184 35.99 52.368 33.355 39.926 14.816-3.285 0 0" fill="#4c0f1f"/>
<path transform="matrix(1,0,0,-1,647.4197,973.8148)" d="M0 0C-31.888 3.486-60.135 19.558-90.252 29.189-100.865 32.01-111.86 32.682-122.768 33.459-144.087 34.764-165.399 36.253-186.746 36.945-191.409 36.981-196.161 37.471-200.76 36.513-211.265 34.001-220.696 28.57-230.663 24.602-237.813 21.75-245.18 19.526-252.641 17.651-275.271 12.553-298.616 8.127-321.895 10.018-345.981 12.617-370.19 21.221-388.314 37.673-405.271 54.56-418.702 75.487-425.443 98.537-435.917 137.43-426.278 178.474-412.01 215.139-409.425 221.978-406.823 228.811-404.237 235.655-399.429 248.56-393.493 261.873-395.341 275.969-397.132 296.838-412.675 312.107-424.153 328.361-437.445 346.999-448.182 367.649-453.704 389.953-460.238 419.463-454.877 454.26-441.2 481.079-431.143 501.323-415.122 517.693-399.962 534.171-392.626 541.962-384.965 549.471-378.05 557.653-376.017 560.278-377.18 563.951-377.683 566.927-379.389 573.911-381.683 580.719-384.044 587.507-396.057 621.855-405.061 657.383-408.235 693.706-408.883 703.911-410.194 714.358-408.813 724.496-406.788 730.101-400.359 732.914-396.853 725.853-394.98 721.002-396.341 715.56-395.831 710.475-395.651 704.03-395.164 697.601-394.574 691.599-391.612 660.666-384.181 630.378-374.425 600.923-370.961 590.335-366.813 579.931-364.418 569.026-360.886 554.539-367.422 548.94-376.499 539.308-385.365 529.957-394.401 520.769-402.908 511.097-432.191 480.278-445.443 447.187-442.585 404.408-439.344 378.284-426.446 354.413-411.242 333.328-396.977 315.157-381.533 295.91-381.63 271.588-381.264 251.875-391.182 233.974-397.426 215.756-406.246 193.331-413.837 170.18-415.818 146.03-417.341 128.251-416.044 109.978-409.56 93.225-402.014 75.036-390.882 58.007-376.162 44.835-358.574 30.993-336.269 23.968-314.056 22.948-294.134 22.739-275.671 26.274-256.497 30.502-246.083 33.102-235.922 36.563-226.199 41.115-216.639 45.485-206.727 50.198-196.031 50.478-167.49 50.069-138.963 48.036-110.497 45.99-95.45 45.051-80.828 41.083-67.003 35.166-35.293 21.907-3.335 8.83 31.798 13.117 56.322 16.156 78.296 28.881 98.076 43.051 107.61 50.16 117.082 57.539 124.571 66.863 135.557 81.582 142.69 99.154 145.672 117.248 147.944 133.759 148.935 151.937 147.576 168.286 145.567 186.461 142.109 206.059 136.099 223.095 124.103 257.244 99.176 289.737 103.903 327.582 107.483 354.412 121.293 379.319 128.916 404.865 134.085 422.049 136.462 440.045 134.5 457.946 131.408 490.599 112.638 520.11 87.584 540.618 82.019 544.927 76.17 548.788 70.154 552.451 61.303 558.288 46.611 565.126 47.125 577.527 47.331 579.528 47.776 581.53 48.181 583.498 60.444 631.008 68.045 678.977 70.164 727.81 70.337 736.08 70.063 744.342 69.727 752.602 69.199 756.668 69.849 761.908 74.468 763.199 78.508 764.556 83.193 761.253 83.164 756.927 82.953 754 83.23 751.048 83.326 748.121 83.752 737.786 83.738 727.443 83.092 717.113 81.17 689.111 78.065 661.156 73.051 633.526 69.975 614.272 64.342 595.58 60.512 576.495 65.837 569.603 74.347 566.047 81.43 561.247 87.885 557.194 94.101 552.802 99.888 547.837 151.73 502.054 160.412 441.305 134.015 379.039 124.839 354.335 111.642 327.964 118.739 301.082 125.415 275.379 139.741 252.515 148.699 227.627 156.386 205.174 160.562 181.427 161.626 157.733 161.744 141.677 160.793 125.479 157.928 109.662 154.854 94.375 148.818 79.695 140.642 66.446 132.454 53.353 120.714 43.026 108.345 33.988 75.751 9.396 41.612-5.645 0 0" fill="#4c0f1f"/>
<path transform="matrix(1,0,0,-1,246.5705,254.21698)" d="M0 0C-3.335 .692-5.888 2.886-7.788 5.653-10.312 8.108-12.819 10.602-15.101 13.288-20.054 17.521-18.824 25.635-11.771 26.242-7.148 26.723-4.408 20.751-1.768 18.52 1.596 14.984 6.36 11.542 6.493 6.216 6.711 2.771 3.613-.759 0 0" fill="#4c0f1f"/>
<path transform="matrix(1,0,0,-1,250.6556,198.19422)" d="M0 0C-17.869 23.676-24.346 60.684-4.687 85.206 14.658 109.255 52.791 115.133 79.156 99.66 51.095 109.107 14.484 98.907-.873 72.567-13.498 51.09-10.151 19.874 1.395-1.195H1.391 1.396 1.402 1.396C1.039-1.385 .235-.247 0 0" fill="#4c0f1f"/>
<path transform="matrix(1,0,0,-1,685.8586,205.2351)" d="M0 0C19.893 26.721 29.959 63.97 13.923 94.924 2.922 115.533-19.84 129.521-43.489 126.238-54.904 124.422-67.843 121.477-75.981 113.211-76.27 113.093-75.605 114.389-75.597 114.338-52.938 139.376-9.622 141.002 13.271 115.324 45.699 82.81 31.92 27.709 0 0" fill="#4c0f1f"/>
<path transform="matrix(1,0,0,-1,350.6433,272.5653)" d="M0 0C-9.331 8.803-11.49 23.516-9.379 35.7-4.698 59.302 23.174 75.715 45.964 67.458 70.227 59.239 79.634 24.766 62.521 5.621 73.302 24.215 64.184 52.326 42.901 58.445 20.176 64.524-5.522 45.706-5.226 21.844-5.022 14.095-4.413 4.844 1.363-.817 1.265-1.039 .208-.255 0 0" fill="#4c0f1f"/>
<path transform="matrix(1,0,0,-1,596.7921,268.68989)" d="M0 0C35.602 24.626 3.207 84.983-36.521 62.802-52.092 54.077-60.972 30.383-50.01 15.072-71.644 36.803-50.159 76.314-21.489 77.649 20.394 82.105 39.855 17.054 0 0" fill="#4c0f1f"/>
<path transform="matrix(1,0,0,-1,375.0064,270.4668)" d="M0 0C-5.762 1.713-11.891 5.056-14.706 10.564H-14.7-14.706C-5.6 1.275 12.304 .6 21.975 9.711 30.905 18.808 34.606 23.69 25.831 34.833 34.888 27.692 36.443 20.555 29.345 11.165 23.447 1.011 11.107-3.145 0 0" fill="#4c0f1f"/>
<path transform="matrix(1,0,0,-1,570.6273,263.3576)" d="M0 0C-9.008 3.771-18.323 12.636-18.829 22.459-14.513 11.046-.632 2.053 11.633 4.236 26.293 9.311 31.431 16.607 28.3 32.031 30.65 26.47 32.419 20.19 30.83 14.067 26.117 2.927 11.698-5.11 0 0" fill="#4c0f1f"/>
<path transform="matrix(1,0,0,-1,365.4029,329.7229)" d="M0 0C16.99 35.593 54.86 56.204 91.895 65.38 144.319 77.257 208.514 53.405 232.72 3.737 179.419 76.423 52.914 69.487 0 0" fill="#4c0f1f"/>
<path transform="matrix(1,0,0,-1,471.3633,358.7058)" d="M0 0C-20.673 5.002-36.966 21.892-46.631 39.953-46.631 39.941-46.631 39.939-46.631 39.925-35.246 27.002-21.197 15.084-4.461 9.978 24.941 .759 61.158 13.611 62.72 48.138 67.531 11.593 32.575-8.512 0 0" fill="#4c0f1f"/>
<path transform="matrix(1,0,0,-1,450.1798,424.75099)" d="M0 0C-28.672 7.655-58.243 22.445-75.331 47.304-75.33 47.304-75.33 47.299-75.325 47.299L-75.331 47.298C-25.261 .501 71.945-7.081 123.445 41.158 128.321 45.91 132.626 51.352 136.562 56.728 114.144 6.675 50.672-13.185 0 0" fill="#4c0f1f"/>
<path transform="matrix(1,0,0,-1,468.3285,439.84474)" d="M0 0C-5.14 .522-10.204 1.615-15.112 3.175 28.133 .834 77.993 20.913 105.526 54.67 86.633 16.327 41.91-5.315 0 0" fill="#4c0f1f"/>
<path transform="matrix(1,0,0,-1,463.6659,492.287)" d="M0 0C-37.234 4.634-76.306 16.193-106.461 38.306-35.381 5.275 84.152-2.678 149.12 46.495 115.817 7.529 49.082-4.711 0 0" fill="#4c0f1f"/>
<path transform="matrix(1,0,0,-1,632.9125,665.5078)" d="M0 0C-40.125 10.863-68.694 45.339-72.241 86.722-73.401 114.162-62.837 145.399-43.724 165.055-43.723 165.055-43.729 165.055-43.729 165.05V165.055C-43.729 165.05-43.729 165.05-43.734 165.05H-43.729C-43.734 165.05-43.734 165.05-43.741 165.05-57.699 143.104-63.491 114.351-61.709 88.538-56.138 48.899-35.741 18.257 0 0" fill="#4c0f1f"/>
<path transform="matrix(1,0,0,-1,648.4357,639.8893)" d="M0 0C-31.68 6.534-57.409 37.327-56.144 69.96-33.259-29.464 98.984 7.433 81.808 102.987 82.913 101.453 85.203 90.464 86.222 85.656 96.15 38.108 47.821-11.137 0 0" fill="#4c0f1f"/>
<path transform="matrix(1,0,0,-1,590.4351,553.4596)" d="M0 0C-.038 31.042 21.549 62.333 52.191 69.994 72.748 75.738 98.412 71.751 113.208 55.929L113.205 55.932C94.286 68.676 68.969 67.583 48.47 59.275 23.978 48.813 5.596 25.738 0 0" fill="#4c0f1f"/>
<path transform="matrix(1,0,0,-1,328.2365,678.56008)" d="M0 0C-14.92 2.032-30.468 5.988-43.406 13.645 25.645-10.527 83.701 25.565 82.077 100.818 81.551 120.363 77.264 140.175 67.47 157.237 61.204 167.573 51.665 175.482 43.134 183.822 124.633 139.567 106.426-11.634 0 0" fill="#4c0f1f"/>
<path transform="matrix(1,0,0,-1,380.8038,579.97268)" d="M0 0C9.603 49.802-42.39 79.792-86.186 67.305-96.861 64.247-106.625 57.541-113.199 48.744-108.52 58.988-99.917 67.283-89.831 72.195-41.7 95.974 21.599 54.952 0 0" fill="#4c0f1f"/>
<path transform="matrix(1,0,0,-1,321.9701,655.19668)" d="M0 0C-25.121 .801-53.067 12.249-64.828 35.444-40.905 7.259 5.442 2.744 36.845 20.362 57.238 31.926 65.164 55.458 67.352 77.4 72.629 32.809 45.638-.445 0 0" fill="#4c0f1f"/>
<path transform="matrix(1,0,0,-1,362.3844,940.1134)" d="M0 0C60.285 5.955 48.909 110.488 26.083 150.404 14.709 167.838-7.274 183.308-28.684 175.759-41.389 171.896-53.214 162.016-56.979 149.115-54.954 165.939-39.748 179.27-23.891 183.913 66.936 204.537 88.796-2.208 0 0" fill="#4c0f1f"/>
<path transform="matrix(1,0,0,-1,324.704,932.7093)" d="M0 0C-29.227 10.935-38.279 45.618-39.82 73.858-40.383 82.964-40.115 92.792-36.507 101.179-38.87 83.644-32.924 66.287-28.529 49.533-21.583 25.705-9.018 1.09 18.32-1.962 12.289-2.234 5.933-1.688 0 0" fill="#4c0f1f"/>
<path transform="matrix(1,0,0,-1,347.5701,955.4819)" d="M0 0C-12.842 1.664-25.639 5.047-37.669 9.508 41.425-7.685 101.113 25.539 95.237 112.187 94.32 147.775 83.157 189.081 48.13 205.165 8.829 224.006-59.696 230.039-79.529 181.836-64.077 239.873 19.648 238.286 62.282 212.583 104.482 186.794 111.262 131.054 108.228 85.789 104.189 26.433 58.259-8.471 0 0" fill="#4c0f1f"/>
<path transform="matrix(1,0,0,-1,629.145,965.6042)" d="M0 0C-27.332 9.837-49.076 30.402-55.627 59.262-65.686 95.15-64.078 136.348-43.436 168.071-57.251 135.628-54.937 98.894-44.784 65.829-31.34 12.467 25.373-7.732 75.174 4.214 51.611-5.313 24.378-8.053 0 0" fill="#4c0f1f"/>
<path transform="matrix(1,0,0,-1,722.3106,819.8149)" d="M0 0C-.993 12.08-.749 24.849-5.551 36.173-23.719 68.194-54.685 76.752-85.626 55.981-92.643 50.903-100.135 45.511-104.294 38.041-91.205 71.295-42.784 91.715-15.557 62.621 4.772 42.474 4.099 26.571 0 0" fill="#4c0f1f"/>
<path transform="matrix(1,0,0,-1,655.9124,949.4604)" d="M0 0C-54.898 7.177-59.378 76.57-51.262 120.044-50.967 121.69-50.734 123.369-50.34 124.992-50.67 87.382-47.056 23.483-2.022 13.606 51.222 4.153 58.317 67.613 65.395 105.549 65.335 59.675 61.444-3.723 0 0" fill="#4c0f1f"/>
<path transform="matrix(1,0,0,-1,778.5461,811.028)" d="M0 0C-.529 17.231-9.974 31.762-19.37 45.48-25.192 54.469-31.768 63.055-39.719 70.275-67.227 96.577-98.883 98.365-133.961 87.897-146.289 83.68-159.064 77.326-167.475 67.303-159.068 81.93-143.444 91.568-127.933 97.336-88.56 112.565-52.445 104.757-26.036 71.056-12.117 51.038 3.226 25.089 0 0" fill="#4c0f1f"/>
<path transform="matrix(1,0,0,-1,376.2261,117.49823)" d="M0 0C60.012 24.833 126.87 21.509 189.147 7.29 126.258 7.687 62.309 11.018 0 0" fill="#4c0f1f"/>
<path transform="matrix(1,0,0,-1,645.4504,462.1374)" d="M0 0C10.839 9.765 23.733 17.122 35.327 25.62 35.331 25.606 35.317 25.596 35.306 25.596 26.318 14.044 12.875 6.344 0 0" fill="#4c0f1f"/>
<path transform="matrix(1,0,0,-1,706.5623,661.6203)" d="M0 0C39.186 25.349 67.246 67.044 78.049 112.21 80.111 119.629 82.044 127.281 84.104 134.6 83.765 128.378 83.309 122.162 82.735 115.952 81.305 65.283 47.852 17.252 0 0" fill="#4c0f1f"/>
<path transform="matrix(1,0,0,-1,708.1555,715.4955)" d="M0 0C-1.946 .641-3.922 1.475-5.849 1.812-3.379 2.382-.801 .809 1.51 1.669 9.704 7.652 19.034 12.5 29.496 11.764 20.62 9.991 12.509 5.555 4.587 1.184 3.219 .481 1.593-.45 0 0" fill="#4c0f1f"/>
<path transform="matrix(1,0,0,-1,387.7246,743.6129)" d="M0 0C-13.98 9.953-29.216 19.611-42.044 30.474-42.042 30.491-42.018 30.435-42.016 30.451-26.139 23.216-10.977 13.716 0 0" fill="#4c0f1f"/>
<g inkscape:groupmode="layer" inkscape:label="Skupina vrstev">
</g>
<g inkscape:groupmode="layer" inkscape:label="Skupina vrstev">
</g>
<g inkscape:groupmode="layer" inkscape:label="Skupina vrstev">
</g>
<g inkscape:groupmode="layer" inkscape:label="Skupina vrstev">
</g>
<g inkscape:groupmode="layer" inkscape:label="Skupina vrstev">
</g>
<g inkscape:groupmode="layer" inkscape:label="Skupina vrstev">
</g>
<g inkscape:groupmode="layer" inkscape:label="Skupina vrstev">
</g>
<g inkscape:groupmode="layer" inkscape:label="Skupina vrstev">
</g>
</g>
</g>
</g>
</svg>
