<svg xmlns="http://www.w3.org/2000/svg" xmlns:xlink="http://www.w3.org/1999/xlink" xmlns:inkscape="http://www.inkscape.org/namespaces/inkscape" version="1.1" width="1000" height="1000" viewBox="0 0 1000 1000">
<defs>
<clipPath id="clip_1">
<path transform="matrix(1,0,0,-1,0,1000)" d="M0 1000H1000V0H0Z"/>
</clipPath>
<clipPath id="clip_2">
<path transform="matrix(1,0,0,-1,0,1000)" d="M472.042 906.757H592.133V960.1H472.042Z"/>
</clipPath>
<clipPath id="clip_3">
<path transform="matrix(1,0,0,-1,0,1000)" d="M505.018 883.265H576.519V918.025H505.018Z"/>
</clipPath>
<clipPath id="clip_4">
<path transform="matrix(1,0,0,-1,0,1000)" d="M518.047 832.72H580.07V860.448H518.047Z"/>
</clipPath>
<clipPath id="clip_5">
<path transform="matrix(1,0,0,-1,0,1000)" d="M547.397 802.555H579.228V819.478H547.397Z"/>
</clipPath>
<clipPath id="clip_6">
<path transform="matrix(1,0,0,-1,0,1000)" d="M573.257 777.223H593.619V785.125H573.257Z"/>
</clipPath>
<clipPath id="clip_7">
<path transform="matrix(1,0,0,-1,0,1000)" d="M410.774 613.504H499.62V861.079H410.774Z"/>
</clipPath>
<clipPath id="clip_8">
<path transform="matrix(1,0,0,-1,0,1000)" d="M697.159 696.077H767.373V924.517H697.159Z"/>
</clipPath>
<clipPath id="clip_9">
<path transform="matrix(1,0,0,-1,0,1000)" d="M516.824 829.064H594.82V859.877H516.824Z"/>
</clipPath>
<clipPath id="clip_10">
<path transform="matrix(1,0,0,-1,0,1000)" d="M500.825 878.301H592.43V916.71H500.825Z"/>
</clipPath>
<clipPath id="clip_11">
<path transform="matrix(1,0,0,-1,0,1000)" d="M544.81 790.563H600.613V819.562H544.81Z"/>
</clipPath>
<clipPath id="clip_12">
<path transform="matrix(1,0,0,-1,0,1000)" d="M511.501 877.461H578.818V907.084H511.501Z"/>
</clipPath>
<clipPath id="clip_13">
<path transform="matrix(1,0,0,-1,0,1000)" d="M531.689 835.51H576.367V851.633H531.689Z"/>
</clipPath>
<clipPath id="clip_14">
<path transform="matrix(1,0,0,-1,0,1000)" d="M492.213 921.105H560.64V953.475H492.213Z"/>
</clipPath>
<clipPath id="clip_15">
<path transform="matrix(1,0,0,-1,0,1000)" d="M489.97 909.916H548.458V945.981H489.97Z"/>
</clipPath>
<clipPath id="clip_16">
<path transform="matrix(1,0,0,-1,0,1000)" d="M418.16 714.57H433.039V825.795H418.16Z"/>
</clipPath>
<clipPath id="clip_17">
<path transform="matrix(1,0,0,-1,0,1000)" d="M459.42 777.931H471.822V829.856H459.42Z"/>
</clipPath>
<clipPath id="clip_18">
<path transform="matrix(1,0,0,-1,0,1000)" d="M504.225 787.534H513.516V822.364H504.225Z"/>
</clipPath>
<clipPath id="clip_19">
<path transform="matrix(1,0,0,-1,0,1000)" d="M619.164 811.56H649.365V844.399H619.164Z"/>
</clipPath>
<clipPath id="clip_20">
<path transform="matrix(1,0,0,-1,0,1000)" d="M616.279 828.779H680.593V905.694H616.279Z"/>
</clipPath>
<clipPath id="clip_21">
<path transform="matrix(1,0,0,-1,0,1000)" d="M595.533 701.468H653.399V737.049H595.533Z"/>
</clipPath>
<clipPath id="clip_22">
<path transform="matrix(1,0,0,-1,0,1000)" d="M596.651 743.515H636.048V774.336H596.651Z"/>
</clipPath>
<clipPath id="clip_23">
<path transform="matrix(1,0,0,-1,0,1000)" d="M630.802 674.714H697.323V748.817H630.802Z"/>
</clipPath>
<clipPath id="clip_24">
<path transform="matrix(1,0,0,-1,0,1000)" d="M654.376 650.024H747.51V768.725H654.376Z"/>
</clipPath>
<clipPath id="clip_25">
<path transform="matrix(1,0,0,-1,0,1000)" d="M479.204 621.572H582.578V681.335H479.204Z"/>
</clipPath>
<clipPath id="clip_26">
<path transform="matrix(1,0,0,-1,0,1000)" d="M521.684 661.213H584.668V686.587H521.684Z"/>
</clipPath>
<clipPath id="clip_27">
<path transform="matrix(1,0,0,-1,0,1000)" d="M541.022 696.082H582.526V711.836H541.022Z"/>
</clipPath>
<clipPath id="clip_28">
<path transform="matrix(1,0,0,-1,0,1000)" d="M561.332 743.813H577.122V753.633H561.332Z"/>
</clipPath>
<clipPath id="clip_29">
<path transform="matrix(1,0,0,-1,0,1000)" d="M572.356 777.023H601.78V786.633H572.356Z"/>
</clipPath>
<clipPath id="clip_30">
<path transform="matrix(1,0,0,-1,0,1000)" d="M482.052 582.401H769.219V802.97H482.052Z"/>
</clipPath>
<clipPath id="clip_31">
<path transform="matrix(1,0,0,-1,0,1000)" d="M533.938 808.856H578.401V834.89H533.938Z"/>
</clipPath>
<clipPath id="clip_32">
<path transform="matrix(1,0,0,-1,0,1000)" d="M521.883 860.725H570.888V878.76H521.883Z"/>
</clipPath>
<clipPath id="clip_33">
<path transform="matrix(1,0,0,-1,0,1000)" d="M507.889 912.736H609.542V938.23H507.889Z"/>
</clipPath>
<clipPath id="clip_34">
<path transform="matrix(1,0,0,-1,0,1000)" d="M565.814 783.045H581.219V794.063H565.814Z"/>
</clipPath>
<clipPath id="clip_35">
<path transform="matrix(1,0,0,-1,0,1000)" d="M578.094 758.346H615.131V770.311H578.094Z"/>
</clipPath>
<clipPath id="clip_36">
<path transform="matrix(1,0,0,-1,0,1000)" d="M575.686 711.691H653.915V771.009H575.686Z"/>
</clipPath>
<clipPath id="clip_37">
<path transform="matrix(1,0,0,-1,0,1000)" d="M559.557 678.511H665.989V727.06H559.557Z"/>
</clipPath>
<clipPath id="clip_38">
<path transform="matrix(1,0,0,-1,0,1000)" d="M566.478 639.574H675.657V686.743H566.478Z"/>
</clipPath>
<clipPath id="clip_39">
<path transform="matrix(1,0,0,-1,0,1000)" d="M455.621 590.695H726.711V667.343H455.621Z"/>
</clipPath>
<clipPath id="clip_40">
<path transform="matrix(1,0,0,-1,0,1000)" d="M524.92 584.255H681.133V617.887H524.92Z"/>
</clipPath>
<clipPath id="clip_41">
<path transform="matrix(1,0,0,-1,0,1000)" d="M500.475 638.36H648.98V673.39H500.475Z"/>
</clipPath>
<clipPath id="clip_42">
<path transform="matrix(1,0,0,-1,0,1000)" d="M512.438 677.444H642.183V713.779H512.438Z"/>
</clipPath>
<clipPath id="clip_43">
<path transform="matrix(1,0,0,-1,0,1000)" d="M241.177 25.4044H519.377V594.948H241.177Z"/>
</clipPath>
</defs>
<g>
<g inkscape:groupmode="layer" inkscape:label="Vrstva 50">
</g>
<g inkscape:groupmode="layer" inkscape:label="Skupina vrstev">
</g>
<g inkscape:groupmode="layer" inkscape:label="Skupina vrstev">
</g>
<g inkscape:groupmode="layer" inkscape:label="Skupina vrstev">
</g>
<g inkscape:groupmode="layer" inkscape:label="Skupina vrstev">
<g clip-path="url(#clip_1)">
<path transform="matrix(1,0,0,-1,509.4251,401.79774)" d="M0 0C-16.399-41.253-36.134-81.218-56.138-120.879-86.835-182.474-117.529-244.071-148.226-305.667-178.133-365.694-208.049-425.712-237.961-485.737-251.181-512.262-265.658-538.145-280.798-563.617-269.372-534.916-256.569-506.667-242.775-479-217.895-429.074-193.016-379.144-168.133-329.218-127.351-247.376-86.566-165.539-45.781-83.696-31.722-55.159-16.28-27.325 0 0" fill="#4c0f1f"/>
<path transform="matrix(1,0,0,-1,233.0864,957.9104)" d="M0 0C-.027 .015 0 .066 .01 .093 .065 .035 .121-.022 .178-.079 .118-.052 .059-.026 0 0" fill="#4c0f1f"/>
<path transform="matrix(1,0,0,-1,238.8837,960.7213)" d="M0 0C1.686-.988 3.247-2.156 4.524-3.669 2.147-1.995-.864-.728-3.338 .913-2.182 .838-1.051 .492 0 0" fill="#4c0f1f"/>
<path transform="matrix(1,0,0,-1,243.7417,973.912)" d="M0 0C33.135 81.557 75.675 158.856 113.77 238.134 144.376 300.015 174.974 361.906 205.581 423.788 225.147 462.985 243.707 502.726 265.546 540.738 269.303 547.368 273.108 553.969 276.979 560.533 277.155 560.83 277.629 560.6 277.478 560.306 262.177 522.094 244.315 485.009 225.841 448.25 195.242 386.36 164.631 324.479 134.032 262.589 104.857 203.597 75.682 144.6 46.51 85.608 32.224 56.61 16.654 27.201 0 0" fill="#4c0f1f"/>
<path transform="matrix(1,0,0,-1,239.8685,971.8135)" d="M0 0C7.101 .95 3.029 9.577-1.769 10.724-5.312 11.536-10.036 9.291-8.434 5.082-7.13 1.832-3.44-.217 0 0M-5.083-2.325C-9.436-.578-13.105 4.992-10.252 9.421-8.24 12.378-4.003 12.615-1.01 11.1 10.848 7.774 6.843-6.852-5.083-2.325" fill="#4c0f1f"/>
<path transform="matrix(1,0,0,-1,674.7001,326.67048)" d="M0 0C-.612-2.004-.597-4.496-1.331-6.267-1.698-7.765-2.071-9.266-2.45-10.766-8.756-15.178-15.405-19.11-22.391-22.482-26.159-24.243-30.019-25.898-33.954-27.427-33.475-24.664-33.087-21.89-32.799-19.107-27.751-16.985-22.821-14.602-18.037-11.943-18.61-13.701-19.259-15.366-19.983-16.9-18.658-15.099-17.458-13.119-16.381-11.009-10.681-7.743-5.2-4.081 0 0" fill="#4c0f1f"/>
<path transform="matrix(1,0,0,-1,708.576,374.278)" d="M0 0C.722-.797-6.098-6.651-5.425-6.939-32.381-28.163-65.617-39.835-100.183-43.483-97.649-41.512-94.914-38.134-92.713-35.333-81.555-33.929-70.495-31.398-59.786-27.805-61.181-30.352-62.643-32.856-64.177-35.321-61.863-32.659-59.68-29.9-57.616-27.059-38.248-20.274-20.09-9.998-4.636 3.39-5.494 .398-1.568 2.959 0 0" fill="#4c0f1f"/>
<path transform="matrix(1,0,0,-1,641.8556,345.7987)" d="M0 0C-.073-.236-.1-.531-.191-.794-.961-3.514-1.801-6.224-2.714-8.914-12.028-12.44-21.745-15.275-31.641-17.264-31.216-16.797-30.795-16.327-30.37-15.86-30.364-15.854-30.361-15.851-30.358-15.845-30.471-15.942-30.58-16.042-30.692-16.139-30.695-16.136-30.698-16.133-30.704-16.13-30.513-15.981-30.346-15.823-30.195-15.663-28.876-14.238-29.067-12.413-30.013-11.13-29.597-10.481-29.206-9.823-28.839-9.153H-28.836C-18.977-6.934-9.296-3.908 0 0" fill="#4c0f1f"/>
<path transform="matrix(1,0,0,-1,605.5305,356.47999)" d="M0 0C-.127-.127-.255-.252-.388-.373-1.783-1.279-3.302-2.617-2.944-4.22-4.239-5.648-5.548-7.076-6.867-8.504-21.126-10.372-35.567-10.393-49.535-8.104-47.301-6.091-45.054-4.017-43.126-1.783-44.796-3.135-46.546-4.414-48.316-5.612-49.362-6.343-50.414-7.061-51.475-7.771-62.202-5.846-72.626-2.538-82.449 2.365-80.112 3.453-78.365 4.966-79.084 7.455-81.245 12.909-87.019 7.851-90.638 6.919-92.079 7.801-93.501 8.726-94.907 9.69-103.445 15.869-111.21 23.055-118.132 31.007-116.446 31.344-114.772 31.741-113.117 32.196-113.469 32.205-113.92 32.083-114.33 32.065-115.833 31.956-117.343 31.883-118.859 31.844-127.682 42.131-135.116 53.671-141.032 65.959-138.133 65.615-136.271 69.324-138.066 71.541-138.679 72.459-139.716 72.841-140.759 72.911-142.047 73.208-143.327 73.539-144.6 73.896-148.942 84.271-152.228 95.077-154.384 106.034-153.383 105.616-152.371 105.222-151.346 104.855-152.425 105.474-153.487 106.119-154.533 106.795-155.627 112.495-156.418 118.235-156.891 123.974-157.428 129.762-157.695 135.498-157.683 141.174-155.142 137.084-149.222 140.512-151.304 144.7-153.317 147.104-155.345 149.509-157.319 151.958-156.467 164.838-154.105 177.345-150.13 189.323-149.393 188.102-148.626 186.904-147.835 185.734-148.511 187.271-149.151 188.835-149.76 190.427-145 204.401-138.033 217.647-128.689 229.921-128.046 226.44-126.794 223.766-124.435 223.626-124.235 223.611-124.041 223.611-123.856 223.623-125.936 220.795-127.928 217.932-129.835 215.052-134.134 208.752-137.645 202.064-140.465 195.108-140.537 195.724-140.598 196.342-140.653 196.961-140.455 199.735-144.218 201.442-146.14 199.392-148.396 196.831-146.074 190.673-145.546 187.501-145.225 186.189-144.861 184.891-144.458 183.605V183.602C-147.744 172.342-149.478 160.584-150.036 148.787-151.51 151.191-152.91 153.638-154.26 156.094-153.12 152.447-151.758 148.814-150.167 145.27-150.336 139.155-150.197 133.036-149.803 126.982-149.293 118.292-147.987 109.691-145.952 101.271-147.236 102.243-147.804 103.809-149.527 104.203-152.328 104.752-153.811 101.05-152.268 99.807-149.82 97.106-146.922 94.853-143.687 92.946-140.665 82.956-136.623 73.272-131.69 64.055-134.343 64.631-136.981 65.289-139.604 66.019-136.663 64.47-133.622 63.088-130.508 61.884-123.453 49.168-114.693 37.386-104.576 26.972-104.412 26.805-104.246 26.641-104.079 26.477-105.322 26.384-106.595 26.963-107.763 26.308-110.109 25.134-109.658 21.557-107.183 20.856-104.288 20.35-101.271 20.714-98.321 21.244-87.155 11.93-74.099 5.582-60.229 1.81-62.478 1.173-64.758 .64-67.072 .203-63.687 .169-60.336 .444-57.027 .985-38.461-3.505-18.719-3.519 0 0" fill="#4c0f1f"/>
<path transform="matrix(1,0,0,-1,524.964,82.678897)" d="M0 0C.961 .567 1.928 1.119 2.905 1.655 .488-2.083-1.592-6.227-3.323-10.639-13.44-17.467-22.669-25.817-30.925-34.967-30.446-30.943-29.855-26.853-28.691-23.018-30.925-27.842-32.544-32.887-33.645-38.053L-33.648-38.056C-35.831-40.582-37.935-43.156-39.966-45.776-40.039-45.245-40.209-44.714-40.485-44.211-41.091-41.44-41.37-38.623-41.504-35.798-41.079-35.312-40.649-34.83-40.215-34.351-29.064-21.445-15.717-9.381-.782-.467-.843-1.74-.837-3.017-.755-4.299-.588-2.85-.331-1.419 0 0" fill="#4c0f1f"/>
<path transform="matrix(1,0,0,-1,651.8154,92.26868)" d="M0 0C-1.325-.321-2.604-.764-3.75-1.489-5.157-2.623-5.297-4.208-4.718-5.497-11.385-1.058-18.504 2.759-25.914 5.915-22.388 6.109-20.487 9.996-23.634 12.37-26.705 13.889-31.598 11.561-35.34 9.517-45.967 13.134-57.036 15.423-68.133 16.272-65.298 18.358-62.366 20.338-59.367 22.166-59.568 22.133-59.801 22.002-60.047 21.902-64.031 20.253-67.705 18.446-71.107 16.463-75.788 16.712-80.463 16.703-85.108 16.424-97.239 14.984-108.627 11.13-119.184 5.551-118.532 6.64-117.85 7.71-117.104 8.738-115.257 10.727-116.219 13.252-118.01 14.31-109.876 18.228-101.341 21.15-92.497 22.757-93.576 21.19-94.034 19.501-92.788 17.764-91.345 15.866-87.979 16.208-87.04 18.425-85.545 20.468-83.753 22.26-81.94 24.022-78.296 24.234-74.606 24.21-70.877 23.934-60.999 23.373-51.118 21.717-41.495 19.052-42.704 17.888-43.875 16.685-45.008 15.447-43.511 16.597-41.986 17.697-40.433 18.752-26.074 14.659-12.31 8.313 0 0" fill="#4c0f1f"/>
<path transform="matrix(1,0,0,-1,542.9279,131.66822)" d="M0 0C-.124-.625-.243-1.249-.352-1.877-1.022-4.066-.446-6.852 1.889-7.565-9.256-12.234-19.149-19.465-27.075-29.167-27.457-27.651-27.802-26.129-28.109-24.604-28.072-26.371-27.984-28.218-27.845-30.122-35.258-39.487-40.876-51.084-44.099-64.837-44.12-64.922-44.138-65.007-44.16-65.092-44.475-63.691-44.687-62.257-44.787-60.792-44.514-57.994-48.638-56.812-49.896-59.358-50.342-64.889-48.813-69.946-46.064-74.418-47.813-84.514-48.586-94.801-48.119-105.013-49.293-103.8-50.384-102.514-51.291-101.08-50.624-103.112-49.314-105.004-48.025-106.789-47.407-117.171-45.494-127.449-42.01-137.339-39.966-143.263-37.183-148.951-33.751-154.22-34.133-154.148-34.512-154.063-34.888-153.975-37.517-152.929-39.7-156.491-37.626-158.395-35.425-160.066-32.308-159.72-29.676-159.899-29.218-160.484-28.748-161.06-28.272-161.63-29.112-161.567-29.888-161.842-30.728-162.058-32.59-162.561-34.485-162.888-36.392-163.107-41.404-156.273-45.381-148.623-48.386-140.458-46.731-140.498-45.075-140.498-43.42-140.44-45.212-140.104-46.997-139.758-48.78-139.382-51.53-131.657-53.422-123.489-54.501-115.124-49.447-117.721-46.035-110.759-51.557-109.2-52.872-109.016-54.038-108.196-55.25-107.672-55.944-98.018-55.602-88.204-54.295-78.602-53.816-78.953-53.337-79.302-52.852-79.645-53.319-79.163-53.78-78.675-54.238-78.18-53.064-69.721-51.139-61.432-48.519-53.564-47.652-50.957-46.664-48.383-45.551-45.854-41.979-51.821-35.274-45.511-39.809-41.867-40.552-40.685-41.185-39.445-41.746-38.172-37.244-30.055-31.498-22.582-24.764-16.202-24.073-18.722-23.242-21.154-22.272-23.47-22.863-20.735-23.336-17.964-23.667-15.178-16.7-8.799-8.72-3.581 0 0" fill="#4c0f1f"/>
<path transform="matrix(1,0,0,-1,579.0984,208.69953)" d="M0 0C-1.364-1.179-2.386-3.089-3.135-5.1-3.869-5.664-4.563-6.261-5.215-6.895-5.218-6.788-5.23-6.679-5.251-6.57-5.748-5.512-6.276-4.46-6.807-3.408-4.736-1.968-2.426-.816 0 0" fill="#4c0f1f"/>
<path transform="matrix(1,0,0,-1,581.1298,245.79468)" d="M0 0C.073 .118 .146 .233 .218 .352-.679-.797-1.631-1.91-2.632-2.989-9.062-.449-14.298 4.139-16.706 11.091-14.953 11.549-13.262 12.179-11.661 13.01-13.422 12.534-15.226 12.258-17.048 12.152-17.367 13.225-17.618 14.353-17.8 15.532-18.416 21.26-16.387 26.271-12.886 30.14-12.349 29.288-11.767 28.5-11.13 27.79-10.648 27.502-10.12 27.417-9.614 27.487-13.456 22.221-14.277 15.548-8.965 9.362-7.146 7.425-5.097 5.876-2.889 4.684-1.995 3.15-.946 1.707 .264 .388 .127 .191 .003-.03-.106-.279-.07-.185-.036-.091 0 0" fill="#4c0f1f"/>
<path transform="matrix(1,0,0,-1,596.3135,209.09967)" d="M0 0C.315-.243 .609-.521 .897-.819 .437-.597-.049-.418-.521-.249-4.372 .955-8.662 .679-12.682-.643-12.767 .176-13.252 .901-14.141 1.24-12.725 1.543-11.288 1.731-9.851 1.798-10.145 1.225-10.427 .643-10.693 .055-10.224 .649-9.742 1.237-9.247 1.819-6.045 1.85-2.881 1.456 0 0" fill="#4c0f1f"/>
<path transform="matrix(1,0,0,-1,604.9666,170.98877)" d="M0 0C-.734-2.398-1.101-4.924-1.016-7.565-6.628-5.084-12.822-3.59-19.077-3.308-26.168-3.005-33.011-4.357-39.321-6.985-38.893-5.503-38.35-4.051-37.72-2.695-38.942-4.22-39.924-5.861-40.697-7.583-57.466-15.153-70.237-31.759-73.554-49.981-73.608-50.248-73.657-50.514-73.705-50.781-75.178-49.485-77.16-47.784-78.972-49.653-81.546-52.896-76.631-55.049-74.476-56.657-75.521-69.961-71.992-83.756-64.561-94.777-65.265-94.762-65.968-94.725-66.671-94.668-65.577-92.84-66.517-90.193-69.721-90.123-71.935-89.941-74.115-89.529-76.252-88.938V-88.935C-80.918-78.177-82.565-66.159-81.328-54.419-81.191-54.441-81.055-54.459-80.918-54.474-81.049-54.407-81.179-54.338-81.309-54.265-80.518-46.879-78.584-39.609-75.546-32.832-72.782-36.412-67.105-33.224-70.237-29.403-71.149-28.779-71.977-28.063-72.741-27.281-67.845-18.616-60.984-11.033-52.237-5.457-51.985-6.373-51.718-7.283-51.436-8.186-51.524-7.161-51.606-6.133-51.676-5.106-48.625-3.205-45.354-1.549-41.858-.173-37.899 1.543-33.684 2.707-29.349 3.35-29.882 1.128-30.273-1.185-28.794-2.88-27.618-3.802-25.968-3.829-24.898-2.701-23.557-.881-24.278 1.756-23.612 3.893-15.626 4.239-7.471 2.895 0 0" fill="#4c0f1f"/>
<path transform="matrix(1,0,0,-1,603.2323,246.37677)" d="M0 0C.164-1.067 .324-2.241 .421-3.371-5.53-4.948-12.015-5.315-18.025-4.269-17.606-3.772-17.203-3.262-16.815-2.741-14.483 .652-19.104 3.729-21.451 1.431-21.966 2.328-22.433 3.265-22.851 4.236-16.051 1.367-8.062 1.534-.731 3.966-1.458 3.144-1.595 1.859-1.013 .894-.685 .491-.346 .197 0 0" fill="#4c0f1f"/>
<path transform="matrix(1,0,0,-1,622.691,231.88129)" d="M0 0C.691-1.316 1.34-2.653 1.937-4.011-1.073-7.807-4.699-11.082-8.805-13.565-11.655-15.317-14.899-16.7-18.34-17.673-18.652-16.606-18.992-15.545-19.419-14.52-16.481-16.157-13.043-11.136-12.164-8.517-11.885-7.798-11.652-7.076-11.461-6.346-7.377-3.696-3.866-.27-1.398 3.738-1.389 2.498-.782 1.079 0 0" fill="#4c0f1f"/>
<path transform="matrix(1,0,0,-1,632.3718,197.07532)" d="M0 0C1.883-5.582 2.304-11.512 1.504-17.318 .722-17.227-.064-17.179-.849-17.182-.076-17.367 .682-17.591 1.425-17.852 .594-23.343-1.328-28.706-4.142-33.536-5.426-31.209-6.246-27.009-9.799-28.751-9.584-28.312-9.381-27.866-9.19-27.414-1.695-12.688-5.776 .591-15.263 9.796-12.718 9.729-11.22 12.763-13.38 14.42-15.673 15.305-17.602 14.579-20.001 13.738-22.582 15.587-25.407 17.191-28.397 18.513-28.018 20.966-27.19 23.312-26.011 25.529-18.31 22.312-11.415 17.421-6.312 11.015-8.189 10.354-11.236 9.162-10.224 6.652-9.557 5.203-7.689 4.83-6.534 5.87-5.597 6.388-4.602 6.807-3.596 7.192-2.18 4.945-.973 2.55 0 0" fill="#4c0f1f"/>
<path transform="matrix(1,0,0,-1,555.6437,127.82977)" d="M0 0C-.24-.173-.464-.397-.67-.673-2.316-3.15-3.247-5.997-3.929-8.886-4.799-9.159-5.661-9.444-6.519-9.748-6.179-9.19-5.991-8.538-6.006-7.837-5.673-5.564-5.224-3.308-4.69-1.073-4.308-.967-3.923-.861-3.538-.761-2.368-.488-1.188-.233 0 0" fill="#4c0f1f"/>
<path transform="matrix(1,0,0,-1,663.4912,208.30542)" d="M0 0C1.067-.34 2.131-.713 3.186-1.125 2.729-13.377-.146-25.604-5.172-36.81-6.212-35.764-7.307-34.779-8.52-33.942-7.856-34.667-7.143-35.537-6.567-36.398-6.249-36.865-5.933-37.335-5.627-37.808-9.12-45.369-13.601-52.446-18.983-58.731-19.41-56.435-19.53-52.938-22.736-53.301-27.335-54.515-23.648-60.523-23.604-63.706-24.501-64.601-25.422-65.474-26.362-66.326-33.651-72.89-42.383-78.032-51.776-81.482-51.909-79.427-52.179-77.371-52.74-75.397-52.737-76.234-52.682-77.222-52.734-78.117-52.807-79.405-52.928-80.685-53.098-81.955-62.891-85.366-73.354-86.955-83.626-86.418-82.428-84.784-81.525-83.204-81.57-82.098-82.11-79.226-85.751-79.354-86.83-81.8-87.713-83.18-88.628-84.538-89.577-85.869H-89.58C-95.759-85.036-101.805-83.398-107.523-80.888-110.722-79.232-113.678-77.35-116.397-75.273-115.357-74.697-114.333-74.087-113.329-73.442-114.575-73.896-115.84-74.321-117.119-74.715-122.898-70.158-127.567-64.71-131.157-58.691-130.929-58.734-130.699-58.77-130.468-58.807-128.519-59.322-127.048-59.013-126.09-58.318-124.744-58.701-123.353-58.94-121.943-59.092-117.295-65.483-111.277-70.834-104.03-74.457-92.588-79.311-79.651-80.266-67.226-78.074-67.997-80.042-69.599-82.6-67.087-84.053-62.971-85.876-62.348-79.329-61.235-76.765-51.997-74.348-43.238-70.2-35.831-64.649-35.034-64.04-34.251-63.415-33.484-62.772-33.627-63.958-33.806-65.14-34.015-66.32-33.43-64.87-32.914-63.397-32.463-61.905-19.683-50.884-11.057-35.952-6.943-20.032-6.746-20.241-6.555-20.456-6.367-20.674-5.136-22.303-2.465-21.108-2.802-19.119-3.629-17.74-4.687-16.557-5.903-15.523-3.535-3.851-3.559 8.201-6.112 19.513-5.573 19.383-5.033 19.243-4.499 19.098-4.102 19.001-3.656 18.786-3.281 18.725-4.26 19.28-5.266 19.804-6.294 20.289-9.569 34.127-16.66 46.815-27.821 56.296-27.475 56.354-27.132 56.408-26.79 56.454-24.746 56.102-22.927 58.434-23.855 60.335-25.58 63.545-30.464 61.463-33.493 60.592-37.999 63.627-43.038 66.201-48.626 68.215-53.495 70.067-58.37 71.559-63.221 72.69-62.139 73.745-61.047 74.779-59.965 75.773-61.499 74.891-63.021 73.96-64.516 72.981-78.669 76.107-92.573 76.179-105.361 73.305-104.925 74.384-104.424 75.433-103.852 76.443-102.466 78.399-103.833 80.445-105.586 80.897-96.975 82.407-87.998 82.895-79.054 82.325-79.451 80.521-79.766 78.699-79.99 76.871-79.439 78.662-78.79 80.46-78.053 82.258-65.783 81.37-53.604 78.49-42.553 73.526-43.69 72.514-44.223 70.946-43.405 69.446-41.312 66.039-38.074 68.58-35.622 70.052-24.043 63.612-14.095 54.629-7.158 42.983-7.668 42.804-8.165 42.613-8.653 42.416-8.107 42.534-7.559 42.641-7.007 42.732-5.761 40.618-4.612 38.42-3.572 36.131 .691 26.314 2.892 15.729 3.208 5.039 .418 6.067-2.271 6.273-2.838 2.992-2.898 1.325-1.577 .164 0 0" fill="#4c0f1f"/>
<path transform="matrix(1,0,0,-1,698.7855,210.78241)" d="M0 0C1.737-1.925 3.411-3.938 5.012-6.034 3.041-20.617-1.067-34.918-7.258-48.162-8.441-45.145-9.769-42.183-11.242-39.296-10.269-42.595-9.299-46.057-8.608-49.481-8.541-49.841-8.474-50.202-8.41-50.563-14.844-63.661-23.349-75.658-33.869-85.784-34.051-83.41-34.115-80.633-36.834-80.242-38.908-79.966-40.664-82.137-39.933-84.077-39.6-86.216-39.333-88.338-39.054-90.49-41.761-92.797-44.59-94.989-47.534-97.054-57.779-104.312-69.242-109.376-81.273-112.553-81.288-112.441-81.306-112.329-81.324-112.216-81.57-110.734-81.819-109.236-82.231-107.79-82.164-109.397-82.167-111.149-82.258-112.811-88.662-114.445-95.223-115.549-101.841-116.17-100.477-111.929-106.955-109.945-108.293-114.218-109.009-115.069-109.742-115.9-110.497-116.713H-110.5C-121.406-117.061-132.348-116.167-142.905-114.239-147.999-113.341-152.786-112.05-157.27-110.406-155.288-109.018-153.359-107.544-151.498-105.992-153.99-107.284-156.528-108.533-159.108-109.706H-159.111C-170.868-105.064-180.489-97.957-188.129-89.159-184.482-88.646-181.668-87.582-181.568-85.581-181.565-85.53-181.562-85.481-181.562-85.43-173.57-94.043-163.577-100.738-152.265-104.303-150.437-104.846-148.59-105.346-146.732-105.804-148.099-106.844-149.494-107.854-150.909-108.833-148.972-108.023-147.059-107.135-145.176-106.174H-145.173C-130.277-109.645-114.551-110.425-99.255-108.493-99.962-109.679-100.871-110.631-101.741-111.695-102.375-112.88-101.95-114.572-100.686-115.169-97.788-116.579-95.017-111.992-93.025-107.55-85.111-106.159-77.365-104.024-69.961-101.147-66.305-99.592-62.787-97.839-59.413-95.911-59.889-97.233-60.453-98.53-61.12-99.795-59.922-98.309-58.885-96.733-57.994-95.086-45.964-87.955-35.755-78.538-27.448-67.599-27.251-68.442-27.066-69.288-26.89-70.134-26.144-71.328-24.561-71.735-23.37-71.01-21.411-69.837-22.239-65.901-23.552-62.148-15.575-50.311-9.657-36.968-5.882-22.97-5.13-24.904-4.554-26.92-4.184-29.009-4.075-26.02-4.439-23.109-5.191-20.314-3.311-12.761-2.05-5.033-1.419 2.735-1.373 1.725-.925 .716 0 0" fill="#4c0f1f"/>
<path transform="matrix(1,0,0,-1,702.2175,167.46283)" d="M0 0C2.641-12.846 3.49-26.168 2.592-39.399 1.261-37.965-.133-36.886-1.449-36.831-3.277-36.853-4.469-38.132-4.778-39.63-3.972-28.818-4.39-17.931-6.07-7.328-5.806-7.583-5.548-7.846-5.294-8.116-2.565-12.319 3.18-7.189-2.544-3.089-4.026-1.71-5.712-.524-7.546 .479-8.589 5.209-9.89 9.863-11.458 14.408-14.447 23.34-18.652 31.626-23.837 39.199-23.64 39.148-23.44 39.093-23.242 39.039-22.293 38.833-21.269 38.499-20.365 38.299-21.769 39.069-23.2 39.757-24.652 40.37-32.056 50.881-41.358 59.98-51.9 67.481-51.345 67.481-50.766 67.629-50.184 67.969-47.764 68.609-45.315 69.185-42.838 69.691-33.727 62.56-25.616 54.265-18.916 44.933-20.235 45.045-21.742 44.402-22.291 43.098-24.123 37.868-16.797 37.711-13.307 36.307-7.674 26.699-3.478 16.163-1.082 4.821-.761 3.505-.461 2.183-.179 .855-1.398 1.207-2.62 1.528-3.841 1.819-2.55 1.237-1.27 .631 0 0" fill="#4c0f1f"/>
<path transform="matrix(1,0,0,-1,605.3122,410.55989)" d="M0 0C-.761-.758-1.534-1.504-1.871-1.983-4-2.964-4.576-6.104-2.853-7.743-16.745-8.841-30.804-8.665-44.714-7.316-56.521-7.177-67.593-3.926-78.053 .949-89.089 6.088-99.337 12.964-109.218 19.992-156.076 53.292-194.25 103.588-199.121 162.307-203.295 212.941-190.733 266.529-161.995 308.662-164.256 305.354-164.374 298.378-164.523 295.473-164.498 294.13-164.447 292.778-164.368 291.419-165.096 290.192-165.802 288.97-166.484 287.751-171.472 277.925-175.871 267.64-179.57 257.056-179.922 262.435-180.158 267.822-180.285 273.21-181.245 265.432-182.252 257.488-182.035 249.631-186.24 236.266-189.324 222.483-191.076 208.582-192.212 213.01-198.724 211.04-197.667 206.942-196.185 202.989-194.4 199.119-192.331 195.39-193.22 181.589-192.741 167.764-190.7 154.196-193.18 156.588-195.603 159.093-197.764 161.67-195.533 157.862-192.98 154.22-190.151 150.782-187.805 137.02-183.821 123.559-177.99 110.691-180.464 111.659-183.718 109.406-182.775 106.644-179.464 100.234-174.037 95.398-167.755 91.845-160.411 80.003-151.889 68.903-142.42 58.652-146.898 60.495-151.082 63.182-155.248 66.771-155.573 66.996-155.87 67.329-156.194 67.505-150.952 60.999-144.815 56.439-137.709 53.701-129.841 45.672-121.382 38.205-112.453 31.362-116.84 31.68-119.281 24.058-107.902 21.857-104.752 21.399-101.62 21.275-98.521 21.438-87.799 14.683-76.963 7.486-64.837 3.593-67.341 2.898-69.879 2.31-72.438 1.837-69.07 1.959-65.689 2.31-62.327 2.859-42.356-2.641-20.535-.652 0 0" fill="#4c0f1f"/>
<path transform="matrix(1,0,0,-1,693.5585,318.09333)" d="M0 0C.761-.024 1.407 .146 1.956 .464-2.504-4.09-7.201-8.398-12.131-12.413-11.894-11.045-11.715-9.675-11.615-8.298-11.973-6.564-13.486-5.466-15.123-5.415-10.599-1.48-6.243 2.674-2.071 7.022-2.974 4.011-3.875 .737 0 0" fill="#4c0f1f"/>
<path transform="matrix(1,0,0,-1,743.5665,211.24933)" d="M0 0C1.367-.525 2.811 .049 3.659 1.11 3.174-7.304 2.004-15.623 .091-23.764-1.643-21.681-5.464-22.306-6.225-25.116-6.649-29.61-4.756-34.146-4.317-38.636-10.186-54.317-18.74-68.864-28.357-82.701-28.897-79.442-29.546-76.198-30.401-73.008-30.189-75.343-29.967-77.826-29.879-80.218-29.822-81.688-29.776-83.159-29.74-84.629-34.903-91.736-40.512-98.515-46.564-104.84-44.82-101.966-44.824-96.739-44.369-94.128-44.338-93.167-44.317-92.203-44.308-91.236-35.291-80.682-27.354-69.17-20.911-61.726-20.329-59.421-19.897-57.092-19.614-54.747-9.667-36.283-3.489-15.758-3.457 5.248-2.32 3.46-2.35 .71 0 0" fill="#4c0f1f"/>
<path transform="matrix(1,0,0,-1,766.2845,183.74402)" d="M0 0C13.222-56.254 .082-116.883-32.108-164.483-39.23-174.776-54.201-189.56-63.133-197.473-61.381-193.526-53.122-182.444-52.036-177.314-50.263-175.456-48.538-173.546-46.864-171.59-36.449-158.871-27.796-144.737-20.959-129.735-20.887-135.219-20.944-140.71-21.141-146.207-19.704-138.491-18.649-130.693-17.976-122.855-8.875-100.739-3.54-76.992-2.295-53.267-1.386-57.7-.531-62.133 .282-66.544-.052-55.059-.946-43.514-2.656-32.093-6.409 21.348-31.329 72.814-69.843 109.918-49.192 88.164-33.366 59.528-25.125 29.052-28.403 29.737-30.995 25.45-28.488 22.839-25.468 18.728-23.036 14.235-20.944 9.547-19.265-1.067-18.537-11.77-18.877-22.363-20.599-17.609-23.5-13.252-26.484-9.132V-9.129C-27.375 4.551-29.973 18.188-33.642 31.368-32.441 30.298-31.286 29.17-30.176 27.987-31.418 29.902-32.78 31.72-34.233 33.457-38.897 50.167-46.297 66.052-55.844 80.591-53.619 79.211-51.494 77.665-49.487 75.967-52.076 79.129-55.071 81.925-58.367 84.311-69.107 99.723-82.378 113.311-97.679 123.92-95.668 123.693-93.851 122.027-91.815 123.219-89.959 124.223-89.453 126.745-90.702 128.422-94.921 132.172-104.354 131.429-109.827 131.466-121.133 137.718-133.352 142.39-146.316 145.109-148.102 145.51-149.894 145.895-151.695 146.259-150.349 147.071-149.011 147.887-147.68 148.714-149.474 148.074-151.379 147.264-153.217 146.565-169.325 149.742-185.94 151.446-202.37 150.661-200.026 152.747-201.46 158.244-206.457 156.461-211.005 154.611-215.122 152.068-218.806 149.002-222.735 148.381-226.643 147.596-230.515 146.631-242.639 142.811-254.694 136.484-266.14 128.516-264.108 131.533-261.95 134.486-259.651 137.302-263.952 133.392-268.193 129.029-271.749 124.447-289.485 111.052-305.488 93.934-317.645 76.522-316.56 79.014-315.37 81.83-318.473 83.395-320.526 84.065-321.957 83.319-322.966 81.846-304.775 107.805-280.311 129.447-253.011 145.352-210.447 168.203-140.631 158.626-100.18 134.41-46 111.518-12.617 55.52 0 0" fill="#4c0f1f"/>
<path transform="matrix(1,0,0,-1,514.7315,394.16053)" d="M0 0C1.694-2.427-.925-5.339-1.704-7.737-3.754-12.277-5.932-16.76-8.204-21.193-17.629-39.582-28.744-57.162-39.576-74.694-29.528-50.808-18.066-27.625-7.871-3.82-7.471-2.935-7.068-2.049-6.664-1.164-5.615 1.984-1.717 2.385 0 0" fill="#4c0f1f"/>
<path transform="matrix(1,0,0,-1,475.27,508.6414)" d="M0 0C11.641 29.537 24.226 58.714 38.165 87.243 41.012 93.125 43.85 99.016 46.706 104.894 47.582 106.686 49.993 107.268 51.675 106.344 53.778 105.224 54.022 102.548 52.788 100.674 47.202 89.181 41.75 77.617 36.01 66.198 24.706 43.784 12.609 21.643 0 0" fill="#4c0f1f"/>
<path transform="matrix(1,0,0,-1,517.8117,404.72053)" d="M0 0C.967-.549 1.937-1.085 2.914-1.61-3.973-15.857-10.933-30.069-17.471-44.48-66.935-139.047-112.396-235.689-160.3-331.058-197.536-408.508-238.943-484.086-271.782-563.565-272.064-559.781-275.375-556.842-278.928-556.001-281.242-554.873-284.131-554.657-286.402-556.001-285.847-555.058-285.292-554.115-284.737-553.169-284.737-553.178-284.734-553.184-284.725-553.19-284.667-553.218-284.607-553.242-284.546-553.269-284.598-553.218-284.652-553.163-284.701-553.111-259.696-511.286-238.659-467.316-216.917-423.756-196.813-383.42-176.71-343.084-156.612-302.744-113.852-215.7-69.018-129.641-27.584-41.961-26.171-38.826-24.774-35.688-23.388-32.544-21.344-29.06-19.341-25.558-17.379-22.03-12.869-13.91-8.609-5.644-4.784 2.823-3.207 1.854-1.609 .916 0 0" fill="#f5dfa2"/>
<path transform="matrix(1,0,0,-1,243.6952,967.6006)" d="M0 0C.258-1.908-1.142-3.737-3.032-4.084-7.155-4.906-12.477-1.811-12.558 2.668-12.451 5.492-9.335 6.798-6.849 6.646-5.222 6.458-3.833 5.173-2.356 4.508-1.157 3.332-.163 1.759 0 0" fill="#f5dfa2"/>
<path transform="matrix(1,0,0,-1,766.5665,250.28803)" d="M0 0C-4.715 26.006-11.045 51.673-21.226 76.091-23.318 80.779-25.75 85.272-28.77 89.383-31.277 91.994-28.685 96.281-25.407 95.596-33.648 126.072-49.474 154.708-70.125 176.462-31.611 139.358-6.691 87.891-2.938 34.451-1.228 23.03-.333 11.485 0 0" fill="#f5dfa2"/>
<path transform="matrix(1,0,0,-1,744.749,239.21863)" d="M0 0C5.771-29.842 5.96-60.844 .394-90.732 .591-85.236 .649-79.745 .576-74.26-6.261-89.262-14.914-103.397-25.328-116.115-27.002-118.071-28.727-119.981-30.501-121.84-31.865-127.727-36.059-133.242-43.687-140.386-45.254-137.427-41.667-134.662-40.809-131.669-31.881-103.725-29.342-74.139-31.583-45.039-30.728-48.228-30.079-51.472-29.54-54.732-19.923-40.894-11.369-26.348-5.5-10.666-5.939-6.177-7.831-1.641-7.407 2.853-6.646 5.664-2.826 6.288-1.092 4.205-.033 3.031-.308 1.417 0 0" fill="#f5dfa2"/>
<path transform="matrix(1,0,0,-1,526.4467,349.02473)" d="M0 0C1.342-5.251-7.449-6.109-10.324-7.628-21.369-11.191-33.166-11.967-44.675-10.854-57.888-9.977-68.822-4.617-77.329 5.97-77.004 5.794-76.707 5.461-76.383 5.236-72.217 1.646-68.033-1.04-63.555-2.883-73.023 7.368-81.546 18.467-88.889 30.31-95.171 33.863-100.598 38.699-103.815 44.754-104.852 47.871-101.599 50.123-99.125 49.156-98.379 48.868-97.703 48.283-97.236 47.342-83.475 27.818-56.483 23.075-34.033 24.74-35.689 24.286-37.362 23.888-39.048 23.552-32.126 15.599-24.361 8.414-15.824 2.235-14.417 1.27-12.995 .346-11.555-.537-7.935 .395-2.161 5.454 0 0" fill="#f5dfa2"/>
<path transform="matrix(1,0,0,-1,467.4641,284.9395)" d="M0 0C1.796-2.216-.067-5.925-2.965-5.582-21.978-1.276-39.812 9.963-52.303 25.162-55.132 28.6-57.685 32.241-59.916 36.049-57.755 33.472-55.332 30.968-52.852 28.576-54.892 42.143-55.371 55.969-54.483 69.77-56.552 73.499-58.337 77.368-59.819 81.321-60.762 84.923-55.447 87.34-53.51 83.735-45.857 63.375-32.359 44.292-13.28 33.314-14.304 33.681-15.317 34.075-16.318 34.494-14.162 23.537-10.875 12.731-6.534 2.356-5.26 1.998-3.981 1.668-2.692 1.37-1.649 1.301-.612 .919 0 0" fill="#f5dfa2"/>
<path transform="matrix(1,0,0,-1,455.7701,166.05292)" d="M0 0C.609-1.592 1.249-3.156 1.925-4.693 1.134-3.523 .367-2.325-.37-1.104-4.345-13.083-6.707-25.589-7.559-38.469-5.585-40.918-3.556-43.323-1.543-45.727 .227-48.932-3.635-52.573-6.731-50.536-20.65-35.439-31.313-15.643-32.493 5.124-32.71 12.981-31.703 20.925-30.743 28.703-30.616 23.315-30.38 17.928-30.028 12.549-26.329 23.133-21.93 33.418-16.942 43.244-16.26 44.463-15.554 45.685-14.826 46.913-14.987 50.806-15.745 68.028-7.959 65.704-5.2 64.291-5.727 61.732-6.941 59.416-10.929 41.029-6.398 17.694 0 0" fill="#f5dfa2"/>
<path transform="matrix(1,0,0,-1,675.5824,55.322084)" d="M0 0C1.249-1.677 .743-4.199-1.113-5.203-3.059-6.352-4.806-4.854-6.71-4.548-29.147-.506-51.132-7.939-68.776-21.499-67.642-20.262-66.471-19.059-65.262-17.894-74.885-15.229-84.766-13.574-94.644-13.013-98.373-12.737-102.063-12.713-105.707-12.925-107.52-14.687-109.312-16.478-110.807-18.522-111.747-20.738-115.112-21.081-116.555-19.183-119.277-15.224-113.732-11.756-111.683-9.302-96.416 5.331-76.349 12.698-56.987 20.311-58.233 19.466-59.668 18.66-60.993 17.837-59.192 17.473-57.4 17.088-55.614 16.687-42.65 13.968-30.431 9.296-19.125 3.044-13.657 3.008-4.217 3.749 0 0" fill="#f5dfa2"/>
<path transform="matrix(1,0,0,-1,691.5271,258.94398)" d="M0 0C5.765-14.689 8.166-30.703 7.671-46.434 7.019-49.588 7.503-56.305 3.99-58.682 3.442-59.005 2.793-59.173 2.031-59.149-1.843-58.412-.943-55.138-.039-52.127-4.211-56.475-8.568-60.629-13.092-64.564-11.454-64.616-9.942-65.713-9.584-67.448-9.684-68.824-9.863-70.194-10.099-71.562-11.076-77.231-13.04-82.825-14.58-88.337-21.914-110.656-31.621-132.797-47.128-150.655-45.594-148.19-44.132-145.686-42.738-143.139-53.446-146.732-64.507-149.263-75.664-150.667-78.694-154.203-82.267-159.269-86.721-160.077-90.217-159.954-91.281-155.535-88.534-153.857-69.461-135.904-56.539-111.852-49.611-86.694-49.617-86.739-49.62-86.788-49.626-86.833-49.914-89.617-50.302-92.391-50.781-95.153-46.846-93.625-42.986-91.969-39.218-90.208-32.232-86.836-25.583-82.904-19.277-78.493-18.898-76.992-18.525-75.491-18.158-73.993-17.424-72.223-17.439-69.731-16.827-67.726-22.027-71.807-27.508-75.47-33.208-78.735-34.285-80.845-35.485-82.825-36.81-84.626-30.342-69.862-30.227-51.189-32.675-35.916-33.405-33.975-31.65-31.805-29.576-32.081-26.857-32.472-26.793-35.249-26.611-37.623-16.09-27.496-7.586-15.499-1.152-2.401-1.216-2.04-1.282-1.68-1.349-1.319-2.04 2.104-3.011 5.567-3.984 8.865-2.51 5.979-1.182 3.017 0 0" fill="#f5dfa2"/>
<path transform="matrix(1,0,0,-1,617.5125,323.3354)" d="M0 0C1.772-11.339 .606-23.789-5.67-33.593-4.724-34.876-4.533-36.701-5.852-38.126-6.003-38.287-6.17-38.444-6.361-38.593-6.355-38.596-6.352-38.599-6.349-38.602-6.237-38.505-6.127-38.405-6.015-38.308-26.73-61.862-51.442-84.905-84.638-85.387-82.079-84.914-79.542-84.326-77.037-83.632-86.194-80.751-94.956-75.686-103.006-70.534-103.555-69.89-104.343-69.48-105.173-69.349-107.038-68.19-108.887-67.002-110.722-65.786-113.82-65.95-116.952-65.826-120.102-65.368-131.481-63.167-129.04-55.544-124.653-55.863-123.874-55.917-123.034-56.223-122.2-56.857-115.882-60.468-107.884-58.898-101.026-57.879-84.063-54.271-68.796-45.322-55.108-34.927-57.036-37.162-59.283-39.236-61.517-41.249-47.549-43.538-33.108-43.517-18.849-41.649-17.53-40.221-16.221-38.793-14.926-37.365-15.284-35.761-13.765-34.424-12.37-33.518-12.237-33.396-12.109-33.272-11.982-33.145-30.701-36.664-50.444-36.65-69.009-32.159-72.318-32.701-75.669-32.975-79.053-32.942-59.894-29.355-42.818-17.784-29.227-4.16-28.469-3.353-27.737-2.515-27.02-1.665-25.684 2.606-19.202 .625-20.568-3.617-13.95-2.996-7.389-1.892-.985-.258-.894 1.404-.891 3.156-.958 4.763-.518 3.207-.254 1.596 0 0" fill="#f5dfa2"/>
<path transform="matrix(1,0,0,-1,547.2878,316.77473)" d="M0 0C-12.67-10.584-32.172-19.805-48.941-18.849-51.415-18.149-51.867-14.571-49.52-13.398-48.353-12.743-47.079-13.322-45.836-13.228-46.003-13.064-46.17-12.9-46.333-12.734-56.451-2.319-65.21 9.463-72.265 22.179-75.379 23.382-78.42 24.765-81.361 26.314-66.417 22.389-50.387 19.669-35.088 23.049-32.679 23.98-30.055 23.412-30.07 20.411-30.17 18.41-32.984 17.346-36.631 16.833-28.991 8.035-19.371 .928-7.613-3.714H-7.61C-5.03-2.54-2.492-1.291 0 0" fill="#f5dfa2"/>
<path transform="matrix(1,0,0,-1,499.508,272.1089)" d="M0 0C-15.325-.35-34.036 3.106-45.305 14.635-47.958 15.887-46.634 20.442-43.504 19.832-41.785 19.44-41.211 17.87-39.93 16.9-41.964 25.32-43.271 33.921-43.78 42.611-44.174 48.665-44.314 54.784-44.144 60.899-45.736 64.443-47.097 68.076-48.237 71.723-39.763 55.934-28.011 41.102-11.83 32.769-10.618 32.244-9.452 31.425-8.137 31.241-2.616 29.683-6.027 22.719-11.081 25.317-10.002 16.952-8.11 8.784-5.36 1.059-3.577 .683-1.792 .337 0 0M-11.385 29.625C-11.209 29.925-10.99 30.195-10.736 30.425-10.993 30.228-11.181 29.949-11.363 29.683-11.369 29.661-11.379 29.643-11.385 29.625" fill="#f5dfa2"/>
<path transform="matrix(1,0,0,-1,559.8277,27.283082)" d="M0 0C5.744 2.066 6.849-5.609 2.668-6.494-12.516-12.452-23.221-26.508-29.458-40.958-32.242-46.936-34.859-53.117-35.619-59.695-35.701-58.412-35.707-57.136-35.646-55.863-50.581-64.776-63.927-76.84-75.079-89.747-75.512-90.226-75.943-90.708-76.367-91.193-76.234-94.019-75.955-96.836-75.349-99.607-75.073-100.11-74.903-100.641-74.83-101.171-72.799-98.552-70.695-95.978-68.512-93.452L-68.509-93.449C-67.408-88.283-65.789-83.238-63.555-78.414-68.415-96.464-66.15-115.848-61.666-133.764-60.361-138.042-59.109-142.431-56.708-146.252-52.173-149.9-58.88-156.204-62.451-150.239-63.564-152.768-64.552-155.342-65.419-157.95-68.039-165.817-69.964-174.106-71.137-182.565-70.679-183.06-70.219-183.548-69.752-184.03-84.135-173.854-95.629-158.932-99.843-141.696-100.371-138.524-102.693-132.366-100.438-129.804-98.515-127.755-94.753-129.462-94.95-132.236-94.895-132.855-94.835-133.473-94.762-134.089-91.942-127.133-88.431-120.445-84.132-114.145-82.225-111.264-80.233-108.402-78.153-105.574-80.987-105.781-82.268-103.015-82.986-99.276-86.379-68.625-76.121-39.189-53.195-19.159-55.493-21.975-57.651-24.928-59.683-27.945-48.237-19.977-36.183-13.65-24.058-9.829-20.186-8.865-16.278-8.08-12.349-7.458-8.665-4.393-4.548-1.849 0 0M2.614-6.506C1.962-6.628 1.182-6.576 .276-6.291 1.004-6.643 1.837-6.713 2.614-6.506" fill="#f5dfa2"/>
<path transform="matrix(1,0,0,-1,591.7687,70.36627)" d="M0 0C.246 .1 .479 .23 .679 .264-3.389-2.217-7.329-4.969-11.085-7.907-28.869-21.594-38.177-43.723-42.131-65.301-42.046-67.74-44.62-69.653-46.952-68.866-50.199-67.818-49.502-63.935-48.841-61.302-57.561-64.883-65.54-70.1-72.508-76.48-72.177-79.266-71.704-82.037-71.113-84.772-80.531-60.836-77.066-29.576-62.093-8.025-58.799-5.049-53.951-9.775-57.057-13.164-57.803-14.192-58.485-15.263-59.137-16.351-48.58-10.772-37.192-6.919-25.062-5.479-20.417-5.2-15.742-5.191-11.06-5.439-7.659-3.456-3.984-1.649 0 0" fill="#f5dfa2"/>
<path transform="matrix(1,0,0,-1,736.108,155.75659)" d="M0 0C-8.05 8.589-18.666 14.23-29.421 18.752-35.727 21.23-42.239 23.13-48.732 25.056-52.1 26.205-57.903 26.735-56.181 31.392-55.632 32.696-54.125 33.339-52.806 33.227-59.507 42.559-67.617 50.854-76.728 57.985-79.205 57.479-81.655 56.903-84.074 56.263-84.656 55.923-85.236 55.775-85.79 55.775-75.249 48.274-65.947 39.175-58.543 28.664-57.091 28.051-55.659 27.363-54.256 26.593-73.067 32.732-93.207 26.97-109.488 16.754-111.662 15.305-114.305 14.086-116.021 16.897-116.84 18.398-116.306 19.965-115.169 20.978-126.221 25.941-138.4 28.821-150.67 29.709-151.407 27.912-152.055 26.114-152.607 24.322-150.032 44.343-137.343 63.356-119.632 73.005-115.891 75.048-110.998 77.377-107.926 75.858-104.779 73.484-106.68 69.597-110.206 69.403-102.796 66.247-95.677 62.43-89.01 57.991-91.018 63.533-82.385 63.637-78.905 64.521-57.205 68.328-34.059 66.161-19.31 47.979-21.317 49.678-23.443 51.224-25.668 52.603-16.121 38.064-8.72 22.18-4.057 5.47-2.603 3.732-1.242 1.915 0 0" fill="#f5dfa2"/>
<path transform="matrix(1,0,0,-1,745.7372,207.97058)" d="M0 0C.186-2.262 .036-4.126-2.171-3.279-4.521-2.569-4.49 .181-5.627 1.969-5.66-19.038-11.838-39.561-21.784-58.026-21.784-58.026-21.784-58.029-21.784-58.029-22.069-60.372-22.5-62.701-23.082-65.005-21.733-42.344-31.915-19.578-46.952-2.812-47.877-2.096-48.325-1.087-48.371-.077-49.001-7.845-50.263-15.573-52.142-23.126-51.391-25.921-51.027-28.832-51.136-31.821-53.901-16.347-67.711-4.96-82.246-.335-83.823-.171-85.145 .99-85.084 2.658-84.517 5.938-81.828 5.732-79.038 4.704-79.354 15.395-81.555 25.979-85.818 35.796-86.858 38.085-88.007 40.283-89.253 42.397-89.805 42.306-90.353 42.2-90.899 42.082-77.506 47.226-57.608 47.629-46.063 37.418-40.339 33.319-46.085 28.189-48.813 32.391-49.068 32.661-49.326 32.925-49.59 33.18-47.91 22.577-47.491 11.69-48.298 .878-47.989 2.376-46.797 3.655-44.969 3.676-43.653 3.622-42.258 2.542-40.927 1.108-40.03 14.34-40.879 27.662-43.52 40.508-44.79 41.138-46.07 41.745-47.361 42.327-31.604 38.848-17.446 29.742-7.425 17.132-3.572 11.889-1.849 6.271 0 0M-48.85 32.464C-48.965 32.713-49.053 32.977-49.104 33.256-49.068 32.98-48.986 32.71-48.85 32.464" fill="#f5dfa2"/>
<path transform="matrix(1,0,0,-1,675.2337,272.93019)" d="M0 0C1.313-3.753 2.141-7.689 .182-8.862-1.01-9.587-2.592-9.181-3.338-7.986-3.514-7.14-3.699-6.294-3.896-5.451-12.203-16.39-22.412-25.807-34.442-32.938-35.334-34.585-36.371-36.161-37.568-37.647-31.486-25.447-33.347-10.938-35.555 2.056-35.737 5.006-38.814 10.239-34.479 11.324-31.272 11.685-31.153 8.191-30.725 5.894-25.344 12.179-20.862 19.256-17.37 26.817-17.676 27.29-17.991 27.76-18.31 28.227-18.886 29.088-19.598 29.958-20.262 30.683-10.271 22.547-4.7 12.142 0 0" fill="#f5dfa2"/>
<path transform="matrix(1,0,0,-1,611.7914,291.33979)" d="M0 0C.197-9.874-1.993-17.652-6.031-26.993-8.023-31.435-10.794-36.022-13.692-34.612-14.956-34.015-15.381-32.323-14.747-31.138-13.877-30.073-12.968-29.121-12.261-27.936-27.557-29.867-43.283-29.088-58.179-25.616H-58.182C-60.065-26.578-61.978-27.466-63.915-28.275-52.529-20.416-42.583-10.435-35.131 1.234-34.051 3.681-30.41 3.808-29.87 .937-29.825-.17-30.728-1.749-31.926-3.384-21.654-3.92-11.191-2.331-1.398 1.079-1.228 2.35-1.107 3.629-1.034 4.918-.982 5.812-1.037 6.801-1.04 7.637-.339 5.167-.09 2.568 0 0M-11.694-29.922C-12.103-29.782-12.601-29.734-13.022-29.858-12.849-29.822-12.673-29.807-12.495-29.807-12.231-29.807-11.961-29.843-11.694-29.922" fill="#f5dfa2"/>
<path transform="matrix(1,0,0,-1,534.7297,200.39221)" d="M0 0C3.02-3.641-2.183-6.943-5.112-3.647-5.178-3.575-5.245-3.502-5.309-3.429-8.347-10.205-10.281-17.476-11.072-24.862-10.942-24.934-10.812-25.004-10.682-25.071-25.448-21.068-42.924-7.752-41.698 9.366-40.439 11.912-36.316 10.73-36.589 7.931-36.489 6.467-36.277 5.033-35.961 3.632-35.94 3.717-35.922 3.802-35.901 3.887-32.678 17.64-27.06 29.237-19.647 38.602-19.786 40.506-19.874 42.353-19.911 44.12-17.82 33.612-8.734 5.647 0 0" fill="#f5dfa2"/>
<path transform="matrix(1,0,0,-1,603.5268,132.5326)" d="M0 0C-10.609-9.421-20.539-20.863-22.309-35.461-22.885-37.319-22.17-39.599-23.458-41.158-24.528-42.286-26.178-42.258-27.354-41.337-28.834-39.642-28.443-37.328-27.909-35.106-32.245-35.749-36.459-36.913-40.419-38.629-43.914-40.006-47.186-41.661-50.236-43.562-50.166-44.59-50.084-45.618-49.996-46.642-54.27-32.948-55.079-18.193-51.813-4.184-50.98-1.091-50.161 2.366-47.883 4.703-45.489 6.435-41.924 3.432-43.887 .67-44.46-.339-44.96-1.388-45.397-2.468-32.608 .407-18.704 .334-4.551-2.792-3.057-1.813-1.535-.882 0 0" fill="#f5dfa2"/>
<path transform="matrix(1,0,0,-1,660.2107,189.58032)" d="M0 0C-11.159 3.336-23.83 3.755-34.373-1.625-35.528-2.665-37.395-2.292-38.062-.843-39.075 1.667-36.028 2.859-34.151 3.52-39.254 9.926-46.148 14.817-53.849 18.034-55.029 15.817-55.857 13.471-56.236 11.018-56.245 10.975-56.251 10.936-56.257 10.894-56.777 25.683-43.119 37.251-30.213 41.867-27.184 42.737-22.3 44.82-20.574 41.61-19.647 39.709-21.466 37.377-23.509 37.729-23.852 37.683-24.195 37.629-24.54 37.571-13.38 28.09-6.288 15.402-3.014 1.564-1.986 1.079-.979 .555 0 0" fill="#f5dfa2"/>
<path transform="matrix(1,0,0,-1,660.6897,227.4245)" d="M0 0C.337-1.989-2.335-3.183-3.565-1.555-3.753-1.337-3.944-1.122-4.142-.913-8.256-16.833-16.882-31.765-29.661-42.786-30.113-44.278-30.628-45.751-31.213-47.201-28.612-32.695-31.161-17.468-37.999-4.457-38.781-3.378-39.387-1.959-39.396-.719-41.864-4.727-45.375-8.153-49.459-10.803-49.65-11.533-49.884-12.255-50.163-12.973-51.042-15.593-54.48-20.614-57.418-18.977-51.742-32.788-55.165-48.213-59.859-61.808-60.265-63.843-62.017-66.159-64.285-64.934-66.8-63.469-65.196-60.932-64.425-58.955-76.849-61.147-89.786-60.192-101.229-55.338-108.475-51.715-114.493-46.364-119.141-39.972-120.551-39.821-121.943-39.581-123.289-39.199-124.247-39.894-125.717-40.203-127.667-39.687-127.897-39.651-128.128-39.615-128.355-39.572-124.765-45.591-120.096-51.039-114.318-55.596-113.038-55.202-111.774-54.777-110.528-54.322-121.426-61.317-134.552-64.304-147.438-64.143-150.07-63.964-153.186-64.309-155.388-62.639-157.461-60.735-155.278-57.172-152.65-58.218-152.274-58.306-151.895-58.391-151.513-58.464-154.945-53.195-157.728-47.507-159.772-41.582-163.255-31.692-165.168-21.414-165.787-11.033-167.076-9.247-168.385-7.355-169.052-5.324-166.825-8.847-163.499-11.464-160.527-14.304-155.948-18.531-151.264-22.715-146.037-26.111-139.804-29.93-132.823-33.076-125.445-33.687-122.24-33.757-121.3-36.404-122.394-38.232-105.97-39.497-89.445-30.89-79.342-18.019-79.414-18.137-79.487-18.252-79.56-18.37-79.596-18.461-79.63-18.555-79.666-18.649-79.557-18.401-79.433-18.179-79.296-17.982-80.506-16.663-81.555-15.22-82.449-13.686-84.656-12.494-86.706-10.945-88.525-9.008-93.837-2.823-93.015 3.851-89.174 9.117-89.68 9.047-90.208 9.132-90.69 9.42-91.327 10.13-91.909 10.918-92.445 11.77-95.947 7.901-97.976 2.889-97.36-2.838-97.178-4.017-96.927-5.145-96.608-6.218-94.786-6.112-92.982-5.836-91.221-5.361-104.539-11.739-120.662-6.82-132.218 1.143-134.107 2.377-136.754 4.445-134.695 6.782-132.874 8.65-130.908 6.953-129.428 5.654-129.38 5.921-129.331 6.188-129.277 6.455-125.96 24.677-113.19 41.282-96.42 48.853-95.647 50.575-94.665 52.215-93.443 53.74-98.278 44.138-95.508 33.18-92.151 23.567-90.82 19.464-88.328 15.807-86.806 11.831-86.154 12.464-85.46 13.061-84.726 13.625-83.654 16.33-82.385 18.885-79.733 19.771-78.405 19.833-77.14 18.958-77.059 17.682-76.956 16.688-77.453 15.554-78.562 14.808-84.414 5.77-84.364-7.921-78.908-17.521-76.561-15.223-71.941-18.3-74.272-21.693-74.66-22.215-75.064-22.724-75.482-23.221-69.473-24.267-62.988-23.9-57.036-22.324-57.133-21.193-57.294-20.02-57.457-18.952-59.191-18.144-59.297-15.423-57.587-14.502-47.904-5.576-56.195 11.069-64.376 18.325-67.257 19.781-70.421 20.174-73.623 20.144-74.118 19.562-74.6 18.974-75.07 18.379-71.216 26.829-64.677 33.95-57.094 39.227-54.115 41.148-48.213 45.052-43.814 45.148-39.653 45.521-39.663 40.262-43.58 40.145-34.094 30.94-30.013 17.661-37.508 2.935-37.699 2.483-37.902 2.037-38.117 1.598-34.562 3.339-33.745-.859-32.459-3.187-29.646 1.643-27.724 7.007-26.893 12.497-27.636 12.758-28.394 12.983-29.167 13.168-24.684 13.176-20.317 11.561-16.121 10.148-10.381 7.876-3.415 5.622 0 0M-44.19 45.005C-44.56 44.847-44.882 44.597-45.13 44.281-44.857 44.596-44.526 44.842-44.19 45.005" fill="#f5dfa2"/>
<path transform="matrix(1,0,0,-1,610.2147,363.06233)" d="M0 0C9.896 1.989 19.613 4.824 28.927 8.35 21.899-12.404 10.66-32.056-4.903-47.498-25.438-48.149-47.258-50.138-67.229-44.639-62.06-43.793-56.939-42.477-52-40.815-31.098-32.841-14.793-16.321-.003 0Z" fill="#981e3d"/>
<path transform="matrix(1,0,0,-1,713.8267,295.8786)" d="M0 0C.615-25.159-1.946-50.466-9.781-74.557-9.808-74.709-9.845-74.86-9.887-75.009-25.341-88.398-43.499-98.673-62.866-105.458-51.078-89.259-43.12-70.391-36.88-51.403-35.34-45.891-33.375-40.297-32.399-34.627-20.086-24.616-9.341-12.852 0 0" fill="#981e3d"/>
<path transform="matrix(1,0,0,-1,763.9894,237.01142)" d="M0 0C-.003-.221-.012-.44-.021-.661-1.373-24.155-6.646-47.677-15.681-69.585-13.881-45.812-14.667-21.08-20.332 1.995-20.332 1.995-20.332 1.998-20.332 1.998-18.419 10.139-17.248 18.458-16.763 26.872V26.875C-16.248 27.514-16.41 28.145-16.48 29.003-16.649 29.579-16.378 30.337-16.581 30.904-16.242 41.498-16.97 52.2-18.649 62.815-10.225 42.512-4.385 21.552 0 0" fill="#981e3d"/>
<path transform="matrix(1,0,0,-1,739.8009,192.87311)" d="M0 0C-9.214 12.628-22.649 22.155-37.762 26.265-38.044 27.593-38.344 28.915-38.666 30.231-41.061 41.573-45.257 52.109-50.89 61.717-44.908 59.944-38.923 58.152-33.114 55.869-23.837 51.964-14.68 47.252-7.158 40.5V40.497C-3.49 27.317-.891 13.68 0 0" fill="#981e3d"/>
<path transform="matrix(1,0,0,-1,703.7972,216.81592)" d="M0 0C11.176-14.602 18.813-33.042 18.983-51.4 12.416-63.603 4.478-75.115-4.539-85.669-4.414-70.898-6.855-55.911-12.27-42.128-6.079-28.885-1.971-14.583 0 0" fill="#981e3d"/>
<path transform="matrix(1,0,0,-1,659.7316,301.27229)" d="M0 0C1.282-11.082 .582-26.165-3.068-37.341-7.853-40-12.782-42.383-17.831-44.505-17.825-44.46-17.821-44.411-17.815-44.366-17.84-44.414-17.861-44.469-17.876-44.526-27.172-48.434-36.853-51.46-46.712-53.68-41.467-44.208-40.567-32.653-42.219-22.063-30.189-18.886-18.725-13.822-8.48-6.564-5.536-4.499-2.707-2.307 0 0" fill="#981e3d"/>
<path transform="matrix(1,0,0,-1,692.9036,233.75208)" d="M0 0C-3.775-13.998-9.693-27.342-17.67-39.178-21.815-28.199-26.597-19.567-34.585-11.363-29.558-.158-26.684 12.07-26.226 24.322-14.917 19.914-4.408 11.361 0 0" fill="#981e3d"/>
<path transform="matrix(1,0,0,-1,641.3281,282.21693)" d="M0 0C.588-8.129 .834-16.736-1.956-24.477-5.33-26.405-8.847-28.157-12.504-29.713-19.907-32.59-27.654-34.724-35.567-36.116-31.338-26.362-29.048-17.923-29.613-7.571-20.22-4.12-11.488 1.022-4.199 7.586-3.259 8.438-2.338 9.311-1.44 10.205-.819 6.822-.321 3.423 0 0" fill="#981e3d"/>
<path transform="matrix(1,0,0,-1,624.6284,235.89258)" d="M0 0C4.884-10.988 6.828-23.221 5.379-35.185 4.612-35.828 3.829-36.452 3.032-37.062-4.375-42.613-13.134-46.761-22.372-49.177-19.073-37.751-16.419-25.275-20.277-13.662-16.836-12.688-13.592-11.306-10.742-9.553-6.637-7.07-3.011-3.796 0 0" fill="#981e3d"/>
<path transform="matrix(1,0,0,-1,657.3789,188.79212)" d="M0 0C2.553-11.312 2.577-23.364 .209-35.037-3.438-31.935-8.483-30.179-12.81-28.485-16.26-27.32-19.868-26.014-23.503-25.601-22.703-19.795-23.124-13.865-25.007-8.283-25.98-5.733-27.187-3.338-28.603-1.091V-1.088C-27.86-.806-27.111-.537-26.371-.258-17.885 2.444-8.647 2.11 0 0" fill="#981e3d"/>
<path transform="matrix(1,0,0,-1,598.9182,211.74378)" d="M0 0C6.918-7.484 13.258-23.077 3.584-30.668-3.748-33.099-11.737-33.266-18.537-30.398-22.509-21.187-22.118-9.032-16.791-.873-15.681-.127-15.184 1.007-15.287 2.001-10.572 3.481-3.137 4.294 0 0" fill="#981e3d"/>
<path transform="matrix(1,0,0,-1,603.9751,178.5625)" d="M0 0C2.989-1.322 5.815-2.926 8.395-4.775 5.072-6.085 1.655-8.313-.379-9.635-7.434-14.544-13.589-21.053-17.512-28.739-18.949-28.806-20.386-28.994-21.802-29.297-22.861-28.785-24.037-29.381-24.877-30.137-27.302-30.953-29.612-32.105-31.683-33.545-36.696-23.521-41.455-10.617-38.329 .588-32.02 3.217-25.177 4.569-18.085 4.266-11.83 3.984-5.636 2.489-.024 .009-.024-.033-.024-.079-.021-.124-.015-.082-.009-.042 0 0" fill="#981e3d"/>
<path transform="matrix(1,0,0,-1,564.4241,234.70398)" d="M0 0C2.407-6.952 7.643-11.539 14.074-14.08 4.393-24.513-9.784-31.45-24.019-31.062-31.45-20.041-34.979-6.246-33.933 7.058-28.8 3.763-23.076 1.398-17.124 .067-11.624-1.173-5.527-1.449 0 0" fill="#981e3d"/>
<path transform="matrix(1,0,0,-1,555.9681,289.19319)" d="M0 0C5.718-2.51 11.764-4.148 17.943-4.981 11.861-13.522 4.43-21.041-3.914-27.393-5.773-26.935-7.619-26.435-9.447-25.892-20.759-22.327-30.753-15.632-38.745-7.019-38.705-5.788-39.542-4.53-40.752-4.199-40.943-4.151-41.128-4.12-41.313-4.108V-4.105C-41.789-3.535-42.259-2.959-42.716-2.374-42.704-2.374-42.692-2.377-42.68-2.377-30.989-2.507-19.122-.076-8.874 5.615-6.155 3.538-3.199 1.655 0 0" fill="#981e3d"/>
<path transform="matrix(1,0,0,-1,555.8802,325.02113)" d="M0 0C10.557-1.928 21.499-2.823 32.405-2.474 25.513-9.914 17.082-15.823 8.495-21.151 2.556-24.925-3.854-27.742-10.578-29.649-24.449-25.877-37.505-19.528-48.671-10.214-47.373-9.984-46.088-9.72-44.833-9.484-33.86-7.237-23.506-2.586-14.365 3.832-9.881 2.189-5.094 .897 0 0" fill="#981e3d"/>
<path transform="matrix(1,0,0,-1,523.0812,354.11518)" d="M0 0C9.823-4.903 20.247-8.21 30.974-10.136 17.012-19.693-11.156-33.869-27.769-26.077-28.603-25.444-29.443-25.137-30.222-25.083-39.151-18.24-47.61-10.772-55.478-2.744-51.124-4.424-46.409-5.418-41.31-5.763-27.123-7.186-13.3-5.537 0 0" fill="#981e3d"/>
<path transform="matrix(1,0,0,-1,486.6709,324.63648)" d="M0 0C-20.765-.254-44.959 4.933-57.46 22.955-57.927 23.895-58.603 24.48-59.349 24.768-65.179 37.635-69.163 51.097-71.51 64.859-59.019 49.66-41.185 38.421-22.172 34.115-16.257 21.827-8.823 10.288 0 0" fill="#981e3d"/>
<path transform="matrix(1,0,0,-1,506.5361,294.77503)" d="M0 0C-1.849-.215-3.711-.331-5.57-.415-14.708-.619-23.779 .406-32.696 2.35-37.629 11.567-41.67 21.251-44.693 31.241-36.137 26.199-25.438 23.715-16.154 22.812-14.768 22.739-13.38 22.682-11.994 22.648-8.99 14.483-5.012 6.834 0 0" fill="#981e3d"/>
<path transform="matrix(1,0,0,-1,448.6391,232.50592)" d="M0 0C.473-5.739 1.264-11.479 2.359-17.179-14.84-6.114-27.111 11.625-34.403 30.528-32.65 44.429-29.567 58.212-25.362 71.577-25.265 68.509-24.959 65.449-24.349 62.414-20.665 45.703-12.316 29.84-.791 17.203V17.2C-.803 11.524-.537 5.788 0 0" fill="#981e3d"/>
<path transform="matrix(1,0,0,-1,488.6328,210.27002)" d="M0 0C-1.307-9.602-1.649-19.416-.955-29.07-10.545-24.213-18.51-16.821-25.31-8.583-28.181-5.069-30.759-1.301-33.139 2.577-32.581 14.374-30.846 26.132-27.56 37.392-22.839 22.36-12.616 9.338 0 0" fill="#981e3d"/>
<path transform="matrix(1,0,0,-1,523.639,225.40833)" d="M0 0C-1.237-11.74 .409-23.758 5.075-34.515-8.538-30.801-18.912-20.776-28.83-11.273-29.297-1.061-28.524 9.226-26.775 19.322-21.536 10.797-11.861 4.387-2.944 .837-1.989 .467-.982 .152 0 0" fill="#981e3d"/>
<path transform="matrix(1,0,0,-1,494.5359,59.296876)" d="M0 0C-11.361-14.677-17.33-32.775-18.179-51.5-18.222-54.28-18.713-61.778-17.694-67.263-27.038-79.536-34.006-92.782-38.766-106.756-45.302-88.426-49.401-67.074-45.897-47.925-33.739-30.513-17.737-13.395 0 0" fill="#981e3d"/>
<path transform="matrix(1,0,0,-1,521.641,93.31781)" d="M0 0C-6.631-16.906-8.101-37.726-3.478-54.553-10.211-60.932-15.957-68.406-20.459-76.522-26.755-60.066-29.013-41.866-27.603-24.328-19.346-15.178-10.117-6.828 0 0" fill="#981e3d"/>
<path transform="matrix(1,0,0,-1,551.7144,136.71631)" d="M0 0C-.206-.879-.391-1.765-.567-2.644-2.968-14.947-2.31-27.672 1.016-39.73-7.731-45.306-14.592-52.888-19.489-61.553-23.67-57.26-25.862-50.872-28.479-45.594-31.365-38.645-34.021-31.453-35.861-24.119-27.936-14.417-18.043-7.186-6.898-2.516-6.746-2.565-6.585-2.604-6.415-2.632-4.878-2.92-3.353-2.138-2.589-.861-1.731-.558-.87-.273 0 0" fill="#981e3d"/>
<path transform="matrix(1,0,0,-1,616.4756,82.75159)" d="M0 0C-1.11-.606-2.119-1.185-2.947-1.634-17.4-10.839-28.339-26.396-32.038-43.229-43.441-42.597-54.713-43.308-65.522-46.151-60.389-25.741-50.599-5.413-32.793 6.755-21.696 5.906-10.627 3.617 0 0" fill="#981e3d"/>
<path transform="matrix(1,0,0,-1,629.9979,147.71302)" d="M0 0C-.237-.067-.464-.127-.676-.179-10.951-4.208-21.721-12.422-25.031-23.276-32.502-20.38-40.658-19.037-48.644-19.383-46.876-8.444-40.943 1.389-32.893 8.923-31.862 9.99-30.798 11.054-29.728 12.097-24.877 10.966-20.001 9.475-15.132 7.622-9.544 5.609-4.505 3.035 0 0" fill="#981e3d"/>
<path transform="matrix(1,0,0,-1,690.76,153.05518)" d="M0 0C1.568-4.545 2.868-9.199 3.911-13.929-7.01-7.925-23.273-8.274-34.427-12.267-41.364-.622-51.312 8.362-62.891 14.802-59.862 16.597-56.754 18.249-53.567 19.744-40.752 25.65-26.226 28.482-12.379 24.792-7.195 17.218-2.989 8.932 0 0" fill="#981e3d"/>
<path transform="matrix(1,0,0,-1,707.9144,99.430179)" d="M0 0C-15.99 11.993-37.432 11.027-56.099 7.161-68.409 15.475-82.173 21.821-96.532 25.914-79.72 37.347-59.795 43.189-39.308 39.606-24.009 28.997-10.739 15.414 0 0" fill="#981e3d"/>
<path transform="matrix(1,0,0,-1,563.9147,33.08319)" d="M0 0C16.43 .785 33.045-.919 49.153-4.096 31.574-10.994 13.795-18.3-.015-31.541-1.225-32.923-3.338-34.594-4.596-36.428-13.44-38.035-21.975-40.958-30.11-44.875-32.943-43.275-34.647-45.543-36.043-47.94-37.021-48.473-37.988-49.03-38.951-49.596-33.071-29.124-20.853-8.01 0 0" fill="#981e3d"/>
<path transform="matrix(1,0,0,-1,527.3231,81.82123)" d="M0 0C-1.591 .745-.96 2.495 .439 3.042 3.817 5.047 7.333 6.826 10.902 8.463 11.278 8.63 11.709 8.888 12.133 8.885 13.361 8.726 13.081 7.357 12.094 7.002 8.477 4.822 5.008 2.392 1.401 .183 1.004-.101 .467-.166 0 0" fill="#981e3d"/>
<g opacity=".800003">
<g clip-path="url(#clip_2)">
<path transform="matrix(1,0,0,-1,472.0417,93.243228)" d="M0 0C13.633 23.043 36.937 40.943 62.452 48.729 81.139 53.787 100.876 53.225 120.091 53.343 102.175 50.052 83.767 48.205 66.25 43.041 41.261 34.495 17.263 20.095 0 0" fill="#f9ecc7"/>
</g>
</g>
<g opacity=".800003">
<g clip-path="url(#clip_3)">
<path transform="matrix(1,0,0,-1,505.0177,116.7348)" d="M0 0C7.637 11.798 19.584 20.996 32.114 27.178 44.468 32.465 58.175 34.108 71.502 34.76 67.191 33.692 62.759 32.455 58.458 31.143 37.067 25.382 16.034 15.398 0 0" fill="#f9ecc7"/>
</g>
</g>
<g opacity=".800003">
<g clip-path="url(#clip_4)">
<path transform="matrix(1,0,0,-1,518.0465,167.27948)" d="M0 0C12.12 23.917 37.284 29.465 62.023 27.296 59.57 26.914 56.928 26.544 54.486 26.08 34.447 22.914 13.051 16.473 0 0" fill="#f9ecc7"/>
</g>
</g>
<g opacity=".800003">
<g clip-path="url(#clip_5)">
<path transform="matrix(1,0,0,-1,547.3967,197.43769)" d="M0 0C5.901 10.923 19.603 17.722 31.832 16.839 20.716 14.63 7.866 8.221 .028 .024 .051 .014 .011-.023 0 0" fill="#f9ecc7"/>
</g>
</g>
<g opacity=".800003">
<g clip-path="url(#clip_6)">
<path transform="matrix(1,0,0,-1,573.2565,222.74573)" d="M0 0C3.032 7.122 13.628 9.619 20.362 6.634 13.93 7.493 4.065 5.259 .028 .007 .031 .001 .031-.004 .031-.01V-.006C.031-.006 .033-.008 .033-.011 .034-.012 .035-.013 .037-.013H.034 .037 .034C.084-.03 0-.048 0 0" fill="#f9ecc7"/>
</g>
</g>
<g opacity=".800003">
<g clip-path="url(#clip_7)">
<path transform="matrix(1,0,0,-1,499.6199,386.4964)" d="M0 0C-18.263 13.271-37.084 26.596-51.66 44.015-66.604 62.265-74.6 84.842-81.09 107.226-95.657 153.872-90.008 207.25-61.555 247.575-91.729 186.902-86.715 111.513-50.625 54.542-36.884 33.759-17.486 17.434 0 0" fill="#f9ecc7"/>
</g>
</g>
<g opacity=".800003">
<g clip-path="url(#clip_8)">
<path transform="matrix(1,0,0,-1,747.717,303.92323)" d="M0 0C3.187 16.801 9.286 32.764 11.825 49.661 17.792 114.995-9.052 179.067-50.558 228.44-3.322 186.562 18.834 132.002 19.625 69.006 20.349 44.429 8.119 22.412 0 0" fill="#f9ecc7"/>
</g>
</g>
<g opacity=".800003">
<g clip-path="url(#clip_9)">
<path transform="matrix(1,0,0,-1,516.8245,170.87873)" d="M0 0C12.724 27.906 47.77 35.47 75.343 28.109 76.221 27.885 77.183 27.694 77.995 27.43 72.32 26.881 66.626 26.299 60.994 25.498 50.841 23.726 41.011 20.604 31.035 18.063 19.553 14.583 8.505 8.495 .039-.033H.04C.04-.033 .04-.033 .04-.033 .103-.026 .01-.11 0 0" fill="#f9ecc7"/>
</g>
</g>
<g opacity=".800003">
<g clip-path="url(#clip_10)">
<path transform="matrix(1,0,0,-1,500.8246,121.69922)" d="M0 0C8.191 12.67 19.78 23.239 33.014 30.513 50.755 39.629 73.382 41.474 91.606 32.756 88.676 32.993 85.638 33.298 82.651 33.236 52.553 31.318 23.995 17.548 0 0" fill="#f9ecc7"/>
</g>
</g>
<g opacity=".800003">
<g clip-path="url(#clip_11)">
<path transform="matrix(1,0,0,-1,544.8104,208.5924)" d="M0 0C1.139 9.125 8.803 17.825 15.86 23.322 25.646 29.44 39.495 29.51 49.884 24.877 60.739 17.457 54.682 21.513 47.467 22.789 34.774 23.257 21.236 20.792 11.538 12.083 7.492 8.267 1.899 4.697 .218-.779 .229-.829 .3-.821 .27-.843-.01-.885 .009-.09 0 0" fill="#f9ecc7"/>
</g>
</g>
<g opacity=".800003">
<g clip-path="url(#clip_12)">
<path transform="matrix(1,0,0,-1,511.5011,122.53882)" d="M0 0C9.579 11.939 21.569 23.284 36.801 27.09 46.575 29.599 57.692 30.635 67.317 28.371 43.048 24.28 20.669 12.888 0 0" fill="#f9ecc7"/>
</g>
</g>
<g opacity=".800003">
<g clip-path="url(#clip_13)">
<path transform="matrix(1,0,0,-1,531.6891,164.48499)" d="M0 0C10.257 12.932 28.73 17.891 44.678 15.563 37.708 13.843 30.762 12.005 24.319 9.611 16.203 6.531 7.394 4.687 .018 .006 .018-.006 .006-.009 0 0" fill="#f9ecc7"/>
</g>
</g>
<g opacity=".800003">
<g clip-path="url(#clip_14)">
<path transform="matrix(1,0,0,-1,492.2168,78.88037)" d="M0 0C15.708 21.924 39.284 32.99 66.101 32.327 66.859 32.293 67.744 32.381 68.423 32.302 65.787 31.325 63.084 30.413 60.595 29.516 39.365 21.876 18.786 12.295 .008-.015 0-.015-.008-.007 0 0" fill="#f9ecc7"/>
</g>
</g>
<g opacity=".800003">
<g clip-path="url(#clip_15)">
<path transform="matrix(1,0,0,-1,489.9698,90.08411)" d="M0 0C8.714 12.494 19.397 24.527 33.978 30.037 41.779 32.891 50.254 35.962 58.488 36.062 58.485 36.061 58.482 36.061 58.479 36.065H58.482C50.559 32.8 43.423 27.901 35.879 23.831 23.308 16.86 11.806 8.006 0 0" fill="#f9ecc7"/>
</g>
</g>
<g opacity=".800003">
<g clip-path="url(#clip_16)">
<path transform="matrix(1,0,0,-1,433.0387,285.42964)" d="M0 0C-19.19 33.574-20.093 77.682-1.104 111.225V111.222C-1.105 111.223-1.107 111.224-1.108 111.225-1.118 111.218-1.129 111.211-1.142 111.204-5.94 74.545-5.037 36.579 0 0" fill="#f9ecc7"/>
</g>
</g>
<g opacity=".800003">
<g clip-path="url(#clip_17)">
<path transform="matrix(1,0,0,-1,460.5014,222.0686)" d="M0 0C-2.747 17.872-.703 37.708 11.32 51.924 5.964 35.02 4.41 16.989 0 0" fill="#f9ecc7"/>
</g>
</g>
<g opacity=".800003">
<g clip-path="url(#clip_18)">
<path transform="matrix(1,0,0,-1,504.3546,212.46637)" d="M0 0C-.709 12.048 1.387 25.334 9.162 34.831 5.93 23.287 4.101 11.281 0 0" fill="#f9ecc7"/>
</g>
</g>
<g opacity=".800003">
<g clip-path="url(#clip_19)">
<path transform="matrix(1,0,0,-1,649.3652,188.43988)" d="M0 0C-5.059 5.938-10.343 11.717-14.832 18.11-18.019 22.518-24.374 32.328-30.201 32.235-28.039 33.768-24.591 32.01-22.432 31.068-10.663 24.967-4.729 11.696 0 0" fill="#f9ecc7"/>
</g>
</g>
<g opacity=".800003">
<g clip-path="url(#clip_20)">
<path transform="matrix(1,0,0,-1,680.5607,171.22138)" d="M0 0C-8.78 31.526-29.108 58.133-57.506 74.516-59.681 75.432-61.908 76.716-64.282 76.844-42.377 78.235-16.065 59.079-6.954 39.512-1.18 27.31 .28 13.323 0 0" fill="#f9ecc7"/>
</g>
</g>
<g opacity=".800003">
<g clip-path="url(#clip_21)">
<path transform="matrix(1,0,0,-1,595.5333,298.2677)" d="M0 0C21.471 6.983 40.179 21.582 57.866 35.316 50.033 22.054 39.117 9.948 24.437 4.369 16.721 1.519 8.294-1.121 0 0" fill="#f9ecc7"/>
</g>
</g>
<g opacity=".800003">
<g clip-path="url(#clip_22)">
<path transform="matrix(1,0,0,-1,596.6514,256.08644)" d="M0 0C13.426 3.152 25.587 14.184 34.663 24.189 36.323 26.182 37.906 28.362 39.396 30.422 36.558 19.315 29.612 8.72 19.028 3.72 13.281 .879 6.419-1.335 0 0" fill="#f9ecc7"/>
</g>
</g>
<g opacity=".800003">
<g clip-path="url(#clip_23)">
<path transform="matrix(1,0,0,-1,630.8016,325.28608)" d="M0 0C24.556 17.703 44.226 41.2 61.074 65.986 62.928 68.65 64.746 71.451 66.522 74.103 59.083 38.798 35.552 9.378 0 0" fill="#f9ecc7"/>
</g>
</g>
<g opacity=".800003">
<g clip-path="url(#clip_24)">
<path transform="matrix(1,0,0,-1,654.376,349.97633)" d="M0 0C0 .008 .012 .011 .017 .006 .082 .001 .134 .029 .2 .042L.197 .039C.197 .039 .197 .039 .197 .039 5.399 2.309 9.543 6.143 13.884 9.674 33.858 26.25 50.889 45.901 66.066 66.888 76.349 83.412 83.489 101.803 93.134 118.702 86.286 72.069 75.036 39.23 32.526 13.801 22.723 8.211 11.314 1.198 0 0" fill="#f9ecc7"/>
</g>
</g>
<g opacity=".800003">
<g clip-path="url(#clip_25)">
<path transform="matrix(1,0,0,-1,560.0479,378.41664)" d="M0 0C-16.753-.068-34.129 3.761-47.495 14.31-61.662 25.147-77.044 45.516-80.844 59.751-67.996 44.603-51.569 30.934-34.973 20.429-17.477 9.873 2.849 5.815 22.53 1.325 15.133 .303 7.512-.085 0 0" fill="#f9ecc7"/>
</g>
</g>
<g opacity=".800003">
<g clip-path="url(#clip_26)">
<path transform="matrix(1,0,0,-1,562.2742,338.09004)" d="M0 0C-16.098 1.838-31.427 11.389-40.59 24.677-26.062 14.819-9.091 8.657 7.719 3.887 12.656 2.486 17.416 1.154 22.394-.003 15.032-1.019 7.415-.836 0 0" fill="#f9ecc7"/>
</g>
</g>
<g opacity=".800003">
<g clip-path="url(#clip_27)">
<path transform="matrix(1,0,0,-1,571.7899,303.6018)" d="M0 0C-11.409 .343-22.266 5.694-29.767 14.259-30.077 14.643-30.565 15.058-30.768 15.438-28.197 13.934-25.487 12.577-22.748 11.383-11.907 6.628-.46 3.577 10.736-.197 7.215-.434 3.558-.29 0 0" fill="#f9ecc7"/>
</g>
</g>
<g opacity=".800003">
<g clip-path="url(#clip_28)">
<path transform="matrix(1,0,0,-1,567.6717,252.79181)" d="M0 0C-2.551 1.688-4.646 3.948-6.34 6.424-1.193 2.983 4.159-.268 9.451-3.396 6.121-2.938 2.829-1.849 0 0" fill="#f9ecc7"/>
</g>
</g>
<g opacity=".800003">
<g clip-path="url(#clip_29)">
<path transform="matrix(1,0,0,-1,572.356,222.97333)" d="M0 0C5.053 10.244 21.726 13.224 29.424 4.361 20.211 8.623 7.783 6.245 .021 .031 .021 .024 .018 .018 .015 .015V.012C.018 .002 .008-.009 0 0" fill="#f9ecc7"/>
</g>
</g>
<g opacity=".800003">
<g clip-path="url(#clip_30)">
<path transform="matrix(1,0,0,-1,560.1984,414.47053)" d="M0 0C-26.994 5.482-61.627 21.773-78.113 44.187-78.062 44.2-78.129 44.151-78.146 44.144-54.28 21.212-7.862 5.779 24.993 4.311 62.452 2.938 106.514 18.074 136.579 40.255 188.391 85.645 193.787 154.465 209.021 217.44 205.843 194.002 207.776 174.233 202.506 151.135 188.658 94.306 162.723 33.57 103.148 13.354 70.8-.67 34.892-7.597 0 0" fill="#4c0f1f"/>
</g>
</g>
<g opacity=".800003">
<g clip-path="url(#clip_31)">
<path transform="matrix(1,0,0,-1,533.9382,191.1441)" d="M0 0C8.23 17.657 25.457 26.265 44.462 26.029 27.428 22.053 10.954 13.934 0 0" fill="#4c0f1f"/>
</g>
</g>
<g opacity=".800003">
<g clip-path="url(#clip_32)">
<path transform="matrix(1,0,0,-1,521.8831,139.2752)" d="M0 0C12.006 15.848 29.995 21.498 49.005 15.969 47.271 15.935 45.396 15.983 43.638 15.927 27.843 16.241 12.069 9.973 0 0" fill="#4c0f1f"/>
</g>
</g>
<g opacity=".800003">
<g clip-path="url(#clip_33)">
<path transform="matrix(1,0,0,-1,507.8888,87.263919)" d="M0 0C12.315 12.916 29.032 21.851 46.682 24.68 65.146 27.417 83.691 22.697 101.653 18.782 95.256 18.951 88.721 19.275 82.277 19.54 53.335 21.877 23.928 17.156 0 0" fill="#4c0f1f"/>
</g>
</g>
<g opacity=".800003">
<g clip-path="url(#clip_34)">
<path transform="matrix(1,0,0,-1,565.8137,216.94641)" d="M0 0C1.565 6.513 9.23 10.3 15.405 11.009 9.766 8.487 3.198 5.464 .015 .015 .015 .025 .02 .001 .019 .012 .024-.002 .006-.02 0 0" fill="#4c0f1f"/>
</g>
</g>
<g opacity=".800003">
<g clip-path="url(#clip_35)">
<path transform="matrix(1,0,0,-1,588.4568,241.58948)" d="M0 0C-3.484 .432-8.14 1.051-10.363 3.781-10.366 3.789-10.349 3.766-10.357 3.769 .916-1.462 16.87 5.785 26.674 11.901 19.834 4.647 10.286-.717 0 0" fill="#4c0f1f"/>
</g>
</g>
<g opacity=".800003">
<g clip-path="url(#clip_36)">
<path transform="matrix(1,0,0,-1,582.8807,288.30079)" d="M0 0C-2.382 .054-4.881 .27-7.195 .338 33.22 4.04 50.09 28.529 71.034 59.31 68.315 52.573 64.943 46.103 61.414 39.757 56.652 31.422 52.007 22.754 44.811 16.229 32.81 5.305 16.126-.254 0 0" fill="#4c0f1f"/>
</g>
</g>
<g opacity=".800003">
<g clip-path="url(#clip_37)">
<path transform="matrix(1,0,0,-1,576.1361,320.7845)" d="M0 0C-5.528 .693-11.289 1.247-16.579 2.811 25.072 .972 65.23 12.155 89.852 47.844 74.439 12.173 37.534-4.439 0 0" fill="#4c0f1f"/>
</g>
</g>
<g opacity=".800003">
<g clip-path="url(#clip_38)">
<path transform="matrix(1,0,0,-1,571.3262,359.9209)" d="M0 0C-1.537 .344-3.575 .088-4.848 .792-4.848 .791-4.848 .79-4.848 .788 13.451 .557 31.252 6.854 48.274 12.98 57.431 16.562 66.826 19.794 75.251 24.953 85.256 31.706 95.179 38.828 104.331 46.664 94.893 35.26 84.262 24.306 71.708 16.341 50.005 4.852 24.694-2.558 0 0" fill="#4c0f1f"/>
</g>
</g>
<g opacity=".800003">
<g clip-path="url(#clip_39)">
<path transform="matrix(1,0,0,-1,576.4213,408.5641)" d="M0 0C-48.043 4.366-88.39 28.335-116.137 67.629-117.757 69.967-119.426 72.311-120.8 74.79-85.137 33.456-34.736 4.499 21 6.558 71.712 8.153 123.963 30.967 150.289 75.907 127.254 17.322 58.538-5.27 0 0" fill="#4c0f1f"/>
</g>
</g>
<g opacity=".800003">
<g clip-path="url(#clip_40)">
<path transform="matrix(1,0,0,-1,582.3329,414.62513)" d="M0 0C-19.704 2.862-38.691 9.827-56.633 18.262-56.702 18.307-57.5 18.78-57.406 18.971-57.39 18.99-57.384 18.96-57.388 18.953-23.206 7.398 14.164 2.211 49.848 9.595 55.898 11.041 61.521 13.76 67.272 16.057 78.435 20.214 88.226 27.14 98.8 32.512 66.674 6.238 42.312-4.882 0 0" fill="#4c0f1f"/>
</g>
</g>
<g opacity=".800003">
<g clip-path="url(#clip_41)">
<path transform="matrix(1,0,0,-1,570.6812,361.3463)" d="M0 0C-24.212 2.703-53.945 15.414-69.927 34.17-70.057 34.341-70.193 34.582-70.206 34.737-32.504 3.161 37.857-4.099 78.299 25.95 58.396 5.47 27.876-1.922 0 0" fill="#4c0f1f"/>
</g>
</g>
<g opacity=".800003">
<g clip-path="url(#clip_42)">
<path transform="matrix(1,0,0,-1,582.5878,322.5558)" d="M0 0C-26.76 .804-50.809 15.958-68.876 34.849-69.319 35.315-69.96 35.986-70.149 36.334-29.063 4.209 12.525-2.168 59.595 20.944 42.228 8.885 21.423-.066 0 0" fill="#4c0f1f"/>
</g>
</g>
<g opacity=".800003">
<g clip-path="url(#clip_43)">
<path transform="matrix(1,0,0,-1,241.231,973.948)" d="M0 0C13.997 35.254 30.081 69.594 46.967 103.542 76.7 164.46 106.428 225.386 136.159 286.305 163.318 341.965 190.481 397.616 217.642 453.274 235.968 491.349 254.722 529.241 276.229 565.645 276.882 566.738 277.512 567.866 278.146 568.896 276.957 565.751 275.644 562.65 274.38 559.536 272.236 554.264 270.063 549.006 267.862 543.761 247.925 495.964 223.843 450.07 201.448 403.409 173.553 346.257 145.664 289.098 117.771 231.946 92.923 181.021 68.071 130.105 43.222 79.181 30.666 53.148 17.012 27.667 2.574 2.632 1.986 1.607 1.394 .582 .8-.44 .714-.586 .581-.648 .445-.648 .137-.648-.185-.336 0 0" fill="#4c0f1f"/>
</g>
</g>
<path transform="matrix(1,0,0,-1,509.4251,401.79774)" d="M0 0C-16.399-41.253-36.134-81.218-56.138-120.879-86.835-182.474-117.529-244.071-148.226-305.667-178.133-365.694-208.049-425.712-237.961-485.737-251.181-512.262-265.658-538.145-280.798-563.617-269.372-534.916-256.569-506.667-242.775-479-217.895-429.074-193.016-379.144-168.133-329.218-127.351-247.376-86.566-165.539-45.781-83.696-31.722-55.159-16.28-27.325 0 0" fill="#4c0f1f"/>
<path transform="matrix(1,0,0,-1,233.0864,957.9105)" d="M0 0C-.027 .015 0 .066 .01 .093 .065 .035 .121-.022 .178-.079 .118-.052 .059-.026 0 0" fill="#4c0f1f"/>
<path transform="matrix(1,0,0,-1,238.8837,960.7213)" d="M0 0C1.686-.988 3.247-2.156 4.524-3.669 2.147-1.995-.864-.728-3.338 .913-2.182 .838-1.051 .492 0 0" fill="#4c0f1f"/>
<path transform="matrix(1,0,0,-1,243.7417,973.912)" d="M0 0C33.135 81.557 75.675 158.856 113.77 238.134 144.376 300.015 174.974 361.906 205.581 423.789 225.147 462.985 243.707 502.726 265.546 540.738 269.303 547.369 273.108 553.969 276.979 560.533 277.155 560.83 277.629 560.601 277.478 560.306 262.177 522.094 244.315 485.009 225.841 448.25 195.242 386.36 164.631 324.479 134.032 262.589 104.857 203.597 75.682 144.6 46.51 85.608 32.224 56.61 16.654 27.201 0 0" fill="#4c0f1f"/>
<path transform="matrix(1,0,0,-1,239.8685,971.8135)" d="M0 0C7.101 .95 3.029 9.577-1.769 10.724-5.312 11.536-10.036 9.291-8.434 5.082-7.13 1.832-3.44-.217 0 0M-5.083-2.325C-9.436-.578-13.105 4.992-10.252 9.421-8.24 12.378-4.003 12.615-1.01 11.1 10.848 7.774 6.843-6.852-5.083-2.325" fill="#4c0f1f"/>
<path transform="matrix(1,0,0,-1,606.6697,410.51704)" d="M0 0C169.524 13.424 204.1 233.067 89.771 336.69 171.301 249.788 152.094 117.132 45.641 61.369-54.333 13.207-147.251 68.985-158.029 178.013-162.018 220.964-151.119 261.156-121.92 293.485-97.971 321.201-63.913 345.019-25.731 342.183 28.529 339.094 82.826 303.032 94.466 247.874 107.169 195.652 89.554 134.206 44.582 102.679 17.324 83.367-18.549 79.606-50.788 85.495-115.27 96.862-130.313 171.09-112.261 225.283-103.479 251.718-81.887 274.769-54.564 281.924 41.664 303.293 99.332 207.347 30.459 135.887 9.229 116.768-24.245 109.712-50.7 121.323-98.077 145.842-92.559 220.064-43.561 239.354-18.951 250.021 15.766 239.499 25.703 213.441 31.666 195.781 22.976 174.604 7.217 165.07-9.493 154.8-39.79 157.214-43.34 180.254-45.528 197.26-21.535 209.629-8.364 199.925-22.859 208.216-47.761 189.252-34.506 174.085-20.085 158.728 8.788 167.677 16.512 186.027 30.215 212.957 5.225 235.042-20.78 236.222-47.477 237.362-70.619 215.036-75.257 189.547-79.991 165.89-69.289 138.799-47.209 127.755 41.212 94.581 96.203 235.683 8.196 270.427-42.872 289.861-94.851 269.454-107.839 214.011-119.354 170.258-108.459 110.878-60.15 95.433 41.944 64.612 115.274 162.962 84.091 257.46 67.214 307.898 11.536 337.764-39.962 334.673-78.895 330.047-110.138 300.582-130.975 269.09-148.458 243.462-152.921 211.428-150.943 181.019-145.054 103.826-87.283 38.041-5.336 53.313 57.841 61.195 108.287 111.187 128.214 170.071 137.96 202.386 133.01 237.387 122.699 268.954 95.781 351.199 11.741 392.067-70.901 373.404-109.887 361.125-148.138 322.892-167.843 287.707-196.072 232.104-205.384 161.895-176.534 104.772-154.173 62.14-116.85 27.826-73.949 6.425-50.941-3.602-24.5-.706 0 0M-46.072-7.36C-70.309-7.074-91.441 6.324-110.575 19.948-157.434 53.248-195.609 103.546-200.479 162.262-211.785 309.737-86.646 441.434 59.434 361.183 45.441 370.072 70.348 356.688 74.481 353.945 238.53 243.179 167.418-33.779-46.072-7.36" fill="#4c0f1f"/>
<path transform="matrix(1,0,0,-1,475.1567,468.85304)" d="M0 0C10.48 24.755 22.26 48.865 32.912 73.529 34.339 77.761 40.565 76.767 40.167 72.189 29.383 46.838 14.435 23.359 0 0" fill="#4c0f1f"/>
<path transform="matrix(1,0,0,-1,475.27,508.6414)" d="M0 0C11.641 29.537 24.226 58.714 38.165 87.243 41.012 93.125 43.85 99.016 46.706 104.895 47.582 106.686 49.993 107.268 51.675 106.344 53.778 105.224 54.022 102.548 52.788 100.674 47.202 89.181 41.75 77.617 36.01 66.198 24.706 43.784 12.609 21.643 0 0" fill="#4c0f1f"/>
<g inkscape:groupmode="layer" inkscape:label="Skupina vrstev">
</g>
<g inkscape:groupmode="layer" inkscape:label="Skupina vrstev">
</g>
<g inkscape:groupmode="layer" inkscape:label="Skupina vrstev">
</g>
<g inkscape:groupmode="layer" inkscape:label="Skupina vrstev">
</g>
<g inkscape:groupmode="layer" inkscape:label="Skupina vrstev">
</g>
</g>
</g>
</g>
</svg>
