<svg xmlns="http://www.w3.org/2000/svg" xmlns:xlink="http://www.w3.org/1999/xlink" xmlns:inkscape="http://www.inkscape.org/namespaces/inkscape" version="1.1" width="1000" height="1000" viewBox="0 0 1000 1000">
<defs>
<clipPath id="clip_1">
<path transform="matrix(1,0,0,-1,0,1000)" d="M0 1000H1000V0H0Z"/>
</clipPath>
<clipPath id="clip_2">
<path transform="matrix(1,0,0,-1,0,1000)" d="M264.13 250.261H686.976V769.522H264.13Z"/>
</clipPath>
<clipPath id="clip_3">
<path transform="matrix(1,0,0,-1,0,1000)" d="M639.729 756.147H639.802V756.172H639.729Z"/>
</clipPath>
<clipPath id="clip_4">
<path transform="matrix(1,0,0,-1,0,1000)" d="M553.781 655.643H620.585V705.475H553.781Z"/>
</clipPath>
<clipPath id="clip_5">
<path transform="matrix(1,0,0,-1,0,1000)" d="M629.124 702.824H661.388V723.654H629.124Z"/>
</clipPath>
<clipPath id="clip_6">
<path transform="matrix(1,0,0,-1,0,1000)" d="M559.577 499.116H597.253V574.471H559.577Z"/>
</clipPath>
<clipPath id="clip_7">
<path transform="matrix(1,0,0,-1,0,1000)" d="M314.49 226.32H737.5V741.246H314.49Z"/>
</clipPath>
</defs>
<g>
<g inkscape:groupmode="layer" inkscape:label="Vrstva 50">
</g>
<g inkscape:groupmode="layer" inkscape:label="Skupina vrstev">
</g>
<g inkscape:groupmode="layer" inkscape:label="Skupina vrstev">
</g>
<g inkscape:groupmode="layer" inkscape:label="Skupina vrstev">
</g>
<g inkscape:groupmode="layer" inkscape:label="Skupina vrstev">
</g>
<g inkscape:groupmode="layer" inkscape:label="Skupina vrstev">
<g clip-path="url(#clip_1)">
<path transform="matrix(1,0,0,-1,330.4947,732.51919)" d="M0 0C181.538-94.014 361.788 126.784 392.353 289.798 411.575 405.896 312.439 561.22 191.513 463.732 109.736 396.242 149.105 287.539 83.546 230.021 67.201 214.999 46.457 206.55 27.572 195.428 8.961 183.711-8.735 170.835-24.695 155.859-76.35 108.434-62.5 29.965 0 0M-8.729-8.601C-77.424 26.443-89.293 117.721-29.071 167.225-6.744 185.925 19.06 200.053 45.971 210.983 71.893 227.933 94.94 250.925 104.352 281.074 120.203 329.611 121.275 383.317 147.13 428.41 251.947 588.079 409.208 477.68 406.157 315.53 394.173 135.05 185.822-115.482-8.729-8.601" fill="#4c0f1f"/>
<path transform="matrix(1,0,0,-1,655.624,483.055)" d="M0 0C-4.196 3.897-6.169 9.697-2.99 14.856-1.592 18.234 2.786 22.511 6.334 21.509 .789 20.738-1.654 13.861-2.843 8.988-3.309 5.765-1.186 2.756 0 0" fill="#4c0f1f"/>
<path transform="matrix(1,0,0,-1,584.6773,574.1471)" d="M0 0C-.995 9.654 15.602 22.948 20.25 9.624 21.686 6.144 20.896 2.106 18.974-.926 19.75 1.479 19.93 4.119 19.312 6.561 15.665 19.677 1.764 7.763 0 0" fill="#4c0f1f"/>
<path transform="matrix(1,0,0,-1,470.7669,497.7052)" d="M0 0C-7.633 9.009 3.27 23.149 11.096 24.256-3.868 14.924-1.997-4.506 17.909-2.927 20.588-2.759 22.612-.788 24.191 1.064 20.226-8.333 5.746-6.885 0 0" fill="#4c0f1f"/>
<path transform="matrix(1,0,0,-1,521.2495,399.46559)" d="M0 0C-3.189 6.71 .942 13.755 .341 20.674-.146 24.838-2.228 28.824-1.326 33.091-.379 37.656 5.254 40.192 9.433 38.492 9.957 38.301 10.97 37.649 10.96 37.111 7.823 39.808 1.913 36.715 1.448 32.843 1.437 27.567 5.135 23.09 4.684 17.707 4.565 11.824 1.033 5.995 3.267 .153 4.389-2.826 8.181-5.02 11.182-3.586 12.352-2.977 13.377-2.006 14.281-1.204 11.393-7.81 2.246-6.248 0 0" fill="#4c0f1f"/>
<path transform="matrix(1,0,0,-1,616.5152,339.51393)" d="M0 0C-4.174 5.024-8.534 11.153-7.652 18.016-7.354 22.207-3.485 26.142 .879 25.351 6.738 24.374 8.727 18.139 12.541 14.546 16.985 9.652 23.964 7.31 26.765 .987 29.973-4.266 29.124-10.337 26.015-15.398 30.591-.867 20.007 2.49 10.317 9.508 6.41 12.212 4.555 16.789 1.184 19.908-3.068 22.59-4.588 15.902-4.071 12.809-3.201 7.602-.885 2.553 1.863-1.887 1.177-1.578 .536-.597 0 0" fill="#4c0f1f"/>
<path transform="matrix(1,0,0,-1,436.7489,660.56387)" d="M0 0C-5.456 6.241 .653 14.662 6.548 17.997 16.688 23.834 29.626 24.948 37.787 34.03 32.732 24.989 22.774 20.569 13.962 16.011 9.871 14.079-.92 5.818 7.028 2.753 19.71 7.049 31.973 3.196 43.082 12.365 36.551 4.118 26.768 1.471 16.841-.069 10.448-1.681 5.705-6.001 0 0" fill="#4c0f1f"/>
<path transform="matrix(1,0,0,-1,540.6902,675.8144)" d="M0 0C-9.045 5.988-4.966 24.594 6.954 21.828 .158 22.37-3.04 14.092-1.775 8.437-.532 4.96 1.938 1.956 5.055 .082 9.131-2.271 12.5 5.421 13.008 8.474 13.496 .399 7.392-7.151 0 0" fill="#4c0f1f"/>
<path transform="matrix(1,0,0,-1,362.9529,603.3363)" d="M0 0C-21.001 15.036 10.222 27.27 14.361 7.589 13.103 9.773 11.61 12.567 9.112 13.765 4.944 15.622-2.372 15.764-4.3 10.782-4.663 5.644 .217 1.088 3.821-2.065 2.56-1.596 1.167-.819 0 0" fill="#4c0f1f"/>
<path transform="matrix(1,0,0,-1,347.378,735.60549)" d="M0 0C7.828 13.111 3.205 30.335 12.416 43.129 15.776 49.469 28.902 59.885 32.552 48.808 33.169 41.356 28.271 34.51 28.073 27.158 29.443 21.416 34.721 17.383 38.828 13.498 35.195 15.231 31.691 17.693 28.69 20.49 19.949 26.954 26.71 38.538 26.538 47.178 8.209 38.35 12.771 13.005 0 0" fill="#4c0f1f"/>
<path transform="matrix(1,0,0,-1,677.6421,426.7296)" d="M0 0C-10.569 10.204 6.609 21.204 13.799 27.322 19.651 33.329 21.585 46.161 32.732 43.519 21.211 43.231 23.071 30.346 16.579 24.323 10.429 17.57-7.369 11.341 0 0" fill="#4c0f1f"/>
<path transform="matrix(1,0,0,-1,351.5414,724.10366)" d="M0 0C-.394-1.947-.884-3.866-1.523-5.734-1.123-3.562-.525-1.503 0 0" fill="#981e3d"/>
<path transform="matrix(1,0,0,-1,722.8493,442.72114)" d="M0 0C-14.501-88.518-66.932-167.014-129.183-229.766-195.168-295.491-277.401-332.567-364.537-301.865-359.186-300.486-356.824-295.245-351.909-293.491-347.047-293.504-342.386-296.483-337.393-295.74-333.174-295.296-328.154-293.696-326.287-289.526-323.893-280.739-336.513-278.162-341.036-272.815-343.599-270.337-345.87-267.211-347.246-263.811-346.386-257.177-342.357-250.878-342.921-244.078-346.57-232.999-359.697-243.417-363.055-249.753-369.623-258.877-369.16-270.243-371.189-280.775-374.181-285.417-377.304-292.162-375.414-297.688-448.005-273.142-475.736-188.779-417.05-133.937-401.092-118.964-383.392-106.088-364.78-94.37-345.9-83.247-325.156-74.8-308.807-59.777-243.249-2.262-282.618 106.445-200.844 173.936-80.01 271.373 19.249 116.201 0 0M-20.577 26.011C-17.03 33.039-10.533 38.662-8.538 46.589-3.05 59.279-14.526 66.411-23.206 55.771-25.284 53.253-27.191 50.223-28.409 47.285-28.356 47.35-28.304 47.42-28.248 47.489-33.651 38.169-56.736 29.071-45.556 16.341-38.252 4.097-22.073 13.555-20.577 26.011M-67.049-42.081C-57.664-49.898-48.327-35.078-51.345-26.281-52.173-20.703-58.714-16.669-63.277-18.854-66.2-19.633-69.122-22.832-70.216-25.476-72.82-29.704-71.962-34.361-69.269-38.046-68.737-39.487-68.105-40.993-67.049-42.081M-182.161-233.095C-176.773-238.304-172.079-235.707-170.107-230.797-167.812-227.353-167.784-221.371-168.12-217.851-168.72-214.134-171.928-211.783-175.407-211.285-175.329-211.285-175.259-211.28-175.206-211.265-187.125-208.498-191.202-227.105-182.161-233.095M-139.767-133.687C-140.982-156.093-114.701-149.29-117.879-129.613-117.005-127.109-116.885-124.313-117.922-121.804-122.003-110.104-135.301-118.927-137.805-127.791-138.751-129.756-139.425-131.783-139.767-133.687M-244.281-206.961C-240.54-203.82-237.143-200.246-235.014-195.786-231.487-189.457-231.938-174.897-242.042-176.424-247.928-178.472-250.732-184.651-254.785-189.077-262.413-193.736-271.801-195.332-279.554-199.845-285.448-203.178-291.556-211.604-286.102-217.842-280.396-223.844-275.655-219.521-269.26-217.91-259.957-216.466-250.768-214.05-244.281-206.961M-80.316 87.81C-77.209 92.867-76.362 98.944-79.572 104.193-82.368 110.518-89.348 112.86-93.79 117.753-97.609 121.346-99.596 127.581-105.452 128.56-109.819 129.35-113.685 125.415-113.983 121.225-114.838 115.557-111.69 110.718-108.833 106.086-107.532 99.998-106.489 93.381-101.443 89.142-95.482 83.329-85.622 84.839-79.855 90.098-80.027 89.32-80.194 88.55-80.316 87.81M-229.58-56.92C-223.335-51.13-216.362-39.474-220.943-31.067-224.637-25.082-233.054-24.157-238.973-27.192-242.155-28.888-245.142-31.316-247.618-33.808-247.048-33.475-246.48-33.147-245.902-32.83-252.443-37.312-258.182-47.787-252.083-54.985-246.718-61.417-233.738-63.101-228.814-55.649-229.081-56.105-229.349-56.544-229.62-56.969-229.604-57.04-229.58-56.92-229.574-56.918ZM-170.837 50.185C-168.38 52.849-169.807 57.39-173.256 58.348-187.489 62.898-186.332 60.957-186.985 75.699-187.925 81.687-195.42 82.018-199.193 78.42-197.295 81.025-193.112 82.489-190.641 80.366-190.628 80.906-191.64 81.557-192.168 81.748-196.345 83.446-201.977 80.912-202.926 76.346-203.826 72.081-201.747 68.094-201.261 63.929-200.658 57.011-204.79 49.967-201.601 43.256-199.949 38.658-194.567 36.599-193.129 37.58-190.789 37.14-188.157 38.588-187.826 41.078-187.642 41.381-187.474 41.703-187.729 41.687-183.055 55.094-177.004 44.097-170.837 50.185M-334.846-169.539C-330.871-167.012-327.73-160.344-331.767-156.559-334.402-154.459-338.065-155.288-341.133-154.287-343.55-153.516-345.116-151.545-346.675-149.579-352.577-136.993-372.609-143.826-365.642-154.912-365.86-154.865-366.059-154.841-366.224-154.846-365.932-155.008-365.637-155.177-365.356-155.349-364.092-157.272-361.205-159.948-358.443-161.545-352.662-168.81-344.047-175.276-334.846-169.539" fill="#981e3d"/>
<path transform="matrix(1,0,0,-1,549.5928,384.37269)" d="M0 0C3.45-.958 4.877-5.5 2.419-8.164-.476-11.661-4.849-9.398-8.571-9.58-11.789-10.256-13.462-13.833-14.472-16.661-14.572-19.409-17.243-21.283-19.872-20.768-18.083-20.485-16.563-19.763-16.096-18.005-19.088-20.56-23.814-18.363-25.075-14.942-27.308-9.097-23.779-3.271-23.66 2.614-23.212 7.964-26.864 12.422-26.897 17.662-27.905 16.72-28.529 15.581-28.391 14.418-29.307 16.076-27.597 18.682-26.116 19.895-22.415 23.674-14.682 23.439-13.729 17.351-13.076 2.609-14.232 4.549 0 0" fill="#ad4b64"/>
<path transform="matrix(1,0,0,-1,638.7685,337.86854)" d="M0 0C4.545-3.143 8.073-10.423 4.226-14.754-1.542-20.013-11.4-21.523-17.363-15.711-22.408-11.472-23.451-4.855-24.752 1.234-25.482 4.086-26.421 6.899-27.017 9.784-27.081 9.933-27.46 11.326-27.02 11.154-27.215 11.098-27.073 10.838-27.023 10.692-26.536 9.688-26.031 8.667-25.518 7.642-25.854 8.8-26.127 9.984-26.323 11.162-26.842 14.257-25.321 20.942-21.07 18.263-17.7 15.145-15.843 10.564-11.934 7.863-7.156 4.075-3.687 3.634 0 0" fill="#ad4b64"/>
<path transform="matrix(1,0,0,-1,714.3116,396.1324)" d="M0 0C-1.996-7.926-8.492-13.55-12.04-20.577-13.535-33.034-29.714-42.492-37.018-30.248-40.8-25.236-37.386-13.121-35.478-18.727-31.281-13.998-23.69-10.229-20.092-6.275-15.836-2.574-15.437 3.966-12.424 8.373-15.545 6.003-18.25 2.739-19.872 .697-18.653 3.635-16.746 6.664-14.668 9.183-5.988 19.822 5.488 12.69 0 0" fill="#ad4b64"/>
<path transform="matrix(1,0,0,-1,671.5047,469.00239)" d="M0 0C3.018-8.797-6.319-23.617-15.705-15.799-16.761-14.712-17.392-13.205-17.924-11.765-18.101-11.273-18.269-10.786-16.081-13.607-17.287-10.974-19.165-8.117-18.724-5.064-17.09 .97-15.905 5.13-11.939 7.425-7.374 9.614-.829 5.581 0 0" fill="#ad4b64"/>
<path transform="matrix(1,0,0,-1,501.9064,473.78779)" d="M0 0C4.581-8.407-2.392-20.063-8.637-25.853L-8.631-25.851-8.677-25.903C-8.076-24.923-7.421-23.923-6.949-22.854-8.527-24.704-10.551-26.679-13.23-26.843-33.136-28.421-35.007-8.996-20.044 .337-22.457-.026-24.548-1.619-26.675-2.741-24.199-.25-21.212 2.179-18.03 3.875-12.111 6.909-3.695 5.984 0 0" fill="#ad4b64"/>
<path transform="matrix(1,0,0,-1,604.9698,572.3338)" d="M0 0C3.178-19.677-23.102-26.481-21.888-4.074-20.607 2.862-15.227 10.998-8.456 12.652L-8.452 12.649C-10.308 11.836-12.147 10.018-13.713 7.692-5.551 14.014-1.158 9.54 0 0" fill="#ad4b64"/>
<path transform="matrix(1,0,0,-1,554.7296,660.572)" d="M0 0C.313-4.518 .582-13.276-5.031-15.336-3.27-14.211-2.525-12.421-3.075-11.899-4.188-13.942-6.377-16.76-8.985-15.161-12.101-13.289-14.57-10.284-15.813-6.808-16.632-2.677-15.424 2.819-14.265 4.473-9.899 8.839-.984 6.348 0 0" fill="#ad4b64"/>
<path transform="matrix(1,0,0,-1,487.8348,638.5069)" d="M0 0C-2.129-4.461-5.525-8.034-9.266-11.176-11.502-12.785-16.16-17.407-14.555-13.693-23.86-17.677-33.822-15.833-44.057-19.306-52.006-16.237-41.215-7.978-37.127-6.046-30.227-2.479-22.629 1.002-17.232 6.685L-19.782 6.698-19.779 6.703C-19.777 6.707-19.773 6.704-19.77 6.708-15.718 11.135-12.913 17.314-7.028 19.362 3.077 20.888 3.528 6.329 0 0" fill="#ad4b64"/>
<path transform="matrix(1,0,0,-1,391.0818,599.2799)" d="M0 0C4.038-3.785 .897-10.453-3.079-12.98-8.353-16.556-15.414-15.351-20.247-11.53-25.032-7.636-28.278-2.085-33.587 1.203L-33.588 1.21C-33.87 1.382-34.164 1.551-34.457 1.712-34.291 1.718-34.093 1.694-33.874 1.647-32.973 1.455-31.652 .866-30.249 .108-37.531 9.883-24.825 13.584-17.791 8.937-18.207 9.556-18.677 10.209-19.205 10.897-19.34 11.069-19.688 11.213-19.71 11.37-15.423 9.439-13.942 3.741-9.365 2.272-6.298 1.27-2.634 2.1 0 0" fill="#ad4b64"/>
<path transform="matrix(1,0,0,-1,396.5623,732.2475)" d="M0 0C-1.867-4.169-6.887-5.769-11.106-6.213-16.099-6.957-20.76-3.977-25.622-3.964-28.439-4.73-30.276-7.169-32.415-8.983-36.417-12.481-43.942-15.311-48.04-10.381-51.968-4.355-48.164 3.763-44.652 9.139-44.769 8.848-44.891 8.516-45.02 8.155-45.839 5.837-46.782 2.107-46.967-.749-36.904 12.784-39.817 35.549-22.647 43.82-22.471 35.181-29.236 23.596-20.495 17.13-20.349 16.996-20.2 16.855-20.047 16.723-23.822 22.977-25.402 30.626-21.622 37.085-21.624 37.091-21.621 37.095-21.619 37.1-21.616 37.104-21.614 37.108-21.607 37.11-24.123 29.704-19.997 21.785-14.749 16.711-10.226 11.364 2.394 8.787 0 0" fill="#ad4b64"/>
<path transform="matrix(1,0,0,-1,589.266,499.781)" d="M0 0C5.194 7.667 16.565 .493 11.865-7.505 6.671-15.172-4.7-7.999 0 0" fill="#f5dfa2"/>
<path transform="matrix(1,0,0,-1,477.9779,552.65859)" d="M0 0C5.194 7.667 16.565 .493 11.865-7.505 6.671-15.172-4.7-7.999 0 0" fill="#f5dfa2"/>
<path transform="matrix(1,0,0,-1,519.3114,304.4815)" d="M0 0C5.194 7.667 16.565 .493 11.865-7.505 6.671-15.172-4.7-7.999 0 0" fill="#f5dfa2"/>
<path transform="matrix(1,0,0,-1,375.3245,541.6083)" d="M0 0C5.194 7.667 16.565 .493 11.865-7.505 6.671-15.172-4.7-7.999 0 0" fill="#f5dfa2"/>
<path transform="matrix(1,0,0,-1,516.4255,689.0105)" d="M0 0C5.194 7.667 16.565 .493 11.865-7.505 6.671-15.173-4.703-7.997 0 0" fill="#f5dfa2"/>
<path transform="matrix(1,0,0,-1,324.6529,644.2928)" d="M0 0C5.194 7.667 16.565 .493 11.865-7.505 6.671-15.172-4.7-7.999 0 0" fill="#f5dfa2"/>
<path transform="matrix(1,0,0,-1,649.6724,529.3045)" d="M0 0C5.194 7.667 16.565 .493 11.865-7.505 6.671-15.172-4.7-7.999 0 0" fill="#f5dfa2"/>
<path transform="matrix(1,0,0,-1,590.4233,395.08534)" d="M0 0C.196-.046 .156-.133-.01-.028-.027-.018-.015 .003 0 0" fill="#f5dfa2"/>
<path transform="matrix(1,0,0,-1,587.0922,401.8181)" d="M0 0C5.194 7.667 16.565 .493 11.865-7.505 6.671-15.172-4.7-7.999 0 0" fill="#f5dfa2"/>
<path transform="matrix(1,0,0,-1,674.3712,324.39009)" d="M0 0C5.194 7.667 16.565 .493 11.865-7.505 6.671-15.172-4.7-7.998 0 0" fill="#f5dfa2"/>
<path transform="matrix(1,0,0,-1,626.6908,498.9618)" d="M0 0C-2.692 8.803 10.053 13.233 13.299 4.484 15.991-4.319 3.246-8.749 0 0" fill="#f5dfa2"/>
<path transform="matrix(1,0,0,-1,627.8524,498.8158)" d="M0 0C-2.692 8.803 10.053 13.233 13.299 4.484 15.991-4.319 3.246-8.749 0 0" fill="#f5dfa2"/>
<path transform="matrix(1,0,0,-1,646.6063,392.22969)" d="M0 0C-.012-.067-.189 .047-.251 .01-.242 .009-.253 .006-.26 .004-.302-.055-.278-.13-.273-.223-.267-.232-.265-.239-.268-.243-.26-.258-.244-.274-.242-.286-.176-.348-.102-.365-.042-.367 .008-.339 .088-.374 .009-.413 .016-.422-.04-.461-.043-.43-.432-.535-.566 .322 0 0" fill="#f5dfa2"/>
<path transform="matrix(1,0,0,-1,641.7833,395.49354)" d="M0 0C-2.692 8.803 10.053 13.233 13.299 4.484 15.991-4.319 3.246-8.75 0 0" fill="#f5dfa2"/>
<path transform="matrix(1,0,0,-1,641.5038,396.2079)" d="M0 0C-2.692 8.803 10.053 13.233 13.299 4.484 15.991-4.319 3.246-8.75 0 0" fill="#f5dfa2"/>
<path transform="matrix(1,0,0,-1,642.2667,398.57179)" d="M0 0C-2.692 8.803 10.053 13.233 13.299 4.484 15.991-4.319 3.245-8.749 0 0" fill="#f5dfa2"/>
<path transform="matrix(1,0,0,-1,644.5939,400.22163)" d="M0 0C-2.692 8.803 10.053 13.233 13.299 4.484 15.991-4.319 3.246-8.749 0 0" fill="#f5dfa2"/>
<path transform="matrix(1,0,0,-1,694.5614,349.12629)" d="M0 0C.052 .202 .279 .624 .492 .4 .517 .339 .421 .41 .411 .407 .398 .415 .411 .407 .399 .414 .399 .414 .396 .413 .393 .413 .393 .414 .394 .415 .395 .416 .385 .409 .366 .415 .364 .401 .203 .349 .12 .039 0 0" fill="#f5dfa2"/>
<path transform="matrix(1,0,0,-1,687.4627,358.0849)" d="M0 0C-2.692 8.803 10.053 13.233 13.299 4.484 15.991-4.319 3.246-8.749 0 0" fill="#f5dfa2"/>
<path transform="matrix(1,0,0,-1,688.8705,357.15589)" d="M0 0C-2.692 8.803 10.053 13.233 13.299 4.484 15.991-4.319 3.246-8.749 0 0" fill="#f5dfa2"/>
<path transform="matrix(1,0,0,-1,534.6996,565.84146)" d="M0 0C-2.692 8.803 10.053 13.233 13.299 4.484 15.991-4.319 3.246-8.75 0 0" fill="#f5dfa2"/>
<path transform="matrix(1,0,0,-1,512.2428,640.88796)" d="M0 0C-2.692 8.803 10.054 13.234 13.299 4.484 15.991-4.319 3.246-8.749 0 0" fill="#f5dfa2"/>
<path transform="matrix(1,0,0,-1,540.0168,456.70863)" d="M0 0C-2.692 8.803 10.053 13.234 13.299 4.484 15.991-4.319 3.246-8.749 0 0" fill="#f5dfa2"/>
<path transform="matrix(1,0,0,-1,484.3172,438.66499)" d="M0 0C.04 .022 .076 .035 .124 .041 .213 .028-.061-.071 0 0" fill="#f5dfa2"/>
<path transform="matrix(1,0,0,-1,553.8,314.62489)" d="M0 0C-2.692 8.803 10.053 13.233 13.299 4.484 15.991-4.319 3.246-8.75 0 0" fill="#f5dfa2"/>
<path transform="matrix(1,0,0,-1,487.1771,378.47224)" d="M0 0C-2.692 8.803 10.053 13.233 13.299 4.484 15.991-4.32 3.246-8.749 0 0" fill="#f5dfa2"/>
<path transform="matrix(1,0,0,-1,433.0118,518.8896)" d="M0 0C-2.692 8.803 10.053 13.233 13.299 4.484 15.991-4.319 3.246-8.749 0 0" fill="#f5dfa2"/>
<path transform="matrix(1,0,0,-1,616.6112,272.7495)" d="M0 0C-2.692 8.803 10.053 13.233 13.299 4.484 15.991-4.319 3.246-8.75 0 0" fill="#f5dfa2"/>
<path transform="matrix(1,0,0,-1,431.3151,613.834)" d="M0 0C-2.692 8.803 10.053 13.233 13.299 4.484 15.991-4.319 3.246-8.749 0 0" fill="#f5dfa2"/>
<path transform="matrix(1,0,0,-1,441.2476,725.0083)" d="M0 0C-2.692 8.803 10.053 13.234 13.299 4.484 15.991-4.319 3.246-8.749 0 0" fill="#f5dfa2"/>
<path transform="matrix(1,0,0,-1,597.1425,630.51199)" d="M0 0C-2.692 8.803 10.053 13.234 13.299 4.484 15.991-4.319 3.246-8.749 0 0" fill="#f5dfa2"/>
<path transform="matrix(1,0,0,-1,656.6831,591.1958)" d="M0 0C-2.692 8.803 10.053 13.234 13.299 4.484 15.991-4.319 3.246-8.749 0 0" fill="#f5dfa2"/>
<path transform="matrix(1,0,0,-1,691.3777,526.0989)" d="M0 0C-2.692 8.803 10.053 13.233 13.299 4.484 15.991-4.32 3.245-8.75 0 0" fill="#f5dfa2"/>
<path transform="matrix(1,0,0,-1,443.2919,442.11048)" d="M0 0C-2.692 8.803 10.053 13.233 13.299 4.484 15.991-4.319 3.246-8.749 0 0" fill="#f5dfa2"/>
<path transform="matrix(1,0,0,-1,439.9356,462.4043)" d="M0 0C-2.692 8.804 10.053 13.233 13.299 4.484 15.991-4.319 3.246-8.749 0 0" fill="#f5dfa2"/>
<path transform="matrix(1,0,0,-1,712.4753,454.3734)" d="M0 0C-2.692 8.803 10.054 13.233 13.299 4.484 15.991-4.319 3.246-8.749 0 0" fill="#f5dfa2"/>
<path transform="matrix(1,0,0,-1,480.3616,320.24299)" d="M0 0C-2.692 8.803 10.053 13.234 13.299 4.484 15.991-4.319 3.246-8.749 0 0" fill="#f5dfa2"/>
<path transform="matrix(1,0,0,-1,575.3854,242.93653)" d="M0 0C-2.692 8.803 10.053 13.233 13.299 4.484 15.991-4.319 3.246-8.749 0 0" fill="#f5dfa2"/>
<g opacity=".800003">
<g clip-path="url(#clip_2)">
<path transform="matrix(1,0,0,-1,613.2994,240.30158)" d="M0 0C.038 .976-.108 1.952-.439 2.879 4.637 2.261 9.664 1.266 14.613-.12 18.535-1.053 22.7-2.879 26.43-3.526 15.22 1.889 3.761 7.195-8.711 8.868-41.629 13.835-74.13-1.128-98.993-22.821-109.109-31.384-118.818-39.136-125.325-50.6-134.806-66.943-142.523-84.388-148.403-102.336-153.945-120.809-158.09-139.674-162.887-158.346-169.72-185.966-176.544-213.74-187.429-240.096-190.519-247.211-194.243-254.038-198.606-260.444-202.396-258.216-206.583-260.832-209.51-263.532-232.959-282.572-261.492-295.01-283.338-315.959-290.896-319.969-298.244-324.304-305.148-329.302-298.884-324.733-292.238-320.665-285.42-317.033-290.518-316.091-294.847-319.6-298.668-322.476-305.874-327.947-313.032-333.565-319.283-340.133-323.144-344.213-326.745-348.611-329.774-353.359-326.692-349.153-323.273-345.242-319.604-341.582-336.239-358.442-348.433-381.017-349.17-405.014-349.035-418.558-342.42-432.152-335.087-444.435-333.742-446.718-332.371-448.99-330.972-451.246-332.841-448.31-334.662-445.342-336.347-442.302-333.278-453.414-329.946-464.655-324.042-474.628-321.612-478.483-318.212-482.92-313.236-483.082-306.885-491.017-284.522-507.275-265.954-509.437-292.833-501.092-305.663-488.322-308.304-473.368-308.582-471.45-308.679-469.495-308.822-467.548-308.938-450.616-297.444-431.41-279.367-412.856-255.769-388.876-224.655-375.023-197.445-355.863-175.64-340.411-156.049-321.079-143.05-297.549-93.544-218.779-119.704-33.771-9.328-11.188 21.038-8.163 55.299-19.395 73.677-44.618 59.775-18.115 29.993-1.931 0 0" fill="#d6a5b1"/>
</g>
</g>
<g opacity=".800003">
<g clip-path="url(#clip_3)">
<path transform="matrix(1,0,0,-1,639.8023,243.84308)" d="M0 0C-.024 .004-.049 .011-.073 .015-.056 .007-.039-.001-.022-.01-.012-.008-.004 .005 0 0" fill="#d6a5b1"/>
</g>
</g>
<g opacity=".800003">
<g clip-path="url(#clip_4)">
<path transform="matrix(1,0,0,-1,577.7179,300.1289)" d="M0 0C-4.331-2.446-8.624-5.35-11.701-9.312-20.874-15.007-28.933-27.868-20.163-37.365-6.478-50.285 19.45-42.85 32.707-32.401 38.947-27.507 43.241-19.84 42.841-11.816 40.952 8.514 13.616 9.038 0 0" fill="#d6a5b1"/>
</g>
</g>
<g opacity=".800003">
<g clip-path="url(#clip_5)">
<path transform="matrix(1,0,0,-1,647.8777,276.7461)" d="M0 0C-8.088 1.948-22.741-3.326-17.735-13.698-11.469-22.965 4.226-22.177 11.333-14.309 17.905-5.888 8.275 .788 0 0" fill="#d6a5b1"/>
</g>
</g>
<g opacity=".800003">
<g clip-path="url(#clip_6)">
<path transform="matrix(1,0,0,-1,588.442,426.80073)" d="M0 0C-6.035-4.182-10.54-10.65-12.035-17.866-12.778-21.538-13.329-25.262-14.959-28.678-21.087-41.211-29.639-53.895-28.809-68.423-28.371-73.891-21.368-76.207-18.095-71.685-14.687-64.719-12.544-57.117-9.291-50.047-5.076-40.617 1.609-32.777 5.686-23.228 7.393-19.046 8.804-14.425 8.804-9.869 8.889-7.754 8.174-5.908 8.178-3.859 7.713 .537 3.692 2.89 0 0" fill="#d6a5b1"/>
</g>
</g>
<g opacity=".800003">
<g clip-path="url(#clip_7)">
<path transform="matrix(1,0,0,-1,339.2988,746.5388)" d="M0 0C-9.903 7.428-17.262 17.585-24.809 27.145 13.539-1.631 47.709 3.375 91.918 12.015 194.373 28.968 238.451 110.156 287.408 191.122 326.051 249.104 352.681 314.914 358.121 384.812 361.008 421.893 342.911 452.06 334.993 487.785 353.034 469.041 366.634 450.298 379.112 428.209 411.055 354.454 400.084 260.425 367.08 188.673 314.751 68.254 221.757-44.936 76.998-24.804 50.047-22.436 21.934-16.718 0 0" fill="#4c0f1f"/>
</g>
</g>
<path transform="matrix(1,0,0,-1,330.4947,732.51919)" d="M0 0C181.538-94.014 361.788 126.784 392.353 289.798 411.575 405.896 312.439 561.22 191.513 463.732 109.736 396.242 149.105 287.539 83.546 230.021 67.201 214.999 46.457 206.55 27.572 195.428 8.961 183.711-8.735 170.835-24.695 155.859-76.35 108.434-62.5 29.965 0 0M-8.729-8.601C-77.424 26.443-89.293 117.721-29.071 167.225-6.744 185.925 19.06 200.053 45.971 210.983 71.893 227.933 94.94 250.925 104.352 281.074 120.203 329.611 121.275 383.317 147.13 428.41 251.947 588.079 409.208 477.68 406.157 315.53 394.173 135.05 185.822-115.482-8.729-8.601" fill="#4c0f1f"/>
<path transform="matrix(1,0,0,-1,655.624,483.055)" d="M0 0C-4.196 3.897-6.169 9.697-2.99 14.856-1.592 18.234 2.786 22.511 6.334 21.509 .789 20.738-1.654 13.861-2.843 8.988-3.309 5.765-1.186 2.756 0 0" fill="#4c0f1f"/>
<path transform="matrix(1,0,0,-1,584.6773,574.1471)" d="M0 0C-.995 9.654 15.602 22.948 20.25 9.624 21.686 6.144 20.896 2.106 18.974-.926 19.75 1.479 19.93 4.119 19.312 6.561 15.665 19.677 1.764 7.763 0 0" fill="#4c0f1f"/>
<path transform="matrix(1,0,0,-1,470.7669,497.7052)" d="M0 0C-7.633 9.009 3.27 23.149 11.096 24.256-3.868 14.924-1.997-4.506 17.909-2.927 20.588-2.759 22.612-.788 24.191 1.064 20.226-8.333 5.746-6.885 0 0" fill="#4c0f1f"/>
<path transform="matrix(1,0,0,-1,521.2495,399.46559)" d="M0 0C-3.189 6.71 .942 13.755 .341 20.674-.146 24.838-2.228 28.824-1.326 33.091-.379 37.656 5.254 40.192 9.433 38.492 9.957 38.301 10.97 37.649 10.96 37.111 7.823 39.808 1.913 36.715 1.448 32.843 1.437 27.567 5.135 23.09 4.684 17.707 4.565 11.824 1.033 5.995 3.267 .153 4.389-2.826 8.181-5.02 11.182-3.586 12.352-2.977 13.377-2.006 14.281-1.204 11.393-7.81 2.246-6.248 0 0" fill="#4c0f1f"/>
<path transform="matrix(1,0,0,-1,616.5152,339.51393)" d="M0 0C-4.174 5.024-8.534 11.153-7.652 18.016-7.354 22.207-3.485 26.142 .879 25.351 6.738 24.374 8.727 18.139 12.541 14.546 16.985 9.652 23.964 7.31 26.765 .987 29.973-4.266 29.124-10.337 26.015-15.398 30.591-.867 20.007 2.49 10.317 9.508 6.41 12.212 4.555 16.789 1.184 19.908-3.068 22.59-4.588 15.902-4.071 12.809-3.201 7.602-.885 2.553 1.863-1.887 1.177-1.578 .536-.597 0 0" fill="#4c0f1f"/>
<path transform="matrix(1,0,0,-1,436.7489,660.56387)" d="M0 0C-5.456 6.241 .653 14.662 6.548 17.997 16.688 23.834 29.626 24.948 37.787 34.03 32.732 24.989 22.774 20.569 13.962 16.011 9.871 14.079-.92 5.818 7.028 2.753 19.71 7.049 31.973 3.196 43.082 12.365 36.551 4.118 26.768 1.471 16.841-.069 10.448-1.681 5.705-6.001 0 0" fill="#4c0f1f"/>
<path transform="matrix(1,0,0,-1,540.6902,675.8144)" d="M0 0C-9.045 5.988-4.966 24.594 6.954 21.828 .158 22.37-3.04 14.092-1.775 8.437-.532 4.96 1.938 1.956 5.055 .082 9.131-2.271 12.5 5.421 13.008 8.474 13.496 .399 7.392-7.151 0 0" fill="#4c0f1f"/>
<path transform="matrix(1,0,0,-1,362.9529,603.3363)" d="M0 0C-21.001 15.036 10.222 27.27 14.361 7.589 13.103 9.773 11.61 12.567 9.112 13.765 4.944 15.622-2.372 15.764-4.3 10.782-4.663 5.644 .217 1.088 3.821-2.065 2.56-1.596 1.167-.819 0 0" fill="#4c0f1f"/>
<path transform="matrix(1,0,0,-1,347.378,735.60549)" d="M0 0C7.828 13.111 3.205 30.335 12.416 43.129 15.776 49.469 28.902 59.885 32.552 48.808 33.169 41.356 28.271 34.51 28.073 27.158 29.443 21.416 34.721 17.383 38.828 13.498 35.195 15.231 31.691 17.693 28.69 20.49 19.949 26.954 26.71 38.538 26.538 47.178 8.209 38.35 12.771 13.005 0 0" fill="#4c0f1f"/>
<path transform="matrix(1,0,0,-1,677.6421,426.7296)" d="M0 0C-10.569 10.204 6.609 21.204 13.799 27.322 19.651 33.329 21.585 46.161 32.732 43.519 21.211 43.231 23.071 30.346 16.579 24.323 10.429 17.57-7.369 11.341 0 0" fill="#4c0f1f"/>
<g inkscape:groupmode="layer" inkscape:label="Skupina vrstev">
</g>
<g inkscape:groupmode="layer" inkscape:label="Skupina vrstev">
</g>
<g inkscape:groupmode="layer" inkscape:label="Skupina vrstev">
</g>
<g inkscape:groupmode="layer" inkscape:label="Skupina vrstev">
</g>
</g>
</g>
</g>
</svg>
