<svg xmlns="http://www.w3.org/2000/svg" xmlns:xlink="http://www.w3.org/1999/xlink" xmlns:inkscape="http://www.inkscape.org/namespaces/inkscape" version="1.1" width="1000" height="1000" viewBox="0 0 1000 1000">
<defs>
<clipPath id="clip_1">
<path transform="matrix(1,0,0,-1,0,1000)" d="M0 1000H1000V0H0Z"/>
</clipPath>
</defs>
<g>
<g inkscape:groupmode="layer" inkscape:label="Vrstva 50">
</g>
<g inkscape:groupmode="layer" inkscape:label="Skupina vrstev">
</g>
<g inkscape:groupmode="layer" inkscape:label="Skupina vrstev">
</g>
<g inkscape:groupmode="layer" inkscape:label="Skupina vrstev">
</g>
<g inkscape:groupmode="layer" inkscape:label="Skupina vrstev">
</g>
<g inkscape:groupmode="layer" inkscape:label="Skupina vrstev">
</g>
<g inkscape:groupmode="layer" inkscape:label="Skupina vrstev">
</g>
<g inkscape:groupmode="layer" inkscape:label="Skupina vrstev">
</g>
<g inkscape:groupmode="layer" inkscape:label="Skupina vrstev">
<g clip-path="url(#clip_1)">
<path transform="matrix(1,0,0,-1,437.106,614.1457)" d="M0 0C8.316-37.584-20.891-69.233-56.481-74.761-70.899-77.176-86.075-75.216-99.305-68.99-201.476-14.089-128.448 130.13-55.695 179.169-56.595 208.372-51.248 239.578-31.01 261.863-24.1 268.97-14.062 284.909-3.858 288.671 3.626 289.603 2.777 280.671-1.917 277.543-7.954 271.685-13.832 265.645-19.178 259.291-39.021 236.588-45.645 211.52-44.718 181.695-42.405 179.98-42.915 176.396-44.444 174.311-41.147 122.115-26.612 70.87-7.192 22.535-4.252 15.21-1.554 7.752 0 0M-9.918-16.193C-8.37 1.438-17.776 17.69-23.621 33.782-26.946 43.118-30.13 52.512-33.124 61.961-43.803 95.717-52.036 130.424-54.933 165.772V165.777C-88.793 139.805-115.556 104.159-129.309 63.637-138.549 36.321-143.269 5.308-131.155-21.892-120.3-45.576-95.239-65.284-68.427-64.692-41.044-64.849-11.323-45.343-9.918-16.193" fill="#4c0f1f"/>
<path transform="matrix(1,0,0,-1,355.1089,715.3321)" d="M0 0C-.389-20.197-.696-36.952-10.106-52.618-17.15-63.748-28.013-70.549-43.538-67.592-109.445-46.199-101.198 60.427-64.258 104.926-60.014 108.812-53.627 106.543-54.87 100.656-55.235 98.365-56.91 96.61-58.276 94.811-60.167 92.2-61.971 89.524-63.653 86.77-85.122 48.144-91.749-13.355-58.509-47.229-46.578-59.623-26.397-61.54-18.449-45.44-11.199-30.795-11.198-13.66-10.969 2.37-11.174 8.973-11.791 15.581-13.572 21.964-14.423 25.88-16.881 29.25-17.503 33.202-18.001 36.869-15.102 40.23-11.316 38.76-.794 32.88-.395 11.206 0 0" fill="#4c0f1f"/>
<path transform="matrix(1,0,0,-1,535.1965,602.3465)" d="M0 0C14.841-32.453 29.083-67.559 26.413-103.898 13.063-207.003-76.664-220.885-105.716-115.515-110.435-98.907-112.67-81.742-112.597-64.505-112.385-47.523-110.601-33.316-94.318-24.352-71.104-11.056-41.441-30.703-26.184-48.371-18.146-57.611-12.05-68.343-7.288-79.578-5.565-82.953-3.38-86.218-2.58-89.971-1.56-93.968-4.31-98.777-8.786-97.131-11.738-95.862-13.54-92.788-14.512-89.852-25.571-62.721-47.592-31.704-79.582-31.248-88.328-31.521-95.802-37.143-99.286-45.138-100.049-49.007-100.606-52.924-100.99-56.851-102.039-67.873-101.648-79.017-100.104-89.976-95.884-118.346-82.074-157.772-56.153-172.896-30.082-187.494-6.353-165.061 4.466-141.964 12.816-125.336 16.598-106.585 15.498-88.017 15.503-88.012 15.503-88.012 15.498-88.007 11.631-34.992-19.808 10.122-40.225 57.769-46.062 71.47-51.082 85.494-55.971 99.556-71.273 148.45-95.806 194.899-102.866 246.054-107.08 281.2-104.177 318.706-84.985 349.208-79.601 358.332-59.093 386.565-49.6 385.524-42.49 384.054-46.349 376.223-50.575 373.615-119.075 314.545-91.7 218.63-61.089 146.909-50.362 119.342-42.111 89.93-30.398 62.888-21.316 41.426-10.101 20.982 0 0" fill="#4c0f1f"/>
<path transform="matrix(1,0,0,-1,444.0565,739.84426)" d="M0 0C4.061-3.092 3.574-9.905-1.945-10.064-4.755-10.261-6.999-8.52-9.247-7.114-12.423-5.372-15.861-4.124-19.275-2.95-44.084 5.502-74.146 .784-91.957-19.316-97.106-23.079-102.207-37.758-109.606-32.444-112.908-28.251-109.408-22.875-106.465-18.946-94.088-4.497-83.148 4.303-65.87 9.243-45.897 14.943-17.273 11.899 0 0" fill="#4c0f1f"/>
<path transform="matrix(1,0,0,-1,415.0649,839.0051)" d="M0 0C-33.059 2.539-86.268 10.347-86.947 52.555-86.195 58.258-85.862 65.441-81.221 69.409-74.937 73.732-71.647 65.612-74.221 60.587-90.243 6.494 30.999 2.818 61.435 20.136 86.042 29.879 102.532 53.106 112.603 76.609 114.459 80.473 114.66 85.294 117.754 88.428 120.207 91.012 124.751 90.375 125.855 86.785 127.513 82.414 124.534 77.993 123.325 73.853 101.406 18.751 57.985-4.042 0 0" fill="#4c0f1f"/>
<path transform="matrix(1,0,0,-1,532.7413,763.3621)" d="M0 0C-6.632 6.147 4.562 14.2 7.95 19.279 18.912 31.89 30.495 43.995 40.271 57.589 100.992 135.079 30.386 224.664-2.695 297.905-30.673 359.407-67.552 433.218-66.229 501.729-64.536 526.039-53.929 550.352-32.736 563.654-26.583 567.276-6.74 581.485-1.228 579.088 4.441 577.499 2.45 571.044-1.693 568.932-7.561 566.03-13.263 562.795-18.875 559.422-27.877 554.045-36.579 547.751-42.799 539.186-83.197 482.217-13.128 347.209 13.672 289.412 52.487 209.719 112.65 126.797 44.048 44.362 33.744 30.799 21.519 18.855 10.887 5.557 8.456 2.088 4.62-2.467 0 0" fill="#4c0f1f"/>
<path transform="matrix(1,0,0,-1,597.1586,384.06404)" d="M0 0C22.905-47.639 48.391-96.884 50.858-150.67 72.52-131.484 90.208-102.189 90.816-72.709 89.602-45.654 74.857-22.19 64.403 1.858 54.865 23.072 47.716 45.494 44.736 68.605 41.335 90.222 41.718 112.182 42.544 133.981 43.007 158.803 49.928 192.605 22.741 205.936 4.109 215.288-18.035 213.17-37.625 208.134-56.344 203.543-62.289 194.613-58.64 175.568-46.773 115.035-27.073 55.452 0 0M4.264-244.848C3.163-239.395 8.92-236.738 11.926-233.264 43.889-200.224 45.022-150.124 32.96-108.16 18.972-56.49-9.425-10.653-29.555 38.562-43.978 76.791-56.726 115.863-66.103 155.649-69.716 173.967-76.894 198.678-58.272 211.186-33.292 225.508 8.008 229.039 32.759 212.733 64.729 191.908 52.221 149.311 53.083 117.319 52.48 96.305 54.053 74.831 58.319 54.431 65.953 6.081 108.029-37.508 100.798-86.292 95.702-113.352 75.146-149.858 50.903-163.519 50.657-181.696 46.254-199.735 37.64-215.775 34.092-222.644 12.316-258.661 4.264-244.848" fill="#4c0f1f"/>
<path transform="matrix(1,0,0,-1,700.2267,444.69459)" d="M0 0C-3.439 .399-5.251 4.046-3.394 6.996 .131 11.962 6.013 13.79 9.784 18.602 19.366 28.574 23.878 42.221 25.685 55.697 27.734 70.596 25.145 84.222 22.714 98.684 20.295 116.687 22.334 135 19.655 152.996 13.541 184.673-1.861 237.081-41.166 237.284-44.904 237.513-48.723 235.361-52.294 237.099-54.799 238.047-55.882 241.161-54.546 243.483-51.776 248.717-44.85 248.015-39.773 248.301 7.819 246.567 26.384 186.052 31.48 146.63 32.92 131.501 31.611 115.696 33.53 100.706 38.916 74.465 40.087 45.668 26.065 21.79 21.025 14.2 9.697-.478 0 0" fill="#4c0f1f"/>
<path transform="matrix(1,0,0,-1,295.3379,627.3242)" d="M0 0C-6.592 3.524-2.723 11.866-.753 17.147 3.392 27.989 11.855 36.438 21.184 43.033 26.083 48.146 68.121 66.342 64.208 49.782 60.709 43.772 51.976 45.545 46.224 43.109 1.761 29.084 11.915-2.895 0 0" fill="#4c0f1f"/>
<path transform="matrix(1,0,0,-1,430.74,629.6118)" d="M0 0C-4.737 2.299-4.374 8.204-5.918 12.545-12.029 34.037-16.741 38.756-34.101 51.166-36.422 54.167-34.794 58.473-30.918 58.802-20.83 58.682-12.16 48.377-6.31 40.974 .088 31.916 3.24 21.062 6.022 10.452 8.133 6.094 6.154-2.442 0 0" fill="#4c0f1f"/>
<path transform="matrix(1,0,0,-1,267.7846,674.67947)" d="M0 0C-4.235 2.898-2.265 8.836 .589 12.028 4.411 16.178 8.782 23.188 15.256 21.823 17.339 21.326 18.647 19.318 18.494 17.22 18.44 13.026 14.263 10.962 11.773 8.199 8.431 4.987 5.824-2.48 0 0" fill="#4c0f1f"/>
<path transform="matrix(1,0,0,-1,432.5609,835.9918)" d="M0 0C-7.146 4.031 .566 10.311 5.68 11.31 12.277 14.38 18.471 18.652 22.862 24.525 26.144 28.888 27.577 34.188 27.773 39.586 27.082 44.586 32.504 51.468 37.078 46.44 39.505 43.769 38.926 40.143 38.585 36.851 38.091 24.829 30.648 14.411 21.106 7.57 14.999 3.91 7.46-2.545 0 0" fill="#4c0f1f"/>
<path transform="matrix(1,0,0,-1,341.539,693.3706)" d="M0 0C4.518-18.021 3.459-48.363-3.942-65.409-5.567-67.518-6.914-69.655-7.695-71.683-17.417-83.596-34.221-79.911-44.943-69.19-68.533-45.76-71.168-9.315-64.916 23.206-63.93 24.562-62.989 25.919-61.98 26.891-59.491 29.654-55.313 31.718-55.263 35.91-54.951 38.909-57.803 41.095-60.638 40.668-59.802 43.476-58.907 46.221-57.966 48.892-55.866 54.454-53.176 59.755-50.08 64.81-42.897 41.248-25.819 20.471-3.732 10.233-2.9 6.708-.782 3.585 0 0" fill="#981e3d"/>
<path transform="matrix(1,0,0,-1,544.6733,657.42007)" d="M0 0C9.233-29.706 9.309-64.976-8.156-91.583-9.485-91.578-10.846-92.094-11.855-93.158-15.124-96.575-15.299-101.8-17.392-105.926-76.26-168.061-123.443-40.519-108.762 9.932-98.401 32.042-72.998 24.015-57.619 12.133-41.308 .836-31.81-17.06-23.988-34.777-22.691-39.015-18.421-44.759-13.636-41.321-8.384-35.531-16.312-27.124-18.261-21.092-27.618 .019-43.134 18.827-64.185 28.992-77.228 35.586-93.682 38.376-106.241 29.229-105.79 51.678-118.575 71.608-125.069 92.492-138.179 133.078-149.905 174.737-152.01 217.587-150.476 219.679-149.973 223.254-152.284 224.967-153.106 267.05-141.635 288.681-113.707 316.659-111.893 275.213-95.349 236.617-80.953 198.299-68.336 165.33-58.856 131.169-43.577 99.255-28.18 66.56-9.599 35.106 0 0" fill="#981e3d"/>
<path transform="matrix(1,0,0,-1,630.1176,492.2224)" d="M0 0C12.37-42.813 10.791-94.71-23.284-127.287-37.23-24.464-196.294 165.009-140.177 268.045-130.952 280.63-116.832 288.186-103.436 295.558-103.893 285.023-100.975 273.52-99.062 263.808-89.687 224.021-76.938 184.951-62.513 146.722-42.384 97.505-13.986 51.668 0 0" fill="#981e3d"/>
<path transform="matrix(1,0,0,-1,722.9386,346.01234)" d="M0 0C5.437-26.688 6.974-58.62-12.927-80.08-16.774-85.085-23.176-86.843-26.43-92.286-29.224-80.66-33.978-69.354-38.812-58.517-61.266-14.974-75.253 29.47-72.696 79.268-73.185 97.318-69.413 118.748-71.782 137.736-27.169 145.775-9.629 88.584-3.059 54.312-.379 36.316-2.415 18.005 0 0" fill="#981e3d"/>
<path transform="matrix(1,0,0,-1,424.5033,694.6509)" d="M0 0C.055-.356 .11-.717 .164-1.078-14.005-13.078-29.809-22.909-44.947-33.604-46.855-34.766-48.464-36.543-50.586-37.275-55.173-38.849-59.606-40.886-63.764-43.385-46.597-23.428-22.792-12.035 0 0" fill="#981e3d"/>
<path transform="matrix(1,0,0,-1,486.7303,790.19119)" d="M0 0C10.229-1.598 19.485-.164 27.718 3.461 18.206-10.48 5.635-22.361-10.229-28.677-16.279-31.202-22.521-33.298-28.887-34.878-21.425-28.193-16.005-19.151-15.585-8.95-15.243-5.658-14.663-2.032-17.092 .639-21.667 5.667-27.088-1.215-26.398-6.215-26.266-19.555-37.118-29.396-48.49-34.49-50.719-34.928-53.436-36.362-55.207-38.179-85.45-38.389-158.59-31.974-145.886 11.772-144.991 13.516-144.804 15.635-145.205 17.475-125.264 50.579-87.02 59.883-52.81 43.732-50.188 42.324-47.796 40.046-44.613 40.284-34.444 21.288-19.882 5.58 0 0" fill="#f5dfa2"/>
<path transform="matrix(1,0,0,-1,427.3536,626.117)" d="M0 0C.886-31.327-29.402-52.796-58.673-52.719-90.16-53.151-118.441-27.183-125.725 2.62-121.816 16.717-112.04 33.89-85.793 41.901-80.039 44.339-71.308 42.567-67.806 48.577-63.892 65.134-105.935 46.937-110.83 41.828-117.725 36.951-124.145 31.065-128.698 23.95-128.844 28.85-128.634 33.763-128.109 38.622-121.136 93.939-89.08 144.109-45.179 177.745-41.618 134.273-29.987 91.761-15.608 50.686-19.256 53.39-23.27 55.257-27.53 55.307-31.407 54.979-33.037 50.673-30.714 47.672-9.863 34.004-6.36 24.16 0 0" fill="#f5dfa2"/>
<path transform="matrix(1,0,0,-1,596.2134,620.81118)" d="M0 0C4.671-29.713-4.977-61.23-23.202-84.962-27.659-91.163-32.494-97.049-37.471-102.821-22.473-36.28-66.73 22.997-91.414 81.354-103.127 108.396-111.383 137.804-122.103 165.376-149.16 230.793-176.596 314.372-127.087 375.871-139.373 301.643-95.117 221.926-66.167 155.352-42.741 104.168-9.599 56.568 0 0" fill="#f5dfa2"/>
<path transform="matrix(1,0,0,-1,661.5626,382.20509)" d="M0 0C10.452-24.046 25.197-47.513 26.412-74.569 25.805-104.049 8.114-133.342-13.544-152.53-16.014-98.743-41.499-49.499-64.406-1.859-91.478 53.59-111.175 113.177-123.041 173.709-126.694 192.755-120.748 201.683-102.031 206.276-82.441 211.313-60.294 213.432-41.662 204.075 4.543 181.952-48.109 100.234 0 0" fill="#f5dfa2"/>
<path transform="matrix(1,0,0,-1,428.2204,692.6006)" d="M0 0C-24.561-22.073-55.404-36.54-78.624-60.344H-78.619C-78.624-60.344-78.624-60.349-78.624-60.349-78.624-60.367-78.651-60.367-78.651-60.349-71.301-47.954-60.464-37.659-49.454-28.567-34.078-17.113-16.61-9.306 0 0" fill="#4c0f1f"/>
<path transform="matrix(1,0,0,-1,435.1612,734.80288)" d="M0 0V-.005C0-.005 0-.005 0-.005-18.933 7.629-40.723 9.595-60.285 3.196-43.75 15.235-26.13 25.832-10.493 39.074-8.397 25.779-4.949 12.554 0 0" fill="#aaa56e"/>
<path transform="matrix(1,0,0,-1,424.3755,693.7833)" d="M0 0C.041-.288 .082-.575 .128-.868-15.338-9.302-31.38-16.781-45.609-27.384-51.883-32.563-58.093-38.134-63.628-44.243-66.188-45.786-68.659-47.493-70.989-49.372-69.095-34.337-67.654-10.832-72.71 5.818-47.589-.181-19.413 7.966-1.776 26.932-1.753 17.937-1.255 8.911 0 0" fill="#bf7070"/>
<path transform="matrix(1,0,0,-1,559.9528,730.1196)" d="M0 0C29.368 40.341 31.823 83.005 12.996 128.471-2.87 168.677-22.326 207.547-34.561 249.054-19.582 218.519-3.697 188.455 12.06 158.329 40.394 102.24 46.9 48.176 0 0" fill="#b8a77a"/>
<path transform="matrix(1,0,0,-1,616.1393,621.6031)" d="M0 0C40.61 66.939 4.716 101.897-13.473 170.065-16.469 180.776-19.257 191.555-22.793 202.103-25.432 211.32-30.612 222.83-31.633 232.383-30.973 228.447-25.871 226.261-24.101 222.717-18.416 212.559-12.397 199.632-8.107 188.808 18.828 118.915 54.856 65.508 0 0" fill="#4c0f1f"/>
<path transform="matrix(1,0,0,-1,666.2141,517.46487)" d="M0 0C20.317 39.749-3.595 81.755-16.361 119.849-23.298 141.518-26.914 164.039-30.343 186.486-36.494 230.698-34.82 217.061-25.068 184.481-18.508 161.636-12.175 137.424-3.671 115.566 10.547 79.449 25.425 34.639 .032 .009 .033 .005 .033 0 .028-.005 .024-.023 .001-.018 0 0" fill="#b8a77a"/>
<path transform="matrix(1,0,0,-1,700.2267,444.69459)" d="M0 0C6.024 15.684 6.266 7.799 9.128 24.4 14.987 76.361-22.007 126.971-1.98 178.547-11.767 96.92 49.621 59.971 0 0" fill="#4c0f1f"/>
<path transform="matrix(1,0,0,-1,492.8638,770.2231)" d="M0 0C-13.921-.235-26.939 8.246-33.316 20.466-33.949 21.72-34.86 23.155-35.065 24.462-21.564 .133 16.746-.989 27.343 26.366 33.58 41.965 30.496 59.355 24.846 74.622 15.897 100.868-3.849 120.06-25.914 135.68-16.52 130.906-7.418 125.523 1.32 119.634 24.531 102.153 41.264 73.53 41.471 44.125 41.223 21.411 24.537-1.946 0 0" fill="#4c0f1f"/>
<path transform="matrix(1,0,0,-1,520.4406,760.9405)" d="M0 0C37.459 35.278 14.4 95.837-.444 137.028-14.642 175.985-34.885 212.601-46.792 252.397-37.68 232.923-26.817 214.268-16.362 195.454 11.111 145.883 58.903 42.201 .009 .082 .008 .082 .013 .087 .013 .087 0 .06 .053-.017 0 0" fill="#4c0f1f"/>
<path transform="matrix(1,0,0,-1,373.4266,815.10366)" d="M0 0C-7.225 2.094-19.414 6.786-21.407 14.279-12.137 1.511 13.733 3.447 27.955 4.441 72.72 6.828 101.935 43.485 47.239 63.875 119.732 49.914 76.951-20.757 0 0" fill="#b8a77a"/>
<path transform="matrix(1,0,0,-1,466.8063,813.9203)" d="M0 0C-.009 .005-.014 .014-.009 .023-.009 .027-.005 .032 0 .032 .005 .043 .014 .041 .019 .034 24.582 6.044 41.957 26.228 61.491 40.992 46.475 21.443 26.704-.242 0 0" fill="#b8a77a"/>
<path transform="matrix(1,0,0,-1,349.7706,745.3179)" d="M0 0C21.98 25.416 51.454 44.392 82.779 56.167 55.401 37.204 27.142 19.081 0 0" fill="#4c0f1f"/>
<path transform="matrix(1,0,0,-1,307.3476,767.9152)" d="M0 0C-20.97 10.267-25.83 37.189-26.485 58.281-23.352 44.863-18.95 31.566-11.319 20.067 1.373 2.118 16.486 2.215 23.474 24.283 26.421 38.325 24.974 52.932 23.947 67.112 26.646 59.853 29.375 46.295 30.38 36.609 33.531 18.774 21.559-7.855 0 0" fill="#4c0f1f"/>
<path transform="matrix(1,0,0,-1,365.3679,679.2934)" d="M0 0C-18.74 1.482-37.702 14.665-42.718 33.092-32.956 14.181-8.04 3.056 12.422 9.911 42.765 22.307 52.998 51.254 32.421 78.016 44.404 67.406 52.859 50.28 47.559 34.293 41.626 14.225 21.283-1.767 0 0" fill="#b8a77a"/>
<path transform="matrix(1,0,0,-1,386.8104,563.3272)" d="M0 0C-6.587 2.06-12.931 6.042-19.567 7.361-12.098 7.55-3.979 4.091 3.63 3.216 8.698 2.157 4.35 12.207 4.277 14.844-3.359 45.039-12.165 77.436-4.243 108.414-5.53 81.524 3.656 55.615 8.457 29.456 9.638 20.426 18.399-7.722 0 0" fill="#b8a77a"/>
<path transform="matrix(1,0,0,-1,554.5957,736.331)" d="M0 0C2.299 24.571 4.625 49.881-.898 74.168-10.634 112.208-30.733 146.456-49.061 180.832-68.01 217.73-70.277 260.33-83.812 299.051-63.804 261.163-57.757 217.512-36.352 180.285-1.392 118.14 22.265 72.442 0 0" fill="#b8a77a"/>
<path transform="matrix(1,0,0,-1,528.386,644.6022)" d="M0 0C-17.582 62.16-56.082 116.386-74.055 178.608-86.49 218.273-90.306 259.87-94.531 301.032-81.091 247.439-70.437 192.719-48.775 141.602-30.043 95.592-5.302 49.943 0 0" fill="#4c0f1f"/>
<path transform="matrix(1,0,0,-1,634.4512,566.9249)" d="M0 0C-4.277 31.042-1.81 63.526-12.744 93.337-46.389 184.572-112.914 268.026-110.975 369.151-98.433 283.265-50.99 208.359-16.157 130.328 8.178 80.536 2.039 52.104 0 0" fill="#4c0f1f"/>
<path transform="matrix(1,0,0,-1,684.1542,483.28834)" d="M0 0C0 .009 .003 .008 .008 .01 10.086 33.139-19.76 72.388-30.786 103.456-39.746 125.102-46.685 147.687-50.052 170.905-53.456 193.535-53.092 216.588-50.161 239.245-48.991 249.078-46.975 258.892-47.405 268.836-48.825 280.46-51.142 292.127-53.888 303.444-49.664 293.686-46.44 283.452-43.553 273.224-39.393 255.294-43.477 236.664-42.668 218.455-42.384 187.895-38.316 157.202-28.34 128.236-20.824 106.32-11.992 84.898-4.068 63.134 3.209 43.422 9.738 19.833 0 0" fill="#b8a77a"/>
<path transform="matrix(1,0,0,-1,726.6378,403.1999)" d="M0 0C-3.269 8.26-2.563 17.935-3.233 26.759-3.603 63.104-7.654 98.547-19.279 132.987-25.362 154.431-34.974 179.21-57.547 187.602-63.295 189.831-69.741 190.28-75.267 192.837-68.642 191.2-61.696 191.748-55.041 190.039-18.057 180.126-4.942 127.738 1.234 94.519 4.936 71.39 2.938 47.876 .653 24.704 .208 16.596-1.683 7.874 0 0" fill="#4c0f1f"/>
<path transform="matrix(1,0,0,-1,688.0865,464.2032)" d="M0 0C28.425 45.762-43.903 93.727-44.725 161.955-47.149 193.35-40.083 225.334-37.574 256.652-35.03 220.03-40.097 182.775-32.028 146.61-25.979 117.154-10.078 91.28 2.059 64.121 11.999 44.203 15.538 17.933 0 0" fill="#4c0f1f"/>
<path transform="matrix(1,0,0,-1,548.9309,583.08499)" d="M0 0C-24.209 39.699-46.605 80.497-65.93 122.808-93.223 179.72-123.111 249.233-93.525 310.663-112.417 249.189-81.177 181.915-55.541 126.598-36.199 84.811-17.772 42.383 0 0" fill="#f9ecc7"/>
<path transform="matrix(1,0,0,-1,611.2592,544.2438)" d="M0 0C-46.503 80.547-140.439 232.555-100.665 325.276-109.256 300.705-103.424 271.652-98.763 246.561-80.39 159.118-31.592 82.636 0 0" fill="#c1788b"/>
<path transform="matrix(1,0,0,-1,649.0215,469.9029)" d="M0 0C-30.599 72.708-107.223 190.725-72.711 268.238-70.874 271.476-68.126 274.379-64.565 275.663-68.719 273.402-71.041 268.724-72.443 264.361-86.116 209.302-49.559 138.078-29.787 87.173-19.002 58.45-9.235 29.172 0 0" fill="#f9ecc7"/>
<path transform="matrix(1,0,0,-1,699.0958,389.2204)" d="M0 0C-22.943 44.975-47.81 95.058-35.12 146.758-35.222 146.347-35.235 145.859-35.281 145.425-35.779 94.698-12.291 48.173 0 0" fill="#c1788b"/>
<path transform="matrix(1,0,0,-1,462.1735,612.5213)" d="M0 0C-34.024 68.453-68.826 147.04-47.59 224.515-47.11 225.588-46.826 227.27-45.892 227.798-47.91 223.382-47.639 217.771-48.244 213.048-50.317 139.307-20.449 69.516 0 0" fill="#c1788b"/>
<path transform="matrix(1,0,0,-1,506.1953,729.93618)" d="M0 0C-6.844 20.052-13.868 40.793-27.653 57.264-51.461 85.006-68.745 64.934-64.5 35.467V35.471C-64.5 35.47-64.499 35.468-64.498 35.465-83.197 95.136-8.981 98.662 0 0" fill="#c1788b"/>
<path transform="matrix(1,0,0,-1,349.848,640.219)" d="M0 0C-19.653 9.321-17.006 37.935 6.169 39.916 22.631 41.068 38.112 25.121 49.485 14.64 45.055 17.48 40.316 20.307 35.622 22.878 27.283 27.182 19.354 33.248 9.626 33.536-1.122 34.406-11.573 24.837-7.968 13.776-6.701 8.545-2.779-.11 3.31 .051 2.954-.871 .881-.342 0 0" fill="#f9ecc7"/>
<path transform="matrix(1,0,0,-1,319.1742,563.4291)" d="M0 0C.944 39.926 27.386 74.954 55.706 101.021 39.43 78.361 24.735 54.458 11.549 29.873 6.483 19.923 1.684 9.569 .28-1.553 .287-1.55 .295-1.6 .313-1.608H.316C.186-1.802-.009-.122 0 0" fill="#f9ecc7"/>
<path transform="matrix(1,0,0,-1,325.0589,738.9488)" d="M0 0C-3.611 13.652-8.225 27.247-12.494 40.647-15.208 47.24-16.49 55.544-22.294 60.155-22.254 60.134-22.213 60.114-22.172 60.094-22.092 60.041-22.011 59.987-21.932 59.933-22.835 60.544-23.966 60.789-24.513 60.441-35.072 51.457-31.438 22.15-26.819 10.312-35.101 23.4-38.952 41.106-35.439 56.508-32.439 69.225-19.326 72.922-12.466 60.769-7.181 51.108-5.633 39.864-3.507 29.184-1.828 19.584-.276 9.675 0 0" fill="#c1788b"/>
<path transform="matrix(1,0,0,-1,283.6607,651.3037)" d="M0 0C1.327 10.754 7.091 21.618 15.334 28.631 9.453 19.62 4.191 9.852 .057-.026 .125-.065 .017-.082 0 0" fill="#c1788b"/>
<path transform="matrix(1,0,0,-1,382.0844,800.6065)" d="M0 0C12.185 3.051 25.505 7.85 34.536 16.973 42.177 28.706 30.902 42.261 18.54 43.452 3.698 45.602-19.317 45.116-30.066 33.455-20.508 50.275 17.398 56.593 33.439 46.276 43.831 40.166 47.898 24.92 40.988 14.813 32.295 4.037 13.276 .376 0 0" fill="#f9ecc7"/>
<path transform="matrix(1,0,0,-1,368.6789,678.83718)" d="M0 0C27.734 .096 56.825 18.981 58.508 48.498 60.06 66.129 50.652 82.383 44.805 98.475 29.631 141.075 17.198 185.252 13.492 230.467-40.257 189.562-93.068 102.556-59.162 35.665-46.406 15.679-24.534-.659 0 0M-2.511-11.026C-45.564-9.917-79.709 30.625-80.899 72.388-82.32 140.698-40.997 204.352 12.73 243.859 11.832 273.063 17.177 304.268 37.416 326.553 44.08 333.673 55.834 350.764 64.568 353.361 72.055 354.296 71.206 345.361 66.51 342.237 35.515 312.166 22.847 290.528 23.71 246.386 26.021 244.673 25.518 241.097 23.982 239.003 26.089 196.153 37.816 154.495 50.925 113.91 57.415 93.037 70.193 73.118 69.755 50.685 69.089 13.068 33.077-12.197-2.511-11.026" fill="#4c0f1f"/>
<path transform="matrix(1,0,0,-1,311.5714,782.925)" d="M0 0C-65.907 21.389-57.661 128.024-20.72 172.519-16.709 176.233-10.157 174.477-11.332 168.25-11.699 165.946-13.374 164.205-14.739 162.406-20.111 154.993-24.758 147.029-27.997 138.444-41.06 101.36-45.079 50.266-14.974 20.363-3.13 8.518 16.148 5.258 25.09 22.151 32.341 36.81 32.342 53.93 32.568 69.962 32.362 76.567 31.748 83.172 29.967 89.556 29.112 93.475 26.658 96.845 26.035 100.795 25.538 104.461 28.438 107.824 32.223 106.353 45.947 99.802 44.182 57.248 42.222 43.853 40.559 20.431 27.326-5.295 0 0" fill="#4c0f1f"/>
<path transform="matrix(1,0,0,-1,486.7289,790.1892)" d="M0 0C-40.272 11.305-58.733 64.156-63.057 101.794-64.527 125.756-68.745 154.456-41.846 165.454-9.032 177.536 28.397 139.934 39.683 111.676 41.635 105.646 49.562 97.238 44.308 91.447 39.525 88.008 35.254 93.753 33.956 97.99 26.135 115.711 16.635 133.604 .326 144.901-15.055 156.784-40.459 164.814-50.818 142.703-57.419 109.246-49.297 70.98-32.514 41.524-2.993-8.675 37.79 6.088 56.873 54.842 66.909 79.737 65.832 107.442 57.945 132.768 48.344 167.874 29.764 199.327 14.367 232.022-.911 263.939-10.393 298.101-23.008 331.067-48.937 395.156-75.57 472.715-36.517 537.051-31.132 546.175-10.627 574.408-1.132 573.367 5.977 571.896 2.119 564.064-2.108 561.457-32.355 535.181-46.823 496.396-44.943 456.768-44.748 413.99-27.396 374.137-12.621 334.752-1.897 307.183 6.357 277.775 18.07 250.731 40.976 197.073 78.5 144.783 74.88 83.943 71.587 45.535 45.399-7.1 0 0" fill="#4c0f1f"/>
<path transform="matrix(1,0,0,-1,334.4516,772.2881)" d="M0 0C-6.331 7.518 11.575 22.487 16.874 27.407 41.981 49.165 81.981 49.701 109.607 32.444 113.863 29.201 113.12 21.861 106.812 22.402 103.968 22.503 101.876 24.586 99.469 25.83 72.502 38.642 38.381 36.054 17.647 13.129 12.781 9.492 6.914-5.513 0 0" fill="#4c0f1f"/>
<path transform="matrix(1,0,0,-1,415.0648,839.0051)" d="M0 0C-33.059 2.539-86.268 10.347-86.947 52.555-86.195 58.258-85.862 65.441-81.221 69.409-74.937 73.732-71.647 65.612-74.221 60.587-90.243 6.494 30.999 2.818 61.435 20.136 86.042 29.879 102.532 53.106 112.603 76.609 114.459 80.473 114.66 85.294 117.754 88.428 120.207 91.012 124.751 90.375 125.855 86.785 127.513 82.414 124.534 77.993 123.325 73.853 101.406 18.751 57.985-4.042 0 0" fill="#4c0f1f"/>
<path transform="matrix(1,0,0,-1,532.7411,763.3621)" d="M0 0C-6.632 6.147 4.562 14.2 7.951 19.279 18.912 31.89 30.495 43.995 40.271 57.589 100.992 135.079 30.386 224.664-2.695 297.905-30.673 359.407-67.552 433.218-66.229 501.729-64.536 526.039-53.929 550.352-32.736 563.654-26.583 567.276-6.74 581.485-1.228 579.088 4.441 577.499 2.45 571.044-1.693 568.932-7.56 566.03-13.263 562.795-18.875 559.422-27.877 554.045-36.579 547.751-42.799 539.186-83.197 482.217-13.128 347.209 13.672 289.412 52.487 209.719 112.65 126.797 44.048 44.362 33.744 30.799 21.519 18.855 10.887 5.557 8.456 2.088 4.62-2.467 0 0" fill="#4c0f1f"/>
<path transform="matrix(1,0,0,-1,597.1585,384.06404)" d="M0 0C22.905-47.639 48.391-96.884 50.858-150.67 72.52-131.484 90.208-102.189 90.816-72.709 89.602-45.654 74.857-22.19 64.403 1.858 54.865 23.072 47.716 45.494 44.736 68.605 41.335 90.222 41.718 112.182 42.544 133.981 43.007 158.803 49.928 192.605 22.741 205.936 4.109 215.288-18.035 213.17-37.625 208.134-56.344 203.543-62.289 194.613-58.64 175.568-46.773 115.035-27.073 55.452 0 0M4.264-244.848C3.163-239.395 8.92-236.738 11.926-233.264 43.889-200.224 45.022-150.124 32.96-108.16 18.971-56.49-9.425-10.653-29.555 38.562-43.978 76.791-56.726 115.863-66.103 155.649-69.716 173.967-76.894 198.678-58.273 211.186-33.292 225.508 8.008 229.039 32.758 212.733 64.729 191.908 52.221 149.311 53.083 117.319 52.48 96.305 54.053 74.831 58.319 54.431 65.953 6.081 108.029-37.508 100.798-86.292 95.702-113.352 75.146-149.858 50.903-163.519 50.657-181.696 46.254-199.735 37.64-215.775 34.092-222.644 12.316-258.661 4.264-244.848" fill="#4c0f1f"/>
<path transform="matrix(1,0,0,-1,700.2266,444.69459)" d="M0 0C-3.439 .399-5.251 4.046-3.394 6.996 .131 11.962 6.013 13.79 9.784 18.602 19.366 28.574 23.878 42.221 25.685 55.697 27.734 70.596 25.145 84.222 22.714 98.684 20.295 116.687 22.334 135 19.655 152.996 13.541 184.673-1.861 237.081-41.166 237.284-44.904 237.513-48.723 235.361-52.294 237.099-54.799 238.047-55.882 241.161-54.546 243.483-51.776 248.717-44.85 248.015-39.773 248.301 7.819 246.567 26.384 186.052 31.48 146.63 32.92 131.501 31.611 115.696 33.53 100.706 38.916 74.465 40.087 45.668 26.065 21.79 21.025 14.2 9.697-.478 0 0" fill="#4c0f1f"/>
<path transform="matrix(1,0,0,-1,295.3378,627.3242)" d="M0 0C-6.592 3.524-2.723 11.866-.753 17.147 3.392 27.989 11.855 36.438 21.184 43.033 26.083 48.146 68.121 66.342 64.208 49.782 60.709 43.772 51.976 45.545 46.224 43.109 1.761 29.084 11.915-2.895 0 0" fill="#4c0f1f"/>
<path transform="matrix(1,0,0,-1,430.7399,629.6118)" d="M0 0C-4.737 2.299-4.374 8.204-5.918 12.545-12.029 34.037-16.741 38.756-34.101 51.166-36.422 54.167-34.794 58.473-30.918 58.802-20.83 58.682-12.16 48.377-6.311 40.974 .088 31.916 3.24 21.062 6.022 10.452 8.133 6.094 6.154-2.442 0 0" fill="#4c0f1f"/>
<path transform="matrix(1,0,0,-1,267.7845,674.67947)" d="M0 0C-4.235 2.898-2.265 8.836 .589 12.028 4.411 16.178 8.782 23.188 15.256 21.823 17.339 21.326 18.647 19.318 18.494 17.22 18.44 13.026 14.263 10.962 11.773 8.199 8.431 4.987 5.824-2.48 0 0" fill="#4c0f1f"/>
<path transform="matrix(1,0,0,-1,432.5608,835.9918)" d="M0 0C-7.146 4.031 .566 10.311 5.68 11.31 12.278 14.38 18.471 18.652 22.862 24.525 26.144 28.888 27.577 34.188 27.773 39.586 27.082 44.586 32.504 51.468 37.078 46.44 39.505 43.769 38.926 40.143 38.585 36.851 38.091 24.829 30.648 14.411 21.106 7.57 14.999 3.91 7.46-2.545 0 0" fill="#4c0f1f"/>
<g inkscape:groupmode="layer" inkscape:label="Skupina vrstev">
</g>
</g>
</g>
</g>
</svg>
