<svg xmlns="http://www.w3.org/2000/svg" xmlns:xlink="http://www.w3.org/1999/xlink" xmlns:inkscape="http://www.inkscape.org/namespaces/inkscape" version="1.1" width="1000" height="1000" viewBox="0 0 1000 1000">
<defs>
<clipPath id="clip_1">
<path transform="matrix(1,0,0,-1,0,1000)" d="M0 1000H1000V0H0Z"/>
</clipPath>
</defs>
<g>
<g inkscape:groupmode="layer" inkscape:label="Vrstva 50">
</g>
<g inkscape:groupmode="layer" inkscape:label="Skupina vrstev">
</g>
<g inkscape:groupmode="layer" inkscape:label="Skupina vrstev">
</g>
<g inkscape:groupmode="layer" inkscape:label="Skupina vrstev">
</g>
<g inkscape:groupmode="layer" inkscape:label="Skupina vrstev">
</g>
<g inkscape:groupmode="layer" inkscape:label="Skupina vrstev">
</g>
<g inkscape:groupmode="layer" inkscape:label="Skupina vrstev">
</g>
<g inkscape:groupmode="layer" inkscape:label="Skupina vrstev">
<g clip-path="url(#clip_1)">
<path transform="matrix(1,0,0,-1,394.312,665.7467)" d="M0 0C72.947 4.38 111.886 85.134 72.166 145.852 51.595 178.034 11.565 195.585-25.897 189.623-56.633 180.947-82.391 156.853-92.715 126.585-114.656 63.311-67.774-3.299 0 0M-20.169-15.124C-94.059-5.269-137.943 78.53-99.645 143.68-84.489 170.053-57.211 188.803-27.146 193.415-2.565 200.5 24.338 197.918 47.166 186.291 104.714 157.65 121.368 82.141 84.465 30.387 61.734-2.944 19.655-21.001-20.169-15.124" fill="#4c0f1f"/>
<path transform="matrix(1,0,0,-1,271.7585,554.42959)" d="M0 0C-.008-.004-.034 .028 .007 .04H0 .007 0 .007C.007 .04 .007 .04 .007 .04 9.044 99.707 152.689 147.078 219.753 72.675 237.866 53.826 246.34 28.721 252.718 3.906 242.835 25.586 232.592 48.263 214.11 64.251 147.989 124.179 21.739 86.712 0 0" fill="#4c0f1f"/>
<path transform="matrix(1,0,0,-1,374.6841,710.32986)" d="M0 0C-43.036 2.495-83.727 18.701-102.109 60.323-119.453 98.537-113.792 156.16-89.836 189.982-89.842 189.982-89.842 189.982-89.849 189.982H-89.842C-89.855 189.975-89.869 189.975-89.882 189.975-89.875 189.975-89.875 189.975-89.876 189.975-115.387 134.264-106.296 47.951-41.563 24.391 20.673 2.72 104.451 18.697 132.972 83.769 116.748 25.595 56.883-2.118 0 0" fill="#4c0f1f"/>
<path transform="matrix(1,0,0,-1,430.9784,700.36697)" d="M0 0C52.535 37.274 97.252 83.815 145.558 126.114 191.586 164.138 235.157 204.732 281.138 242.719 199.235 150.023 109.758 59.103 0 0" fill="#4c0f1f"/>
<path transform="matrix(1,0,0,-1,307.4504,483.26289)" d="M0 0C87.588 82.255 196.41 137.759 307.049 182.423 300.501 178.643 293.755 174.595 287.196 170.632 192.667 111.875 92.563 61.614 0 0" fill="#4c0f1f"/>
<path transform="matrix(1,0,0,-1,714.1656,460.36103)" d="M0 0C30.568 53.878 8.501 126.317-50.437 149.029-64.987 154.696-80.432 161.648-96.213 160.9-113.773 153.669-130.984 145.093-147.625 136.12-132.838 147.998-116.937 159.051-100.381 168.485-89.279 173.344-76.391 169.365-64.983 167.383 15.791 152.962 49.932 64.321 0 0" fill="#4c0f1f"/>
<path transform="matrix(1,0,0,-1,681.993,487.73359)" d="M0 0C6.828 7.461 14.464 14.268 21.626 21.452 26.412 26.165 30.998 31.091 35.145 35.891 37.296 37.931 38.752 40.842 39.551 43.557 42.844 52.388 45.218 61.117 48.544 69.836 48.551 69.856 48.584 69.849 48.584 69.822 47.219 58.929 46.344 47.837 42.965 37.324 33.316 20.63 15.561 10.331 0 0" fill="#4c0f1f"/>
<path transform="matrix(1,0,0,-1,709.9891,347.60639)" d="M0 0C18.919-27.87 22.843-65.771 11.24-97.541 9.49-102.876 5.046-106.349 1.486-110.553-69.107-170.944-139.834-231.254-207.922-294.556-205.628-289.53-203.842-284.264-202.335-278.957-206.267-287.642-211.168-296.245-217.768-303.363-228.26-312.669-238.906-321.788-249.819-330.594-252.146-331.888-254.539-333.074-256.992-334.134-294.61-350.453-338.021-351.48-376.865-338.334-437.145-316.646-447.312-242.317-431.389-187.609-397.324-114.9-285.13-87.275-224.121-142.572-205.642-158.558-195.396-181.236-185.509-202.915-191.889-178.103-200.362-152.998-218.474-134.146-255.079-93.541-314.489-89.202-362.379-109.847-274.807-55.911-183.42-7.634-95.914 46.518-81.374 52.244-60.421 41.246-46.264 36.271-28.152 28.138-11.359 16.546 0 0M-212.962-242.907C-199.913-168.438-269.598-103.617-342.82-124.726-372.879-129.335-400.168-148.087-415.322-174.456-456.748-245.661-401.872-334.822-320.609-334.28-268.075-334.949-220.906-294.817-212.962-242.907" fill="#981e3d"/>
<path transform="matrix(1,0,0,-1,482.2885,568.57998)" d="M0 0C3.151-65.473-61.891-113.904-123.705-92.029-199.267-64.827-207.126 36.96-141.198 79.942-132.743 85.391-123.551 89.68-113.873 92.454-97.949 94.783-81.846 93.357-66.403 88.094-29.137 75.746-1.584 39.32 0 0M-88.068 14.325C-78.06 35.124-95.24 48.152-114.573 38.184-120.439 35.311-125.752 31.171-129.992 26.211-136.381 20.928-142.283 13.836-143.444 5.366-145.403-9.528-129.518-14.513-117.68-10.373-105.187-6.6-93.728 2.433-88.068 14.325" fill="#f5dfa2"/>
<path transform="matrix(1,0,0,-1,458.4231,577.8354)" d="M0 0C-4.906 24.599-19.184 47.859-42.593 58.45-83.18 77.535-127.426 72.481-146.405 27.572-126.998 116.55 4.267 83.964 0 0" fill="#f9ecc7"/>
<path transform="matrix(1,0,0,-1,396.894,539.636)" d="M0 0C3.01-22.806-31.796-49.937-52.437-37.471-65-27.675-54.564-10.242-44.598-2.733-40.358 2.227-35.045 6.367-29.179 9.239-18.77 14.944-2.235 14.16 0 0" fill="#f9ecc7"/>
<path transform="matrix(1,0,0,-1,682.4445,325.5415)" d="M0 0C-9.945 7.016-29.84 20.596-44.921 21.099-47.35 22.375-49.887 23.488-52.338 24.651-55.862 26.755-60.216 26.295-63.838 24.524-130.675-1.978-183.874-51.987-242.221-92.489-176.571-64.747-121.959-17.533-62.052 20.006-57.937 23.147-54.386 22.3-49.72 20.804-49.686 20.793-49.649 20.783-49.615 20.772-51.434 20.437-53.149 19.857-54.714 18.955-112.365-23.823-171.212-65.166-229.132-107.492-165.753-74.199-102.467-38.904-46.267 6.01-25.756 2.834-7.064-8.736 8.522-22.024 30.1-40.715 30.436-71.913 30.213-98.4 37.599-58.93 35.457-24.932 0 0" fill="#c1788b"/>
<path transform="matrix(1,0,0,-1,279.3297,618.9909)" d="M0 0C-1.721 5.483-3.474 11.051-4.416 16.732-4.835 14.646-4.526 12.062-4.456 9.832-4.493-25.482 21.078-56.683 54.842-65.762 29.704-51.393 9.074-27.817 0 0" fill="#c1788b"/>
<path transform="matrix(1,0,0,-1,453.1193,468.6848)" d="M0 0C-54.257 33.245-132.97 .594-166.991-48.088-125.225-9.104-46.921 18.488 4.925-15.106 20.965-25.508 30.092-42.937 41.118-58.003 31.51-35.643 21.966-13.094 0 0" fill="#c1788b"/>
<path transform="matrix(1,0,0,-1,598.2355,534.8141)" d="M0 0C.238 .111 .48 .217 .725 .319 .294-.053-.139-.429-.576-.811-.381-.539-.189-.268 0 0M-6.595-6.169C-6.758-5.733-6.71-5.207-6.486-4.616-6.265-4.396-6.033-4.189-5.805-3.978-5.455-3.689-5.107-3.394-4.751-3.116-4.986-3.755-5.206-4.414-5.383-5.082-5.786-5.443-6.19-5.805-6.595-6.169M-54.086-28.593C-54.157-28.422-54.243-28.259-54.319-28.091-54.264-28.168-54.211-28.246-54.154-28.323-54.131-28.413-54.108-28.502-54.086-28.593M132.85 102.599C132.251 135.826 130.268 166.973 109.044 194.397 113.566 184.423 116.852 173.947 118.952 163.205 121.675 134.919 118.942 115.59 109.97 95.931 110.213 97.441 110.428 98.955 110.582 100.478 112.719 121.725 108.753 145.156 98.69 163.594 103.256 146.816 104.015 129.026 103.48 111.626 103.181 98.6 101.093 85.676 97.263 73.281 96.992 72.863 96.727 72.449 96.452 72.028 92.258 68.788 88.085 65.518 83.92 62.239 76.322 61.673 68.567 62.271 61.022 60.901 41.98 58.602 35.403 38.299 23.038 26.683 9.479 14.721-9.698 8.755-18.173-8.376-20.349-12.249-22.068-16.566-23.981-20.764-28.363-23.946-32.666-26.498-36.707-27.833-44.63-28.545-51.81-24.586-55.315-16.24-57.116-4.767-60.917 6.374-65.106 17.177-65.112 17.204-65.153 17.19-65.146 17.171-63.14 2.927-60.836-11.142-61.18-25.621-61.395-28.124-61.652-30.635-61.949-33.147-61.964-32.95-61.97-32.758-61.986-32.561-64.429-46.441-67.291-60.028-73.111-72.554-65.649-51.813-65.411-29.87-68.818-5.118-71.593-33.649-75.005-62.372-85.116-89.151-79.823-71.329-78.69-52.456-78.611-33.972-78.599-33.961-78.603-33.937-78.624-33.937-81.178-46.216-83.985-58.656-87.844-70.717-84.721-51.475-85.677-30.228-90.076-7.91-90.913-20.975-91.144-34.437-93.073-47.516-98.216-88.707-115.355-120.186-146.327-142.878-203.645-160.038-276.012-155.286-310.921-103.22-310.661-105.395-309.357-107.804-308.334-109.832-295.987-134.46-271.122-150.145-245.844-159.176-206.04-172.869-161.603-165.151-124.737-146.396-111.447-139.355-102.523-127.417-95.238-114.438-85.882-104.292-76.773-93.91-67.932-83.304-37.158-59.4-6.67-34.951 22.298-8.903 39.309 6.69 55.874 22.835 72.193 39.217 76.163 39.98 80.27 39.683 83.703 42.5 86.324 45.036 86.201 48.862 84.393 51.547 86.716 53.911 89.037 56.276 91.352 58.646 91.574 58.803 91.794 58.962 92.017 59.118 90.517 55.674 88.882 52.284 87.09 48.967 90.789 53.2 94.181 57.78 97.188 62.62 100.134 64.271 103.216 66.341 106.466 69.007 106.389 68.973 106.307 68.937 106.23 68.903 111.911 72.781 117.611 76.675 123.278 80.697 127.031 83.746 131.847 86.167 134.297 90.45 135.464 94.51 132.684 98.437 132.85 102.599" fill="#4c0f1f"/>
<path transform="matrix(1,0,0,-1,641.2931,327.38014)" d="M0 0C20.799-1.323 38.086-15.449 52.741-29.088 39.263-9.499 8.911 22.243-16.142 4.597-56.116-18.29-90.225-49.315-125.781-78.147-85.684-57.104-47.79-30.847-10.441-5.125-7.236-2.927-4.189 .265 0 0" fill="#4c0f1f"/>
<path transform="matrix(1,0,0,-1,394.312,665.7467)" d="M0 0C72.947 4.38 111.886 85.134 72.166 145.852 51.595 178.034 11.565 195.585-25.897 189.623-56.633 180.947-82.391 156.853-92.715 126.585-114.656 63.311-67.774-3.299 0 0M-20.169-15.124C-94.059-5.269-137.943 78.53-99.645 143.68-84.489 170.053-57.211 188.803-27.146 193.415-2.565 200.5 24.338 197.918 47.166 186.291 104.714 157.65 121.368 82.141 84.465 30.387 61.734-2.944 19.655-21.001-20.169-15.124" fill="#4c0f1f"/>
<path transform="matrix(1,0,0,-1,271.7585,554.42959)" d="M0 0C-.008-.004-.034 .028 .007 .04H0 .007 0 .007C.007 .04 .007 .04 .007 .04 9.044 99.707 152.689 147.078 219.753 72.675 237.866 53.826 246.34 28.721 252.718 3.906 242.835 25.586 232.592 48.263 214.11 64.251 147.989 124.179 21.739 86.712 0 0" fill="#4c0f1f"/>
<path transform="matrix(1,0,0,-1,374.6841,710.32986)" d="M0 0C-43.036 2.495-83.727 18.701-102.109 60.323-119.453 98.537-113.792 156.16-89.836 189.982-89.842 189.982-89.842 189.982-89.849 189.982H-89.842C-89.855 189.975-89.869 189.975-89.882 189.975-89.875 189.975-89.875 189.975-89.876 189.975-115.387 134.264-106.296 47.951-41.563 24.391 20.673 2.72 104.451 18.697 132.972 83.769 116.748 25.595 56.883-2.118 0 0" fill="#4c0f1f"/>
<path transform="matrix(1,0,0,-1,430.9784,700.36697)" d="M0 0C52.535 37.274 97.252 83.815 145.558 126.114 191.586 164.138 235.157 204.732 281.138 242.719 199.235 150.023 109.758 59.103 0 0" fill="#4c0f1f"/>
<path transform="matrix(1,0,0,-1,307.4504,483.26289)" d="M0 0C87.588 82.255 196.41 137.759 307.049 182.423 300.501 178.643 293.755 174.595 287.196 170.632 192.667 111.875 92.563 61.614 0 0" fill="#4c0f1f"/>
<path transform="matrix(1,0,0,-1,714.1656,460.36103)" d="M0 0C30.568 53.878 8.501 126.317-50.437 149.029-64.987 154.696-80.432 161.648-96.213 160.9-113.773 153.669-130.984 145.093-147.625 136.12-132.838 147.998-116.937 159.051-100.381 168.485-89.279 173.344-76.391 169.365-64.983 167.383 15.791 152.962 49.932 64.321 0 0" fill="#4c0f1f"/>
<path transform="matrix(1,0,0,-1,681.993,487.73359)" d="M0 0C6.828 7.461 14.464 14.268 21.626 21.452 26.412 26.165 30.998 31.091 35.145 35.891 37.296 37.931 38.752 40.842 39.551 43.557 42.844 52.388 45.218 61.117 48.544 69.836 48.551 69.856 48.584 69.849 48.584 69.822 47.219 58.929 46.344 47.837 42.965 37.324 33.316 20.63 15.561 10.331 0 0" fill="#4c0f1f"/>
<g inkscape:groupmode="layer" inkscape:label="Skupina vrstev">
</g>
<g inkscape:groupmode="layer" inkscape:label="Skupina vrstev">
</g>
</g>
</g>
</g>
</svg>
