<svg xmlns="http://www.w3.org/2000/svg" xmlns:xlink="http://www.w3.org/1999/xlink" xmlns:inkscape="http://www.inkscape.org/namespaces/inkscape" version="1.1" width="1000" height="1000" viewBox="0 0 1000 1000">
<defs>
<clipPath id="clip_1">
<path transform="matrix(1,0,0,-1,0,1000)" d="M0 1000H1000V0H0Z"/>
</clipPath>
</defs>
<g>
<g inkscape:groupmode="layer" inkscape:label="Vrstva 50">
</g>
<g inkscape:groupmode="layer" inkscape:label="Skupina vrstev">
</g>
<g inkscape:groupmode="layer" inkscape:label="Skupina vrstev">
</g>
<g inkscape:groupmode="layer" inkscape:label="Skupina vrstev">
</g>
<g inkscape:groupmode="layer" inkscape:label="Skupina vrstev">
</g>
<g inkscape:groupmode="layer" inkscape:label="Skupina vrstev">
</g>
<g inkscape:groupmode="layer" inkscape:label="Skupina vrstev">
</g>
<g inkscape:groupmode="layer" inkscape:label="Skupina vrstev">
</g>
<g inkscape:groupmode="layer" inkscape:label="Skupina vrstev">
</g>
<g inkscape:groupmode="layer" inkscape:label="Skupina vrstev">
<g clip-path="url(#clip_1)">
<path transform="matrix(1,0,0,-1,302.8056,821.5631)" d="M0 0C-155.926 19.04-225.619 207.605-119.292 323.305-86.58 359.666-38.562 381.286 10.307 382.15 16.985 379.658 23.443 376.547 29.822 373.372-80.418 370.916-169.148 275.052-151.142 163.905-132.444 49.759-10.536-16.215 95.192 30.769 192.745 74.521 228.411 191.548 175.517 283.665 186.644 272.91 196.321 261.439 205.722 249.262 212.629 227.299 216.474 204.112 215.275 181.048 211.629 69.631 109.73-13.614 0 0" fill="#4c0f1f"/>
<path transform="matrix(1,0,0,-1,514.1206,593.5337)" d="M0 0C-.01 .056-.02 .112-.029 .169-.005 .048 .019-.068 .039-.182 .026-.121 .013-.061 0 0" fill="#4c0f1f"/>
<path transform="matrix(1,0,0,-1,508.1888,612.249)" d="M0 0C-15.869 90.579-87.572 63.472-131.45 119.629-141.007 130.849-150.634 142.638-163.813 149.753-188.351 161.865-217.591 161.366-243.962 156.995-222.658 164.103-198 168.222-175.243 163.9-162.645 157.529-149.736 151.482-138.466 142.87-122.879 128.4-108.189 112.676-88.54 103.518-74.082 96.036-58.485 91.226-43.553 84.86-36.1 81.553-30.345 74.538-24.811 69.358-16.32 60.454-8.286 51.142-.784 41.409 2.704 34.166 4.21 26.22 5.996 18.414 12.503-9.963 6.155-39.722 2.465-67.959 2.591-45.245 2.184-22.586 0 0" fill="#4c0f1f"/>
<path transform="matrix(1,0,0,-1,394.7284,577.9617)" d="M0 0C-15.859 3.868-30.879 11.813-41.795 24.118-53.199 36.776-63.356 53.94-62.26 71.243-62.261 71.239-62.263 71.234-62.263 71.23V71.237C-62.263 71.237-62.263 71.237-62.263 71.237-57.019 46.41-36.168 27.309-14.921 15.05 3.936 4.464 25.918 1.247 47.162 1.227 31.87-2.236 15.403-3.409 0 0" fill="#4c0f1f"/>
<path transform="matrix(1,0,0,-1,512.7213,643.8489)" d="M0 0C-.252 32.395-3.005 71.33-31.43 91.795-47.017 101.423-65.333 105.166-82.051 112.372-98.126 118.771-112.926 128.181-125.396 140.18-135.328 149.581-144.75 159.558-153.865 169.746-160.345 177.025-167.355 184.097-176.165 188.507-190.408 194.76-206.844 198.157-222.287 196.851-203.885 201.576-181.151 200.257-163.751 191.006-148.813 182.111-136.861 168.439-123.505 157.671-100.604 135.202-71.12 125.59-42.258 113.592 4.236 95.454 8.386 42.699 0 0" fill="#4c0f1f"/>
<path transform="matrix(1,0,0,-1,442.3163,525.9197)" d="M0 0C-70.263 10.256-87.236 88.945-156.194 81.691-107.094 97.939-75.558 59.742-44.026 28.74-31.822 15.371-15.775 7.677 0 0" fill="#4c0f1f"/>
<path transform="matrix(1,0,0,-1,502.8344,623.6011)" d="M0 0C2.823-70.639-40.039-138.943-104.834-167.189-201.978-210.497-315.783-158.045-346.102-56.13-369.424 21.928-335.879 105.141-266.41 147.05-247.803 158.32-227.416 166.681-206.112 171.174-189.622 171.104-173.195 168.375-158.459 161.105-145.289 152.246-135.135 139.245-123.893 128.118-116.862 119.353-108.918 112.778-100.358 107.417-91.614 101.221-82.134 96.099-72.163 92.127-62.219 87.69-51.499 85.017-41.463 80.738-27.857 73.897-17.002 63.195-9.065 50.516-3.649 34.216-.637 17.156 0 0M-60.943 46.866C-82.194 46.888-104.171 50.104-123.03 60.69-144.271 72.949-165.118 92.043-170.367 116.869-171.455 99.572-161.308 82.415-149.898 69.757-128.036 44.905-91.958 38.992-60.943 46.866" fill="#981e3d"/>
<path transform="matrix(1,0,0,-1,515.2678,618.6467)" d="M0 0C3.561-48.734-10.434-93.764-46.914-126.821-60.275-151.538-83.056-165.603-109.023-176.375-114.026-179.442-119.17-182.038-124.587-181.919-125.345-182.178-126.117-182.431-126.895-182.69-126.369-182.424-125.85-182.15-125.338-181.891-132.871-181.366-138.896-174.188-146.663-173.674-157.153-175.919-171.657-175.666-173.229-162.137-173.819-156.026-171.742-147.03-165.679-144.616-157.841-139.914-148.164-134.939-145.856-125.375-158.578-114.337-164.023-119.705-171.44-101.559-176.24-97.966-182.337-93.461-188.667-94.745-199.712-97.222-210.974-100.78-222.349-100.836-231.59-99.615-231.24-106.801-232.629-113.698-232.875-120.856-239.211-126.098-246.193-123.066-258.003-116.456-253.68-99.208-255.02-87.897-255.126-78.297-256.669-74.95-264.381-69.358-266.634-67.196-268.29-64.53-270.507-62.34-273.903-60.958-277.489-60.137-280.928-58.853-294.716-55.043-300.225-41.415-304.863-29.255-308.224-21.059-318.518-19.312-323.648-12.428-329.219-6.295-337.92 14.988-333.843 22.293-330.496 27.991-322.497 27.436-318.308 23.001-312.069 16.321-310.701 5.045-301.719 .912-286.78-.001-268.816 16.539-254.726 5.066-247.189-1.755-246.13-12.947-240.656-20.799-234.776-21.936-229.177-18.547-223.318-18.176-207.292-15.533-194.253-19.139-182.808-30.715-178.478-30.686-174.829-27.016-171.047-25.157-150.424-12.288-135.969-12.281-127.302-37.479-122.117-34.377-118.98-28.96-115.437-24.238-110.083-16.722-104.209-9.565-97.894-2.843-90.294 5.431-80.751 13.114-78.085 24.552-124.678 25.359-181.727 47.266-186.772 100.063-186.878 101.024-187.123 102.084-187.088 102.933-178.191 59.693-135.314 41.887-95.312 39.983-86.147 38.586-76.597 41.091-67.664 38.621-54.984 32.355-64.963 10.595-70.899 2.161-77.236-20.771-108.195-67.259-98.708-88.907-81.762-81.006-78.695-60.558-70.997-45.38-66.212-36.216-56.654-31.732-47.666-27.641-35.941-23.459-23.085-20.67-18.012-35.002-14.608-11.631-16.467 9.739-26.341 31.394-36.179 60.016-43.757 62.655-72.015 69.258-87.572 73.503-102.778 79.363-116.524 87.881-147.982 105.557-154.985 152.326-197.045 151.049L-197.038 151.056C-165.763 157.105-148.122 132.019-128.152 111.304-119.331 102.835-108.3 97.256-96.996 92.87-62.717 78.528-28.733 87.944-13.97 46.017-7.893 31.183-1.739 16.076 0 0" fill="#4c0f1f"/>
<path transform="matrix(1,0,0,-1,201.1008,546.61636)" d="M0 0C23.134 33.252 38.629 53.965 82.051 55.934 83.76 55.945 85.846 56.138 87.405 55.737 43.861 46.725 30.63 27.465 0 0" fill="#4c0f1f"/>
<path transform="matrix(1,0,0,-1,305.9659,807.7201)" d="M0 0C-65.694 16.345-131.393 65.357-142.922 135.41-125.963 83.186-71.51 41.874-17.633 22.587 38.097-.116 88.736 7.115 123.802 58.98 101.03 8.372 53.289-12.377 0 0" fill="#4c0f1f"/>
<path transform="matrix(1,0,0,-1,400.1784,777.4773)" d="M0 0C44.26 35.369 107.355 118.849 86.093 177.784 88.141 176.564 89.089 173.861 90.142 171.763 115.442 102.878 59.355 30.046 0 0" fill="#4c0f1f"/>
<path transform="matrix(1,0,0,-1,445.9398,722.1704)" d="M0 0C16.341 31.433 42.38 62.55 37.197 100.162 37.147 101.144 36.826 102.258 36.825 103.116 53.676 63.61 25.726 27.59 0 0" fill="#4c0f1f"/>
<path transform="matrix(1,0,0,-1,266.0302,739.55349)" d="M0 0C-2.612 4.673-1.971 10.788-2.988 15.992-4.45 25.19-3.362 35.364-7.044 44.026-12.689 55.289-25.611 60.227-34.671 67.596V67.589C-34.671 67.589-34.671 67.589-34.671 67.589 .169 54.555 3.433 48.851 5.535 11.9 9.809 18.56 11.57 28.687 19.957 31.325 23.344 32.13 26.716 30.649 30.132 30.665 24.25 29.511 18.709 31.187 16.175 23.979 13.43 18.625 9.057-7.119 0 0" fill="#981e3d"/>
<path transform="matrix(1,0,0,-1,364.5757,782.48269)" d="M0 0C-20.991 3.635-1.647 19.946 4.662 28.549 7.928 33.672 10.259 39.667 11.171 45.667 11.326 50.674 7.545 54.634 3.873 57.484 19 52.121 15.153 35.23 8.048 24.616 3.704 17.879-5.82 13.796-7.085 5.411-6.036 2.589-2.081 1.772 0 0" fill="#981e3d"/>
<path transform="matrix(1,0,0,-1,320.3226,813.2013)" d="M0 0C-27.153 5.083-63.483 19.596-79.04 43.381-65.471 28.852-43.676 22.106-24.89 16.927 47.54-2.764 121.008 40.689 150.059 107.504 135.206 40.539 69.524-11.678 0 0" fill="#981e3d"/>
<path transform="matrix(1,0,0,-1,332.2596,816.5761)" d="M0 0C24.629 8.334 48.48 19.205 68.356 36.271 92.102 55.558 115.701 79.614 123.454 109.942 121.81 69.866 91.187 35.261 57.288 16.419 39.9 6.433 19.57 2.484 0 0" fill="#981e3d"/>
<path transform="matrix(1,0,0,-1,442.692,604.768)" d="M0 0C1.531 5.467 5.076 11.569 2.959 17.246 1.469 18.48-1.059 17.216-2.891 17.332-20.753 15.865-39.468 16.245-56.418 22.167-37.345 20.446-18.219 23.033 .884 22.146 13.097 20.953 3.901 5.439 0 0" fill="#981e3d"/>
<path transform="matrix(1,0,0,-1,333.4206,706.0206)" d="M0 0C-4.785 1.108-9.683 2.556-14.56 2.505-19.185 2.341-24.306 .889-28.574 .378-28.572 .378-28.57 .378-28.568 .378-28.57 .378-28.572 .377-28.573 .374-28.573 .373-28.573 .373-28.573 .371-18.56 5.676-9.689 6.12 0 0" fill="#981e3d"/>
<path transform="matrix(1,0,0,-1,276.9789,652.7359)" d="M0 0C-10.482 7.928-19.881 17.15-29.286 26.263-35.999 31.72-44.069 25.405-51.66 26.433-64.747 27.264-79.549 31.551-87.686 42.439-76.761 33.811-61.549 32.037-48.141 33.245-38.397 35.6-30.953 38.068-23.318 29.423-15.564 19.628-7.666 9.719 0 0" fill="#981e3d"/>
<path transform="matrix(1,0,0,-1,154.1152,667.8336)" d="M0 0C-23.369 82.985 25.812 177.339 110.609 199.132 121.74 201.6 136.089 203.781 145.323 196.059 112.837 207.335 69.079 168.351 48.746 145.615 13.632 104.23-3.715 54.011 0 0" fill="#d6a5b1"/>
<path transform="matrix(1,0,0,-1,363.2256,565.7508)" d="M0 0C-14.187 7.529-27.139 18.602-32.735 34.075-37.311 47.377-37.258 62.684-45.274 74.571-23.784 52.512-37.528 32.417 0 0" fill="#d6a5b1"/>
<path transform="matrix(1,0,0,-1,418.237,524.52017)" d="M0 0C-42.868 10.35-61.525 62.83-101.418 65.569-118.526 67.761-135.098 66.471-150.973 60.05-133.378 72.691-104.344 77.75-83.377 71.883-47.022 59.423-33.708 16.47 0 0" fill="#d6a5b1"/>
<path transform="matrix(1,0,0,-1,299.5368,535.3479)" d="M0 0C4-31.696-36.095-63.482-65.779-63.574-82.072-64.051-95.11-52.428-91.132-35.45-86.526-16.703-70.049-2.811-53.246 5.256-38.115 16.843-5.883 25.166 0 0" fill="#ad4b64"/>
<path transform="matrix(1,0,0,-1,355.0414,592.4383)" d="M0 0C6.298-2.787-.138-13.052-5.754-11.171-11.333-8.686-4.747 1.353 0 0" fill="#ad4b64"/>
<path transform="matrix(1,0,0,-1,290.7924,616.0791)" d="M0 0C6.029-6.02 1.491-20.29-8.111-16.322-19.502-10.808-11.001 11.818 0 0" fill="#ad4b64"/>
<path transform="matrix(1,0,0,-1,228.9652,646.5332)" d="M0 0C8.582-.716 10.498-16.595 .66-16.595-4.386-16.322-8.933-10.168-6.87-5.368-5.782-2.414-3.452 .421 0 0" fill="#ad4b64"/>
<path transform="matrix(1,0,0,-1,191.6417,567.0154)" d="M0 0C7.296-4.538-1.599-18.257-8.547-18.231-19.951-17.386-6.932 3.018 0 0" fill="#ad4b64"/>
<path transform="matrix(1,0,0,-1,282.0639,532.4496)" d="M0 0C6.026-18.692-26.835-48.958-44.299-51.463-55.544-53.775-62.094-44.723-57.4-34.468-53.766-25.9-47.105-18.982-40.117-13.016-33.821-8.339-27.749-3.124-21.157 1.088-14.996 4.779-3.965 8.835 0 0" fill="#d6a5b1"/>
<path transform="matrix(1,0,0,-1,275.7962,622.79727)" d="M0 0C.231 11.168 16.42 11.341 16.939 .211 16.708-10.957 .519-11.13 0 0" fill="#d6a5b1"/>
<path transform="matrix(1,0,0,-1,351.292,595.786)" d="M0 0C-.013 2.206 3.334 2.251 3.382 .042 3.396-2.164 .048-2.209 0 0" fill="#d6a5b1"/>
<path transform="matrix(1,0,0,-1,227.0531,654.1811)" d="M0 0C-.013 2.206 3.334 2.251 3.382 .042 3.396-2.164 .048-2.209 0 0" fill="#d6a5b1"/>
<path transform="matrix(1,0,0,-1,187.691,569.6314)" d="M0 0C-.013 2.206 3.335 2.251 3.382 .042 3.396-2.164 .048-2.209 0 0" fill="#d6a5b1"/>
<path transform="matrix(1,0,0,-1,352.3644,600.17239)" d="M0 0C-.435 .161-.905 .589-1.13 1.003-1.428 1.53-1.531 2.095-1.487 2.652-3.136 4.796-.12 5.965 1.621 6.133 5.236 5.647 3.39-1.133 0 0" fill="#d6a5b1"/>
<path transform="matrix(1,0,0,-1,228.6324,657.6739)" d="M0 0C-.234 .145-.461 .306-.677 .482-2.108 .381-3.111 2.02-2.565 3.298-2.908 4.62-2.981 6.036-2.617 7.361-1.761 9.279 .56 8.349 .944 6.613 6.648 7.218 5.5-2.649 0 0" fill="#d6a5b1"/>
<path transform="matrix(1,0,0,-1,424.2533,691.9083)" d="M0 0C1.565 6.367 4.317 12.484 7.087 18.329 10.548 26.356 11.578 36.059 17.577 42.601 13.038 35.809 12.609 27.324 9.712 19.886 6.775 13.166 2.719 6.697 0 0" fill="#d6a5b1"/>
<path transform="matrix(1,0,0,-1,246.9314,760.2347)" d="M0 0C-18.66 12.394-35.027 28.059-46.433 47.456-46.676 47.943-47.166 48.535-47.19 48.972-46.285 47.515-45.111 46.202-44.023 44.869-30.928 28.482-15.475 13.922 0 0" fill="#d6a5b1"/>
<path transform="matrix(1,0,0,-1,302.8056,821.5631)" d="M0 0C-155.926 19.04-225.619 207.605-119.292 323.305-86.58 359.666-38.562 381.286 10.307 382.15 16.985 379.658 23.443 376.547 29.822 373.372-80.418 370.916-169.148 275.052-151.142 163.905-132.444 49.759-10.536-16.215 95.192 30.769 192.745 74.521 228.411 191.548 175.517 283.665 186.644 272.91 196.321 261.439 205.722 249.262 212.629 227.299 216.474 204.112 215.275 181.048 211.629 69.631 109.73-13.614 0 0" fill="#4c0f1f"/>
<path transform="matrix(1,0,0,-1,514.1206,593.5337)" d="M0 0C-.01 .056-.02 .112-.029 .169-.005 .048 .019-.068 .039-.182 .026-.121 .013-.061 0 0" fill="#4c0f1f"/>
<path transform="matrix(1,0,0,-1,508.1888,612.249)" d="M0 0C-15.869 90.579-87.572 63.472-131.45 119.629-141.007 130.849-150.634 142.638-163.813 149.753-188.351 161.865-217.591 161.366-243.962 156.995-222.658 164.103-198 168.222-175.243 163.9-162.645 157.529-149.736 151.482-138.466 142.87-122.879 128.4-108.189 112.676-88.54 103.518-74.082 96.036-58.485 91.226-43.553 84.86-36.1 81.553-30.345 74.538-24.811 69.358-16.32 60.454-8.286 51.142-.784 41.409 2.704 34.166 4.21 26.22 5.996 18.414 12.503-9.963 6.155-39.722 2.465-67.959 2.591-45.245 2.184-22.586 0 0" fill="#4c0f1f"/>
<path transform="matrix(1,0,0,-1,394.7284,577.9617)" d="M0 0C-15.859 3.868-30.879 11.813-41.795 24.118-53.199 36.776-63.356 53.94-62.26 71.243-62.261 71.239-62.263 71.234-62.263 71.23V71.237C-62.263 71.237-62.263 71.237-62.263 71.237-57.019 46.41-36.168 27.309-14.921 15.05 3.936 4.464 25.918 1.247 47.162 1.227 31.87-2.236 15.403-3.409 0 0" fill="#4c0f1f"/>
<path transform="matrix(1,0,0,-1,512.7213,643.8489)" d="M0 0C-.252 32.395-3.005 71.33-31.43 91.795-47.017 101.423-65.333 105.166-82.051 112.372-98.126 118.771-112.926 128.181-125.396 140.18-135.328 149.581-144.75 159.558-153.865 169.746-160.345 177.025-167.355 184.097-176.165 188.507-190.408 194.76-206.844 198.157-222.287 196.851-203.885 201.576-181.151 200.257-163.751 191.006-148.813 182.111-136.861 168.439-123.505 157.671-100.604 135.202-71.12 125.59-42.258 113.592 4.236 95.454 8.386 42.699 0 0" fill="#4c0f1f"/>
<path transform="matrix(1,0,0,-1,442.3163,525.9197)" d="M0 0C-70.263 10.256-87.236 88.945-156.194 81.691-107.094 97.939-75.558 59.742-44.026 28.74-31.822 15.371-15.775 7.677 0 0" fill="#4c0f1f"/>
<path transform="matrix(1,0,0,-1,793.1185,923.7278)" d="M0 0C-137.256-114.373-346.978-25.965-360.589 152.238-365.316 207.588-345.941 264.175-308.702 305.346-301.45 308.945-293.856 311.881-286.271 314.701-369.864 221.288-359.364 73.586-253.224 2.041-143.932-71.094 5.106-21.407 48.433 102.789 87.887 217.765 18.754 337.942-98.769 365.774-81.214 366.643-64.192 365.754-46.799 364.086-23.232 352.753-1.029 337.93 17.154 319.023 106.703 229.126 96.575 80.691 0 0" fill="#4c0f1f"/>
<path transform="matrix(1,0,0,-1,768.2607,571.4966)" d="M0 0C-.054 .035-.109 .07-.163 .107-.044 .033 .071-.037 .181-.11 .121-.073 .06-.036 0 0" fill="#4c0f1f"/>
<path transform="matrix(1,0,0,-1,779.1639,590.9479)" d="M0 0C-87.392 57.197-120.599-23.273-201.235-16.027-217.957-15.234-235.204-14.057-251.336-19.451-280.432-30.381-302.729-55.001-319.587-80.251-308.932-57.074-293.194-33.44-271.938-17.938-256.874-12.444-241.836-6.443-225.946-3.793-217.995-2.768-209.952-2.834-201.953-2.434-185.864-1.618-169.69 1.432-154.557 7.021-137.126 13.193-121.027 22.382-104.154 29.813-95.624 33.422-85.341 32.742-76.751 33.306-62.777 33.427-48.819 32.853-34.927 31.511-26.215 28.776-18.46 23.853-10.604 19.271 17.968 2.624 37.7-25.749 58.235-50.739 39.509-32.993 20.414-15.733 0 0" fill="#4c0f1f"/>
<path transform="matrix(1,0,0,-1,662.6273,658.34878)" d="M0 0C-15.523-10.139-33.772-16.416-52.448-15.906-71.796-15.526-93.91-10.612-107.398 3.734-107.395 3.73-107.392 3.725-107.39 3.722-107.39 3.722-107.395 3.727-107.396 3.727-82.747-11.209-50.723-8.764-24.062-.677-.643 6.729 19.096 22.448 35.612 40.038 26.605 24.676 14.788 10.118 0 0" fill="#4c0f1f"/>
<path transform="matrix(1,0,0,-1,808.8726,611.7343)" d="M0 0C-27.043 24.951-61.449 52.909-100.486 45.246-120.571 39.807-137.898 27.534-156.854 19.276-174.643 10.923-193.936 5.966-213.565 4.952-229.071 4.022-244.657 3.962-260.179 4.321-271.245 4.604-282.55 4.287-293.047 .411-309.291-6.537-324.872-17.52-335.784-31.333-325.407-12.413-306.657 5.404-285.476 12.64-266.503 18.11-245.889 17.397-226.592 20.103-190.185 21.632-159.319 38.601-126.96 53.202-75.818 77.646-28.873 40.112 0 0" fill="#4c0f1f"/>
<path transform="matrix(1,0,0,-1,656.4577,578.4911)" d="M0 0C-63.324-50.331-141.45-3.195-189.013-65.999-164.199-12.597-108.327-16.267-58.012-14.165-37.455-14.434-18.615-7.111 0 0" fill="#4c0f1f"/>
<path transform="matrix(1,0,0,-1,784.4135,604.2025)" d="M0 0C60.84-52.79 84.01-140.811 57.136-216.732 17.444-330.961-114.122-384.419-222.289-330.428-305.175-289.004-347.956-196.842-328.78-106.579-323.668-82.404-314.764-59.015-301.942-37.87-289.076-24.258-274.056-12.764-256.586-6.198-239.015-2.164-220.354-3.846-202.401-3.172-189.677-4.152-178.059-2.675-166.967 .256-155.041 2.69-143.433 6.568-132.397 11.747-120.997 16.543-110.456 23.35-99.115 28.345-82.09 34.165-59.828 36.778-43.408 29.102-27.789 21.246-13.175 11.49 0 0M-86.173-14.106C-102.695-31.702-122.43-47.418-145.851-54.825-172.507-62.907-204.523-65.355-229.174-50.423-215.684-64.759-193.585-69.675-174.233-70.05-136.657-71.234-103.735-45.927-86.173-14.106" fill="#981e3d"/>
<path transform="matrix(1,0,0,-1,590.6521,810.4813)" d="M0 0C14.139-1.179 28.482-2.33 42.488-3.53 27.781-6.056 12.841-6.68-2.021-7.403-11.754-8.729-12.792-20.321-19.536-25.809-30.391-36.012-45.436-44.951-60.782-43.239-45.148-40.882-31.865-29.654-22.448-17.606-16.834-7.698-13.094 .386 0 0" fill="#4c0f1f"/>
<path transform="matrix(1,0,0,-1,711.0302,812.9864)" d="M0 0 10.112 4.372C5.473 1.263 .47-1.67-3.277-5.754-4.014-6.596-4.722-7.508-5.403-8.456-5.719-8.891-6.028-9.34-6.336-9.789-8.47-12.918-10.399-16.294-12.385-18.995-12.287-18.616-12.182-18.244-12.062-17.873-11.957-17.494-11.845-17.122-11.719-16.75-11.683-16.63-11.641-16.504-11.599-16.385-11.522-16.139-11.438-15.894-11.354-15.655-11.283-15.466-11.22-15.276-11.15-15.087-11.122-14.995-11.094-14.904-11.059-14.82H-11.052C-11.045-14.785-11.031-14.75-11.017-14.715-10.947-14.518-10.876-14.322-10.792-14.132-10.778-14.083-10.764-14.034-10.743-13.992L-5.256-4.631C-4.821-4.133-4.365-3.649-3.894-3.179L-1.649-1.193C-1.123-.779-.575-.386-.007-.007Z" fill="#4c0f1f"/>
<path transform="matrix(1,0,0,-1,722.0962,639.4188)" d="M0 0C-3.34 5.515-5.649 13.192-11.992 15.845-14.175 15.571-15.094 12.49-16.609 11.066-29.268-4.877-44.116-20.09-62.192-29.542-45.948-15.073-33.24 2.793-17.669 17.936-7.193 27.128-1.481 7.459 0 0" fill="#4c0f1f"/>
<path transform="matrix(1,0,0,-1,798.7158,843.8546)" d="M0 0C3.158-1.319 6.905 1.326 9.992 1.67-9.326-12.904-7.817 15.795-10.049 27.71-11.761 34.398-14.918 40.98-19.178 46.397-23.213 50.418-29.43 50.355-34.643 49.527-18.273 57.842-7.557 41.689-4.161 27.458-1.951 18.63-5.965 7.564 0 0" fill="#4c0f1f"/>
<path transform="matrix(1,0,0,-1,854.9927,784.469)" d="M0 0C0-.547 .007-1.095 .007-1.642 .007-2.33 0-3.024-.007-3.712-.014-4.442-.028-5.165-.049-5.894-.056-6.154-.063-6.421-.077-6.68-.098-7.487-.133-8.287-.168-9.094-.218-10.224-.281-11.347-.358-12.469-.4-13.087-.442-13.697-.491-14.308-.667-16.574-.891-18.827-1.165-21.072-1.284-22.055-1.41-23.03-1.551-24.005-1.677-24.932-1.817-25.858-1.965-26.784-2.154-27.97-2.351-29.156-2.568-30.335-2.884-31.198-3.207-32.054-3.53-32.917-4.877-39.45-6.722-45.723-11.024-50.123-11.403-50.951-11.789-51.786-12.182-52.635-11.992-51.99-11.817-51.351-11.634-50.727-11.88-50.958-12.133-51.176-12.399-51.386H-12.406C-13.753-52.474-15.262-53.323-16.876-54.032-19.192-55.056-21.704-55.8-24.195-56.586H-24.202C-25.802-57.098-27.388-57.631-28.917-58.27-28.868-58.165-28.819-58.059-28.77-57.954-28.63-57.659-28.496-57.372-28.37-57.077-28.272-56.866-28.174-56.656-28.082-56.438-27.928-56.116-27.788-55.793-27.647-55.47-27.24-54.572-26.847-53.667-26.475-52.754-26.195-52.123-25.935-51.484-25.675-50.846-25.36-50.095-25.058-49.337-24.763-48.572-24.019-46.671-23.304-44.748-22.637-42.818-22.384-42.124-22.146-41.415-21.914-40.713-21.627-39.864-21.346-39.008-21.072-38.145-20.953-37.155-20.841-36.159-20.75-35.163-20.672-34.44-20.609-33.724-20.553-33.001-20.511-32.622-20.483-32.243-20.455-31.872-20.3-29.97-20.188-28.068-20.104-26.153-19.914-23.472-19.746-20.764-19.613-18.041-19.557-16.904-19.5-15.76-19.458-14.61-19.409-13.311-19.367-12.013-19.332-10.715-19.297-9.677-19.276-8.645-19.262-7.6-19.248-6.743-19.234-5.887-19.227-5.024-19.22-4.224-19.213-3.424-19.213-2.617-19.213-2.021-19.22-1.417-19.22-.814-19.227 .379-19.241 1.565-19.269 2.758-19.332 5.775-19.458 8.792-19.641 11.81-19.69 12.617-19.739 13.424-19.795 14.224-19.865 15.143-19.936 16.062-20.013 16.974-20.083 17.795-20.16 18.609-20.237 19.423-20.244 19.465-20.244 19.507-20.251 19.55-20.328 20.371-20.42 21.192-20.511 22.013-20.511 22.048-20.518 22.083-20.525 22.125-20.588 22.686-20.651 23.255-20.721 23.823-20.757 24.083-20.785 24.342-20.82 24.602-20.841 24.791-20.869 24.974-20.89 25.163-20.918 25.353-20.939 25.535-20.967 25.725-21.156 27.163-21.367 28.602-21.599 30.033-21.669 30.545-21.76 31.058-21.844 31.563-21.851 31.605-21.858 31.64-21.865 31.682-21.928 32.075-21.999 32.468-22.069 32.861-22.651 36.18-23.346 39.464-24.153 42.72-24.321 43.394-24.49 44.067-24.665 44.734-24.96 45.843-25.261 46.944-25.591 48.039-25.732 48.544-25.886 49.056-26.04 49.562-26.307 50.446-26.588 51.323-26.875 52.2-27.114 52.93-27.36 53.66-27.619 54.382-27.816 54.944-28.012 55.505-28.223 56.06-28.335 56.368-28.447 56.67-28.567 56.979-28.588 57.042-28.609 57.112-28.637 57.175-28.84 57.709-29.044 58.249-29.261 58.782-29.521 59.442-29.781 60.094-30.054 60.747-30.686 62.249-31.338 63.736-32.033 65.21-32.363 65.911-32.707 66.613-33.05 67.308-33.394 68.01-33.752 68.704-34.117 69.392-34.44 70.016-34.77 70.634-35.113 71.251-35.52 71.988-35.941 72.718-36.362 73.448-36.608 73.869-36.854 74.29-37.106 74.704-37.52 75.385-37.934 76.058-38.362 76.725-37.633 75.981-36.917 75.23-36.215 74.465-35.941 74.171-35.675 73.876-35.408 73.574-35.078 73.209-34.749 72.837-34.426 72.465V72.458C-34.082 72.072-33.752 71.68-33.422 71.287-33.198 71.027-32.98 70.767-32.77 70.501-31.654 69.153-30.587 67.778-29.556 66.375-29.142 65.813-28.735 65.252-28.335 64.676-27.535 63.54-26.756 62.389-26.005 61.217-25.626 60.635-25.261 60.045-24.897 59.456-24.167 58.277-23.465 57.077-22.784 55.863-22.525 55.4-22.265 54.937-22.013 54.467-21.907 54.27-21.802 54.074-21.697 53.877-21.402 53.323-21.107 52.761-20.82 52.193-20.764 52.095-20.714 51.997-20.665 51.891-20.399 51.372-20.146 50.853-19.886 50.327-18.764 48.025-17.718 45.674-16.757 43.288-16.638 43.008-16.525 42.72-16.413 42.432-15.746 40.755-15.122 39.064-14.532 37.352-14.469 37.162-14.406 36.973-14.343 36.784-14.273 36.587-14.203 36.391-14.139 36.187-13.971 35.696-13.81 35.198-13.648 34.7-13.62 34.615-13.592 34.524-13.564 34.44-13.739 36.229-13.936 38.012-14.167 39.801-14.238 40.383-14.315 40.966-14.392 41.541-14.392 41.555-14.399 41.569-14.399 41.583-14.525 42.51-14.659 43.429-14.799 44.355-14.869 44.825-14.946 45.295-15.024 45.765-15.192 46.846-15.374 47.927-15.571 49-15.669 49.597-15.781 50.193-15.894 50.783-16.329 53.098-16.806 55.414-17.339 57.716-17.466 58.312-17.606 58.908-17.753 59.505-18.006 60.593-18.279 61.68-18.56 62.761-18.616 62.992-18.672 63.217-18.736 63.448-18.869 63.961-19.009 64.473-19.15 64.985-19.15 65.006-19.157 65.02-19.164 65.041-19.339 65.687-19.514 66.333-19.704 66.978-20.188 68.711-20.7 70.43-21.248 72.15-21.479 72.915-21.732 73.672-21.984 74.43-22.006 74.507-22.034 74.592-22.062 74.669-22.132 74.886-22.202 75.104-22.279 75.321-22.518 76.051-22.77 76.774-23.023 77.504-23.163 77.904-23.304 78.297-23.451 78.697-24.111 80.556-24.805 82.402-25.535 84.24-25.795 84.928-26.075 85.608-26.363 86.296-26.482 86.605-26.609 86.914-26.742 87.222-27.065 88.022-27.402 88.815-27.746 89.608-27.191 88.787-26.644 87.966-26.104 87.138-25.619 86.394-25.135 85.644-24.665 84.886-24.405 84.479-24.153 84.072-23.907 83.658-23.669 83.279-23.437 82.9-23.213 82.521-22.995 82.163-22.777 81.805-22.567 81.44-21.395 79.461-20.272 77.462-19.192 75.441-18.911 74.914-18.63 74.381-18.35 73.848-18.272 73.7-18.195 73.553-18.125 73.406-17.76 72.704-17.409 72.002-17.059 71.301-16.82 70.823-16.581 70.339-16.35 69.855-15.466 68.038-14.624 66.206-13.81 64.361-13.255 63.098-12.722 61.835-12.196 60.557-12.168 60.487-12.14 60.417-12.111 60.347-11.831 59.652-11.55 58.958-11.283 58.263-10.989 57.526-10.708 56.789-10.434 56.045-10.154 55.302-9.88 54.565-9.62 53.821-8.877 51.758-8.182 49.681-7.529 47.59-7.473 47.407-7.417 47.232-7.361 47.05-7.031 46.004-6.722 44.951-6.421 43.892-6.287 43.443-6.161 42.994-6.035 42.538-5.824 41.78-5.621 41.022-5.417 40.257-5.291 39.766-5.165 39.275-5.045 38.783-4.842 38.026-4.659 37.268-4.484 36.51-4.407 36.187-4.33 35.864-4.252 35.535-4.189 35.268-4.126 35.001-4.07 34.735-3.845 33.752-3.628 32.77-3.431 31.787-3.354 31.423-3.277 31.058-3.207 30.693-3.081 30.061-2.954 29.43-2.835 28.791-2.014 24.434-1.375 20.041-.912 15.641-.87 15.269-.828 14.897-.793 14.525-.744 14.034-.695 13.543-.653 13.045-.596 12.448-.547 11.845-.505 11.248-.372 9.592-.267 7.936-.189 6.28-.175 6.021-.161 5.754-.154 5.487-.14 5.214-.126 4.933-.119 4.645-.105 4.435-.098 4.224-.098 4.014-.063 3.095-.035 2.168-.021 1.242-.014 .828-.007 .414 0 0" fill="#4c0f1f"/>
<path transform="matrix(1,0,0,-1,840.4323,794.2157)" d="M0 0C2.217-15.325 1.361-30.209-2.316-44.285-5.859-57.884-12.048-70.732-20.644-82.486-29.858-95.096-41.843-106.449-56.333-116.14-67.245-123.192-78.928-129.528-91.138-134.96-91.685-135.142-92.233-135.324-92.78-135.5-93.931-135.872-95.082-136.23-96.232-136.567-96.709-136.707-97.187-136.847-97.664-136.981-99.734-137.57-101.804-138.11-103.874-138.587-104.281-138.679-104.695-138.77-105.102-138.861-105.333-138.917-105.572-138.966-105.804-139.008-106.239-139.107-106.674-139.198-107.116-139.289-107.649-139.394-108.189-139.5-108.723-139.605-108.744-139.605-108.758-139.612-108.772-139.612-108.947-139.64-109.123-139.675-109.298-139.71-110.673-139.963-112.042-140.18-113.403-140.377-113.88-140.447-114.35-140.51-114.828-140.566-114.982-140.587-115.129-140.608-115.284-140.622-116.154-140.735-117.031-140.826-117.901-140.91-118.231-140.945-118.561-140.973-118.891-141.001-119.697-141.071-120.511-141.128-121.318-141.17-121.978-141.212-122.631-141.24-123.283-141.261-123.739-141.275-124.195-141.289-124.651-141.296-125.115-141.303-125.571-141.31-126.034-141.31-130.111-141.31-134.104-140.994-137.977-140.314-115.396-140.349-92.878-127.529-74.002-115.978-73.329-115.564-72.662-115.15-72.002-114.715-71.68-114.519-71.35-114.308-71.027-114.091-70.69-113.88-70.36-113.663-70.023-113.438-69.687-113.221-69.35-113.003-69.02-112.779-69.013-112.772-69.006-112.765-69.006-112.765-68.269-112.273-67.539-111.768-66.81-111.263-66.487-111.038-66.164-110.814-65.841-110.582-65.413-110.281-64.978-109.979-64.557-109.663-64.213-109.417-63.87-109.172-63.526-108.912-63.098-108.603-62.67-108.288-62.242-107.965-61.877-107.691-61.512-107.418-61.154-107.137-60.782-106.856-60.41-106.568-60.038-106.274-58.642-105.193-57.273-104.084-55.926-102.955-55.624-102.709-55.316-102.449-55.014-102.19-54.368-101.642-53.73-101.088-53.091-100.527-52.867-100.337-52.649-100.141-52.432-99.944-51.856-99.439-51.288-98.927-50.727-98.415-50.691-98.38-50.663-98.351-50.628-98.323-50.137-97.867-49.646-97.418-49.162-96.955-49.056-96.857-48.951-96.759-48.846-96.653-48.621-96.45-48.404-96.239-48.186-96.029-47.674-95.538-47.162-95.046-46.657-94.548-46.615-94.506-46.579-94.464-46.537-94.429-45.857-93.762-45.183-93.082-44.523-92.401-42.622-90.45-40.783-88.464-39.001-86.429-38.727-86.114-38.454-85.805-38.187-85.489-38.138-85.44-38.089-85.384-38.047-85.328-37.661-84.893-37.289-84.451-36.917-84.009-36.896-83.98-36.875-83.959-36.854-83.931-36.292-83.265-35.738-82.598-35.191-81.917-34.37-80.907-33.563-79.89-32.77-78.858-32.608-78.647-32.447-78.444-32.293-78.233-32.145-78.051-32.005-77.862-31.872-77.679-31.675-77.427-31.486-77.174-31.296-76.921-31.051-76.591-30.805-76.262-30.566-75.932-30.216-75.462-29.872-74.992-29.535-74.514-29.072-73.876-28.616-73.23-28.167-72.578-28.146-72.55-28.125-72.529-28.11-72.501-27.64-71.834-27.184-71.153-26.728-70.473-26.335-69.904-25.956-69.329-25.584-68.746-25.514-68.648-25.451-68.55-25.395-68.452-25.065-67.953-24.742-67.448-24.426-66.943-24.083-66.41-23.753-65.876-23.423-65.343-23.051-64.754-22.693-64.164-22.342-63.568-22.265-63.441-22.188-63.315-22.111-63.182-21.809-62.684-21.521-62.185-21.234-61.687-20.981-61.266-20.742-60.845-20.504-60.424-20.048-59.631-19.606-58.838-19.178-58.045-18.806-57.379-18.448-56.712-18.097-56.045-17.655-55.217-17.227-54.389-16.806-53.554-16.406-52.768-16.006-51.976-15.62-51.183-15.571-51.07-15.515-50.958-15.459-50.846-15.122-50.144-14.785-49.442-14.455-48.734-14.42-48.663-14.392-48.593-14.357-48.523-14.308-48.418-14.259-48.313-14.21-48.207-14.069-47.913-13.936-47.625-13.81-47.33-13.711-47.12-13.613-46.909-13.522-46.692-13.368-46.369-13.227-46.046-13.087-45.723-12.68-44.825-12.287-43.92-11.915-43.008-11.634-42.376-11.375-41.738-11.115-41.099-10.799-40.348-10.498-39.59-10.203-38.826-9.459-36.924-8.743-35.001-8.077-33.072-7.824-32.377-7.585-31.668-7.354-30.966-7.066-30.117-6.786-29.261-6.512-28.398-6.393-27.409-6.28-26.412-6.189-25.416-6.112-24.693-6.049-23.977-5.993-23.255-5.951-22.876-5.922-22.497-5.894-22.125-5.74-20.223-5.628-18.322-5.544-16.406-5.354-13.725-5.186-11.017-5.052-8.294-4.996-7.157-4.94-6.014-4.898-4.863-4.849-3.565-4.807-2.267-4.772-.968-4.737 .07-4.716 1.102-4.701 2.147-4.687 3.003-4.673 3.859-4.666 4.722-4.659 5.522-4.652 6.322-4.652 7.129-4.652 7.726-4.659 8.329-4.659 8.933-4.666 10.126-4.68 11.312-4.708 12.504-4.772 15.522-4.898 18.539-5.08 21.556-4.042 18.392-3.144 15.241-2.365 12.097V12.09C-1.361 8.035-.575 4.007 0 0" fill="#4c0f1f"/>
<path transform="matrix(1,0,0,-1,840.5937,742.88577)" d="M0 0C-.126 .926-.26 1.845-.4 2.772-.47 3.242-.547 3.712-.625 4.182-.793 5.263-.975 6.343-1.172 7.417-1.27 8.014-1.382 8.61-1.495 9.199-1.93 11.515-2.407 13.831-2.94 16.132-3.066 16.729-3.207 17.325-3.354 17.922-3.607 19.009-3.88 20.097-4.161 21.178-4.217 21.409-4.273 21.634-4.337 21.865-4.47 22.378-4.61 22.89-4.751 23.402-4.751 23.423-4.758 23.437-4.765 23.458-4.94 24.104-5.115 24.749-5.305 25.395-5.789 27.128-6.301 28.847-6.849 30.566-7.08 31.331-7.333 32.089-7.585 32.847-7.607 32.924-7.635 33.008-7.663 33.086-7.733 33.303-7.803 33.521-7.88 33.738-8.119 34.468-8.371 35.191-8.624 35.92-8.764 36.32-8.905 36.713-9.052 37.113-9.712 38.973-10.406 40.818-11.136 42.657-11.396 43.345-11.676 44.025-11.964 44.713-12.083 45.022-12.21 45.33-12.343 45.639-12.666 46.439-13.003 47.232-13.346 48.025-12.792 47.204-12.245 46.383-11.704 45.555-11.22 44.811-10.736 44.06-10.266 43.302-10.006 42.895-9.754 42.488-9.508 42.074-9.27 41.696-9.038 41.317-8.813 40.938-8.596 40.58-8.378 40.222-8.168 39.857-6.996 37.878-5.873 35.878-4.793 33.857-4.512 33.331-4.231 32.798-3.951 32.265-3.873 32.117-3.796 31.97-3.726 31.822-3.361 31.121-3.01 30.419-2.659 29.717-1.088 19.9-.218 9.929 0 0" fill="#4c0f1f"/>
<path transform="matrix(1,0,0,-1,840.6498,747.6854)" d="M0 0C.014-11.662-.863-23.241-2.582-34.433V-34.44C-3.256-38.861-4.056-43.218-4.989-47.499-4.954-46.46-4.933-45.429-4.919-44.383-4.905-43.527-4.891-42.671-4.884-41.808-4.877-41.008-4.87-40.208-4.87-39.401-4.87-38.804-4.877-38.201-4.877-37.598-4.884-36.405-4.898-35.219-4.926-34.026-4.989-31.008-5.115-27.991-5.298-24.974-5.347-24.167-5.396-23.36-5.452-22.56-5.522-21.641-5.593-20.721-5.67-19.809-5.74-18.988-5.817-18.174-5.894-17.36-5.901-17.318-5.901-17.276-5.908-17.234-5.986-16.413-6.077-15.592-6.168-14.771-6.168-14.736-6.175-14.701-6.182-14.659-6.245-14.097-6.308-13.529-6.379-12.961-6.414-12.701-6.442-12.441-6.477-12.182-6.498-11.992-6.526-11.81-6.547-11.62-6.575-11.431-6.596-11.248-6.624-11.059-6.814-9.62-7.024-8.182-7.256-6.75-7.326-6.238-7.417-5.726-7.501-5.221-7.508-5.179-7.515-5.144-7.522-5.101-7.585-4.708-7.656-4.316-7.726-3.923-8.308-.603-9.003 2.681-9.81 5.936-9.978 6.61-10.147 7.284-10.322 7.95-10.617 9.059-10.919 10.161-11.248 11.255-11.389 11.761-11.543 12.273-11.698 12.778-11.964 13.662-12.245 14.539-12.533 15.417-13.318 20.132-14.21 24.869-15.213 29.591-14.799 29.03-14.392 28.468-13.992 27.893-13.192 26.756-12.413 25.605-11.662 24.434-11.284 23.851-10.919 23.262-10.554 22.672-9.824 21.493-9.122 20.293-8.442 19.079-8.182 18.616-7.922 18.153-7.67 17.683-7.564 17.487-7.459 17.29-7.354 17.094-7.059 16.539-6.764 15.978-6.477 15.41-6.421 15.311-6.372 15.213-6.322 15.108-6.056 14.589-5.803 14.069-5.544 13.543-4.421 11.241-3.375 8.891-2.414 6.505-2.295 6.224-2.182 5.936-2.07 5.649-1.403 3.972-.779 2.281-.189 .568-.126 .379-.063 .189 0 0" fill="#4c0f1f"/>
<path transform="matrix(1,0,0,-1,820.567,712.0106)" d="M0 0C.112-1.032 .211-2.049 .309-3.066-.014-2.442-.344-1.824-.688-1.207-1.095-.47-1.516 .26-1.937 .989-2.182 1.41-2.428 1.831-2.681 2.245-3.095 2.926-3.509 3.6-3.937 4.266-3.207 3.523-2.491 2.772-1.789 2.007-1.516 1.712-1.249 1.417-.982 1.116-.653 .751-.323 .379 0 .007Z" fill="#4c0f1f"/>
<path transform="matrix(1,0,0,-1,503.6332,683.03)" d="M0 0C1.319 1.424 2.779 3.305 4.323 4.28-4.694-10.203-11.066-26.482-15.045-43.057-18.722-65.575-16.364-88.85-17.367-111.445-26.96-66.445-32.089-37.513 0 0" fill="#4c0f1f"/>
<path transform="matrix(1,0,0,-1,858.6276,727.4271)" d="M0 0C9.817-29.402 4.407-58.354-6.203-87.377-10.764-112.428-21.423-136.209-38.341-155.906-41.071-160.032-43.906-164.066-46.769-168.017-45.913-166.137-45.071-164.256-44.25-162.361-48.734-166.943-53.596-171.266-58.831-175.287-72.529-185.328-90.598-195.454-109.333-201.748-169.364-228.469-242.068-233.48-297.749-196.205-241.297-222.715-164.768-209.671-106.94-180.002-73.139-164.403-47.913-143.331-34.44-116.182-35.956-116.947-37.38-117.88-38.643-119.059-44.923-129.493-56.403-141.317-68.831-132.118-74.36-127.858-80.198-119.15-77.49-112.245-75.3-102.099-71.904-90.219-78.037-80.879-97.067-82.844-96.85-91.531-117.648-83.581-124.357-84.766-132.826-86.324-136.672-92.569-143.198-103.642-149.001-115.74-157.786-125.213-165.975-131.921-159.751-137.212-155.113-143.724-149.373-149.485-149.948-158.804-157.884-162.235-159.063-162.607-160.214-162.846-161.344-162.951-161.561-163-161.793-163.049-162.039-163.084-162.123-163.063-162.207-163.042-162.291-163.014H-162.298C-174.782-163.498-184.542-149.12-193.882-142.236-201.924-134.868-205.895-133.549-216.519-135.598-219.859-135.774-223.143-135.163-226.469-135.212-226.841-135.289-227.213-135.381-227.585-135.465-231.178-137.17-234.504-139.38-238.076-141.149-251.941-149.618-267.512-143.598-281.196-137.998-290.599-134.419-300.044-141.591-309.734-140.496-319.144-140.356-343.535-131.037-346.427-121.985-348.546-114.785-341.872-108.582-334.947-108.554-324.561-108.575-314.155-116.196-303.756-111.965-291.399-100.295-291.153-72.557-270.698-69.792-259.19-68.845-249.093-76.662-238.335-78.219-232.827-74.234-231.29-66.957-227.045-61.814-216.688-46.411-203.783-38.524-185.188-37.984-181.848-34.37-182.058-28.496-180.662-23.914-175.308 3.172-164.088 15.157-136.475 2.765-135.016 9.473-137.072 16.28-138.23 22.883-140.3 33.156-141.675 43.583-142.342 54.039-143.296 66.761-142.25 80.64-149.66 91.734-186.514 53.744-248.98 23.479-296.654 60.305-297.531 60.964-298.598 61.582-299.272 62.27-256.531 36.061-208.471 57.765-175.827 89.44-167.547 95.952-162.207 105.811-153.225 111.298-138.18 116.94-127.9 91.769-125.522 80.297-111.438 57.238-96.955-4.526-71.644-13.48-65.034 6.701-79.595 25.121-86.198 43.295-90.071 54.375-86.366 65.778-82.774 76.402-80.254 82.128-77.398 87.798-73.644 91.769-78.458 97.853-84.107 103.376-90.829 108.14-91.685 108.856-92.857 109.46-93.573 110.126-83.875 106.59-75.869 101.509-69.238 95.292-68.95 95.46-68.655 95.615-68.36 95.755-78.928 110.196-91.692 121.571-106.891 128.069-104.288 128.82-101.313 127.5-98.758 126.743-82.016 119.648-68.122 109.193-56.859 96.429-55.828 96.134-54.754 95.748-53.646 95.264-70.367 116.238-89.524 131.297-115.136 139.928-146.503 154.004-154.572 149.773-181.995 131.486-197.594 121.887-214.26 113.838-231.999 109.06-271.077 96.716-315.278 127.241-346.883 91.391V91.405C-327.607 122.02-293.118 117.157-260.439 117.62-246.566 118.35-233.381 123.157-220.961 129.121-182.451 146.39-163.863 181.869-117.648 161.54-100.639 155.057-83.335 148.418-68.662 137.373-25.507 102.478 .94 55.905 0 0M-22.967-67.757C-23.002-69.055-23.044-70.353-23.093-71.651-23.037-70.36-22.995-69.062-22.967-67.757M-23.43-42.818C-23.374-43.618-23.325-44.425-23.276-45.232-23.318-44.425-23.374-43.618-23.43-42.818M-23.872-37.619C-23.795-38.433-23.718-39.247-23.648-40.068-23.718-39.254-23.788-38.433-23.872-37.619M-24.356-33.219C-24.286-33.787-24.223-34.356-24.16-34.917-24.216-34.349-24.286-33.78-24.356-33.219M-24.707-95.187C-24.981-96.05-25.262-96.906-25.549-97.755-25.255-96.906-24.974-96.05-24.707-95.187M-32.651-115.522C-32.98-116.231-33.317-116.933-33.654-117.634-33.31-116.933-32.973-116.231-32.651-115.522M-35.668 8.168C-35.998 8.87-36.334 9.571-36.685 10.266-36.341 9.571-35.998 8.87-35.668 8.168M-71.287-167.315C-71.925-167.877-72.564-168.431-73.209-168.978-72.564-168.431-71.918-167.877-71.287-167.315M-78.234-173.062C-78.605-173.357-78.977-173.645-79.349-173.925-78.977-173.645-78.598-173.364-78.234-173.062M-80.437-174.754C-80.865-175.076-81.293-175.392-81.721-175.701-81.293-175.399-80.858-175.076-80.437-174.754M-158.593-161.456C-158.551-161.414-158.516-161.372-158.488-161.33-158.558-161.414-158.635-161.498-158.719-161.582-158.67-161.54-158.628-161.498-158.593-161.456M-158.79-161.653C-158.853-161.723-158.93-161.786-159.007-161.849-158.93-161.793-158.853-161.723-158.79-161.653M-159.66-103.432-159.316-102.309C-159.442-102.681-159.555-103.053-159.66-103.432-159.779-103.804-159.884-104.169-159.983-104.548-159.877-104.176-159.772-103.797-159.66-103.432M-244.966-139.317C-244.966-139.317-244.959-139.317-244.959-139.31-244.966-139.317-244.981-139.317-244.988-139.317L-244.981-139.324C-244.974-139.324-244.974-139.317-244.966-139.317" fill="#4c0f1f"/>
<path transform="matrix(1,0,0,-1,550.2321,927.558)" d="M0 0C-86.924 45.085-126.922 159.125-79.124 246.327-72.525 257.469-63.188 271.055-49.617 272.709-84.192 254.544-85.87 188.003-82.819 153.493-75.794 92.249-47.647 38.87 0 0" fill="#d6a5b1"/>
<path transform="matrix(1,0,0,-1,628.04,674.97268)" d="M0 0C-17.258-5.91-36.494-8.045-53.664-.664-68.241 5.875-80.886 17.807-96.963 20.395-61.99 21.073-56.011-5.925 0 0" fill="#d6a5b1"/>
<path transform="matrix(1,0,0,-1,636.5961,597.3598)" d="M0 0C-41.872-27.489-99.856-2.191-133.108-33.124-148.212-45.601-160.015-60.336-167.023-78.48-163.833-54.08-145.476-26.089-124.329-13.27-85.767 7.183-39.83-15.143 0 0" fill="#d6a5b1"/>
<path transform="matrix(1,0,0,-1,553.3786,704.14236)" d="M0 0C29.337-21.113 24.562-79.389 1.599-103.89-10.661-117.763-30.418-119.542-41.4-103.058-53.359-84.681-52.075-60.236-45.71-40.046-43.561-18.506-25.425 14.671 0 0" fill="#ad4b64"/>
<path transform="matrix(1,0,0,-1,643.8012,702.4828)" d="M0 0C7.201 3.055 10.709-10.251 4.789-13.446-1.55-16.211-4.819-2.809 0 0" fill="#d6a5b1"/>
<path transform="matrix(1,0,0,-1,613.4933,774.0906)" d="M0 0C9.672 .321 17.974-14.523 7.227-19.399-6.307-24.501-18.284 .063 0 0" fill="#ad4b64"/>
<path transform="matrix(1,0,0,-1,590.7131,848.9824)" d="M0 0C7.258 6.556 21.906-4.19 14.266-12.343 10.12-16.311 1.489-15.3-.887-9.863-2.49-6.667-3.03-2.534 0 0" fill="#ad4b64"/>
<path transform="matrix(1,0,0,-1,495.8247,818.1555)" d="M0 0C9.428 2.522 13.888-15.505 8.471-21.242 2.721-26.799-2.838-17.636-2.852-12.193-3.561-8.095-4.4-2.307 0 0" fill="#ad4b64"/>
<path transform="matrix(1,0,0,-1,537.4061,716.3718)" d="M0 0C9.23-3.967 12.192-15.245 14.328-24.187 17.728-41.488 17.277-61.113 8.244-76.683 1.291-87.822-11.034-86.245-16.016-74.341-20.293-64.674-20.854-53.781-20.371-43.357-19.357-34.506-18.962-25.423-17.333-16.689-15.607-8.717-10.401 3.576 0 0" fill="#d6a5b1"/>
<path transform="matrix(1,0,0,-1,607.4138,791.7364)" d="M0 0C-9.076 8.865 3.354 22.417 12.981 14.203 22.057 5.336 9.627-8.214 0 0" fill="#d6a5b1"/>
<path transform="matrix(1,0,0,-1,643.6634,708.1903)" d="M0 0C-1.839 1.702 .724 4.511 2.592 2.836 4.431 1.133 1.867-1.676 0 0" fill="#d6a5b1"/>
<path transform="matrix(1,0,0,-1,595.5661,856.5069)" d="M0 0C-1.839 1.702 .724 4.511 2.592 2.836 4.43 1.134 1.867-1.676 0 0" fill="#d6a5b1"/>
<path transform="matrix(1,0,0,-1,494.924,823.4613)" d="M0 0C-1.839 1.702 .725 4.512 2.592 2.836 4.43 1.133 1.867-1.676 0 0" fill="#d6a5b1"/>
<path transform="matrix(1,0,0,-1,648.1312,710.7081)" d="M0 0C-.471-.235-1.191-.293-1.709-.157-2.376 .005-2.925 .358-3.353 .827-6.41 1.125-5.037 4.533-3.824 6.107-.613 8.724 3.572 1.929 0 0" fill="#d6a5b1"/>
<path transform="matrix(1,0,0,-1,599.687,857.91079)" d="M0 0C-.302-.082-.611-.144-.925-.186-1.953-1.451-4.09-1.009-4.725 .436-6.087 1.178-7.317 2.218-8.133 3.548-9.057 5.747-6.484 6.949-4.747 5.918-.819 11.116 6.467 2.5 0 0" fill="#d6a5b1"/>
<path transform="matrix(1,0,0,-1,779.9915,722.3784)" d="M0 0C-4.061 6.242-6.994 13.274-9.686 20.108-13.651 29.212-20.892 37.602-21.654 47.654-19.55 38.616-12.852 31.671-8.938 23.494-5.65 15.84-3.438 7.454 0 0" fill="#d6a5b1"/>
<path transform="matrix(1,0,0,-1,698.897,922.4013)" d="M0 0C-24.765-5.838-50.459-7.236-75.392-1.624-75.985-1.446-76.856-1.393-77.237-1.074-75.326-1.455-73.326-1.502-71.377-1.635-47.626-3.51-23.557-2.012 0 0" fill="#d6a5b1"/>
<path transform="matrix(1,0,0,-1,793.1185,923.7278)" d="M0 0C-137.256-114.373-346.978-25.965-360.589 152.238-365.316 207.588-345.941 264.175-308.702 305.346-301.45 308.945-293.856 311.881-286.271 314.701-369.864 221.288-359.364 73.586-253.224 2.041-143.932-71.094 5.106-21.407 48.433 102.789 87.887 217.765 18.754 337.942-98.769 365.774-81.214 366.643-64.192 365.754-46.799 364.086-23.232 352.753-1.029 337.93 17.154 319.023 106.703 229.126 96.575 80.691 0 0" fill="#4c0f1f"/>
<path transform="matrix(1,0,0,-1,768.2607,571.4966)" d="M0 0C-.054 .035-.109 .07-.163 .107-.044 .033 .071-.037 .181-.11 .121-.073 .06-.036 0 0" fill="#4c0f1f"/>
<path transform="matrix(1,0,0,-1,779.1639,590.9479)" d="M0 0C-87.392 57.197-120.599-23.273-201.235-16.027-217.957-15.234-235.204-14.057-251.336-19.451-280.432-30.381-302.729-55.001-319.587-80.251-308.932-57.074-293.194-33.44-271.938-17.938-256.874-12.444-241.836-6.443-225.946-3.793-217.995-2.768-209.952-2.834-201.953-2.434-185.864-1.618-169.69 1.432-154.557 7.021-137.126 13.193-121.027 22.382-104.154 29.813-95.624 33.422-85.341 32.742-76.751 33.306-62.777 33.427-48.819 32.853-34.927 31.511-26.215 28.776-18.46 23.853-10.604 19.271 17.968 2.624 37.7-25.749 58.235-50.739 39.509-32.993 20.414-15.733 0 0" fill="#4c0f1f"/>
<path transform="matrix(1,0,0,-1,662.6273,658.34878)" d="M0 0C-15.523-10.139-33.772-16.416-52.448-15.906-71.796-15.526-93.91-10.612-107.398 3.734-107.395 3.73-107.392 3.725-107.39 3.722-107.39 3.722-107.395 3.727-107.396 3.727-82.747-11.209-50.723-8.764-24.062-.677-.643 6.729 19.096 22.448 35.612 40.038 26.605 24.676 14.788 10.118 0 0" fill="#4c0f1f"/>
<path transform="matrix(1,0,0,-1,808.8726,611.7343)" d="M0 0C-27.043 24.951-61.449 52.909-100.486 45.246-120.571 39.807-137.898 27.534-156.854 19.276-174.643 10.923-193.936 5.966-213.565 4.952-229.071 4.022-244.657 3.962-260.179 4.321-271.245 4.604-282.55 4.287-293.047 .411-309.291-6.537-324.872-17.52-335.784-31.333-325.407-12.413-306.657 5.404-285.476 12.64-266.503 18.11-245.889 17.397-226.592 20.103-190.185 21.632-159.319 38.601-126.96 53.202-75.818 77.646-28.873 40.112 0 0" fill="#4c0f1f"/>
<path transform="matrix(1,0,0,-1,656.4577,578.4911)" d="M0 0C-63.324-50.331-141.45-3.195-189.013-65.999-164.199-12.597-108.327-16.267-58.012-14.165-37.455-14.434-18.615-7.111 0 0" fill="#4c0f1f"/>
<path transform="matrix(1,0,0,-1,361.1033,552.13809)" d="M0 0C.102-.1 .203-.201 .302-.299 .201-.2 .101-.1 0 0" fill="#4c0f1f"/>
<path transform="matrix(1,0,0,-1,637.6413,644.87319)" d="M0 0C4.755 119.261-11.649 240.113-50.118 353.184-73.211 420.414-99.231 555.143-146.336 603.027-153.332 601.231-160.167 598.796-166.785 595.926-150.091 529.978-152.448 461.856-160.451 394.836-171.67 290.008-206.047 173.44-272.882 89.192-277.08 93.213-280.742 96.907-284.743 101.007-193.408 216.187-150.244 439.701-181.246 582.635-183.688 592.08-186.972 604.62-176.187 610.107-166.363 614.24-151.115 622.275-140.687 619.18-92.255 586.733-62.966 449.886-44.424 392.626-8.999 289.41 13.941 182.392 17.218 73.041 18.474 47.934 18.509 22.77 16.825-2.33 16.713-6.954 16.53-13.747 14.138-18.231 13.604-18.546 13.071-18.862 12.538-19.171 10.194-20.483 7.78-21.641 5.324-22.722-3.721-18.876-.079-7.614 0 0" fill="#4c0f1f"/>
<path transform="matrix(1,0,0,-1,625.5242,670.9584)" d="M0 0C-1.846 .084-3.567 .859-5.419 .869-9.564 128.195-29.347 255.503-64.136 378.684-82.472 447.444-100.316 516.984-132.188 580.923-135.724 586.958-141.464 596.157-132.749 600.599-123.802 604.508-120.413 594.873-117.08 588.551-94.731 544.582-79.826 497.294-65.982 450.083-41.464 361.015-17.473 271.442-3.831 179.953 4.337 123.465 9.62 66.395 9.698 9.29 9.98 5.625 8.856 2.391 7.055 .115 4.692-.362 2.298-.401-.084 .007L0 0C0 0 0 0 0 0" fill="#4c0f1f"/>
<path transform="matrix(1,0,0,-1,393.9184,577.7649)" d="M0 0C-11.478 7.217 2.728 19.713 6.757 27.452 86.159 144.565 95.197 289.886 95.657 426.969 95.657 426.797 95.657 426.627 95.657 426.457 95.657 426.266 95.657 426.075 95.658 425.882 95.293 450.25 95.492 474.987 91.094 498.972 88.418 505.734 96.541 512.747 102.879 509.259 113.654 505.23 111.804 439.656 112.561 427.209 112.148 287.915 102.588 140.576 22.968 21.387 16.647 13.525 12.38-2.233 0 0" fill="#4c0f1f"/>
<path transform="matrix(1,0,0,-1,401.8295,576.6645)" d="M0 0C-4.391 .322-8.386 2.45-12.034 4.673-23.82 11.331-35.112 18.964-45.618 27.451-45.919 27.877-45.921 28.703-45.246 28.7-44.259 28.76-43.62 27.827-42.852 27.344-42.684 28.005-41.67 28.122-41.355 27.558-31.802 18.371-20.53 10.823-8.315 5.725-7.075 5.001 5.495 1.244 0 0" fill="#4c0f1f"/>
<path transform="matrix(1,0,0,-1,624.1003,665.4326)" d="M0 0C-.745 .287-.688 1.367 .056 1.614 1.038 1.705 2.072 1.616 3.083 1.774 3.911 3.101 6.162 2.738 7.438 3.249 14.495 4.795 21.459 6.802 28.461 8.456 31.54 6.779 24.717 5.574 23.634 5.08 15.916 2.945 8.097-.136 0 0" fill="#4c0f1f"/>
<path transform="matrix(1,0,0,-1,638.6773,620.8847)" d="M0 0C-.198-6.736-.449-13.473-.826-20.191-.898-21.449-.97-22.724-1.042-23.982-1.078-28.778-2.551-35.011-1.365-39.933-2.066-40.113-2.748-40.293-3.467-40.454-3.341 109.579-38.748 256.433-79.13 400.017-92.98 447.225-107.89 494.506-130.237 538.481-132.752 543.241-135.303 549.906-140.243 551.199-141.105 552.026-142.057 552.6-143.045 552.924-148.937 554.882-156.267 548.613-153.662 542.092-149.279 518.236-149.458 493.644-149.117 469.41-150.177 340.898-156.446 205.29-224.798 92.226-229.056 84.933-233.439 77.693-238.002 70.562-240.696 65.388-247.954 58.077-249.014 51.646-251.834 52.957-254.618 54.412-257.313 55.993-262.63 59.083-267.678 62.639-272.402 66.592-205.955 154.165-173.224 263.78-161.494 370.843-157.812 401.597-155.332 432.585-155.332 463.501V463.896C-155.332 469.249-155.422 474.62-155.584 479.955-156.5 510.871-160.147 541.643-167.818 571.947-161.207 574.804-154.362 577.247-147.375 579.043-141.842 573.421-136.614 566.612-131.656 558.852-94.202 500.47-71.532 388.538-51.161 329.204-22.275 246.534-7.527 159.823-1.994 72.573-.467 48.43 .682 24.197 0 0" fill="#f5dfa2"/>
<path transform="matrix(1,0,0,-1,485.0154,78.792728)" d="M0 0C4.383-23.856 4.204-48.448 4.545-72.681 3.485-201.194-2.784-336.802-71.136-449.866-75.394-457.159-79.777-464.399-84.34-471.53-87.034-476.704-94.292-484.015-95.352-490.446-98.172-489.135-100.956-487.68-103.651-486.099-13.814-401.31-.179-215.206-1.671-78.591V-78.196C-1.724-72.753-1.814-67.4-1.922-62.137-2.263-44.478-2.856-27.826-3.503-12.521-2.695-3.827-8.515 14.981 4.204 15.341 7.814 14.999 9.682 13.257 10.616 10.832 4.725 12.79-2.605 6.521 0 0" fill="#b8a77a"/>
<path transform="matrix(1,0,0,-1,638.6773,620.8847)" d="M0 0C-.198-6.736-.449-13.473-.826-20.191-2.964 98.567-24.197 215.78-57.843 329.653-77.406 403.933-96.555 477.746-129.375 547.211-131.441 550.714-133.453 555.277-131.656 558.852-94.202 500.47-71.532 388.538-51.161 329.204-22.275 246.534-7.527 159.823-1.994 72.573-.467 48.43 .682 24.197 0 0" fill="#b8a77a"/>
</g>
</g>
</g>
</svg>
