<?xml version="1.0" encoding="UTF-8"?>
<svg id="Vrstva_1" data-name="Vrstva 1" xmlns="http://www.w3.org/2000/svg" viewBox="0 0 141.73 141.73">
  <defs>
    <style>
      .cls-1 {
        fill: #9e2240;
      }
    </style>
  </defs>
  <g>
    <path class="cls-1" d="M115.97,95.41c.14,31.15-90.92,28.25-90.17,0-12.27-2.51-19.92-2.75-19.92,6.83,0,18.7,29.1,33.86,64.99,33.86,35.89,0,64.99-15.16,64.99-33.86,0-9.57-7.63-9.34-19.89-6.84Z"/>
    <path class="cls-1" d="M63.31,32.65c-7.05-.93-15.64-1.88-20.76-7.09-3.15-3.39-2.04-7.63,1.35-10.32,9.8-6.91,23.64-6.5,35.09-5.34,19.91,2.51,17.04,13.49-2.46,12.86-2.17.04-12.03-1.24-7.09-3.11,3.37-1.18,9.63,1.9,12.73.1,1.51-1.38-1.7-2.18-6.34-2.7-7.04-.71-20.14-.32-24.7,2.69-4.85,4.12,9,6.42,14.12,7.08,12.8,1.53,26.02,1.49,38.66-1.22,4.51-1.03,7.7-2.38,9.71-3.87.41-.76.63-1.54.63-2.33,0-7.6-19.43-13.77-43.39-13.77-23.97,0-43.39,6.16-43.39,13.77,0,6.64,14.83,12.19,34.56,13.48,2.85.19,3.91,0,1.27-.21Z"/>
    <g>
      <path class="cls-1" d="M31.64,69.23c-.28,2.76.78,9.24,1.45,12.67.8,3.76,2.04,4.16,5.38,4.29,12.06-.23,47.1-2.64,69.83-20.31,1.71-1.33,4.21-12.92,4.63-15.2.5-4.25,1.76-9.23,1.19-12.09-.52-.52-1.55.42-1.89.92-14.19,20.35-58.28,30.26-78.33,28.79-.92-.1-1.98-.32-2.23.83l-.02.1Z"/>
      <path class="cls-1" d="M27.63,28.18c-2.42-2.27-1.64,1.66-1.39,4.45,1.41,6.91.32,18.47,8.89,22.88,24.69,12.69,98.26-6.71,95.65-15.48-.94-3.18,1.04-13.46,3.03-16.4.87-1.28-1.78-3.47-2.34-2.55-12.45,20.3-84.77,24.98-103.85,7.11Z"/>
    </g>
  </g>
  <path class="cls-1" d="M37.54,83.65c-4.99-3.75-4.27-1.72-3.73,4.51.68,4.51.86,9.09,3.21,12.54,4.53,5.3,42.93,15.43,64.45,2.87,5.97-3.49,5.69-10.83,6.63-17,.7-6.65,0-4.36-4.21-2.72-25.91,10.1-60.27,4.3-66.35-.19Z"/>
</svg>