<?xml version="1.0" encoding="UTF-8"?>
<svg id="Vrstva_1" data-name="Vrstva 1" xmlns="http://www.w3.org/2000/svg" viewBox="0 0 141.73 141.73">
  <defs>
    <style>
      .cls-1 {
        fill: #fff;
      }
    </style>
  </defs>
  <path class="cls-1" d="M40.11,59.06l.11-.05c.66-1.37,11.44-23.53,13.69-22.98,2.31.57-12.31,23.28-5.45,25.49,5.3,1.71,17.02-25.78,19.94-24.79,2.05.69-8.48,14.06-10.52,19.34-1.46,3.46-2.13,7.31-.81,10.93,2.23,7.18,11.92,10.63,18.8,10.79.23,0,.46.02.7.02,6.85.09,19.39-.28,23.32-8.68,5.5-11.75-12.02-11.41-13.45-6.03-.38,1.44,2,2.35,2.37.99.36-1.37,2.85-3.93,5.05-3.55,3.4.58,1.6,11.29-4.96,14.19-6.34,2.8-10.48,2.42-15.14,1.9-7.1-.78-14.12-5.28-12.85-13.63.94-6.19,13.49-23.95,13.82-26.06.4-2.61-7.04-2.55-8.79-1.43-1.79,1.14-14,23.79-15.78,22.85-1.78-.94,12.14-23.32,10.21-23.9-3.09-.92-7.38-.66-8.42.63-1.5,1.87-6.39,8.73-8.37,14.78,2.28-6.98.91-11.23-1.03-13.74-1.44-1.88-3.18-2.69-3.87-2.97,0,0-.11-.04-.22-.09-1.89-.71-12.26-2-16.66,4.75-2.68,4.11-2.56,10.29-.25,11.88.64.44,1.47.56,1.62.55,1.58-.09,3.61-1.37,4.74-2.46,2.48-1.7,1.27-4.26.69-5.51-1.58-3.43-3.51,6.53-4.74,6.39-1.23-.14,1.52-11.32,5.85-13.5,3.02-1.52,7.64-1.8,10.03.62,3.15,3.19.99,9.67,0,12.94-1.46,4.8-4.76,10.04-5.06,10.74l.05.05c.41-.13,2.45-.81,5.4-.48Z"/>
  <path class="cls-1" d="M80.73,62.29l-.13.21-.16.26c-.08.16-.15.32-.21.49-.12.35-.19.73-.17,1.1.02.38.12.75.31,1.08.18.32.45.6.77.79.32.19.69.28,1.07.29,1.58,0,2.91-1.39,3.15-2.89.13-.76-.04-1.61-.57-2.19-.5-.55-1.27-.77-2-.64-.57.11-1.09.4-1.5.8-.21.21-.4.45-.55.7Z"/>
  <path class="cls-1" d="M74.27,50.99c-3.5,6.32-8.26,4.32-8.47,4.3-.47-.03-.78.56-.48.93.95.78,2.35.59,3.49.44,1.48-.18,2.8-.88,3.92-1.85-.09.16-7.24,10.88-1.62,11.98,3.08.6,9.37-5.59,11.01-8.95.26-.53-.21-1.11-.75-.77-2.4,3.34-5.95,6.79-7.42,7.4-2.21.78,1.15-4.09,1.5-4.66.78-1.13,1.67-2.18,2.58-3.2,1.07-1.27,2.7-2.8,2.16-4.61-.39-1.28-4.7-2.13-4.83-2.16-2.48-6.71-8.43-.7-1.08,1.16ZM74.55,49.95c-.73.37-3.39-1.37-2.43-2.31.97-.95,2.48,2.28,2.43,2.31Z"/>
  <path class="cls-1" d="M134.68,26.95c-7.55,4.1-30.99-7.49-33.72-16.51-.35-1.15-.81.22-1.24,1.14-.8,2.41-3.23,5.83-1.35,8.75,2.56,3.97,9.81,7.68,16.84,10.14-7.41-.65-15.56-3.67-19.53-6.37-.27-.2-.56-.46-.84-.14l-.02.03c-.58.81-1.42,3.03-1.83,4.22-.06.17-.1.33-.13.47-.2.33-.44.89-.77,1.61-.6,1.53-1.37,2.99-1.26,4.5.46,2.47,10.63,12.56,19.62,12.52,2.5-.01,3.73-2.36,5.14-4.12,1.42-1.95.79-1.36-.82-1.61-8.19-1.25-16.2-6.92-19.37-10.27,4.76,2.43,14.8,6.73,23.98,5.46.77-.11,3.65-3.28,4.19-3.91h0c4.18.87,7.24.95,7.49-.11.28-1.16,2.75-4.02,3.91-4.58.5-.24.07-1.4-.27-1.22Z"/>
  <path class="cls-1" d="M110.86,18.11c.86.57,1.22.7.44.16-2.03-1.56-4.55-3.41-5.21-5.96-.37-1.63.74-2.75,2.28-2.98,4.31-.39,8.56,2.23,11.93,4.66,5.77,4.38,2.89,7.29-3.09,3.57-.68-.38-3.53-2.56-1.65-2.25,1.27.24,2.67,2.33,3.96,2.33.72-.16-.14-.99-1.49-1.99-2.07-1.49-6.24-3.73-8.2-3.61-2.26.41,1.65,3.63,3.13,4.76,3.72,2.79,7.86,5.16,12.3,6.59,1.6.49,2.83.65,3.73.54.26-.16.47-.37.62-.61,1.37-2.38-3.59-7.8-11.07-12.13-7.49-4.32-14.67-5.9-16.04-3.53-1.2,2.08,2.44,6.48,8.37,10.45Z"/>
  <path class="cls-1" d="M134.06,75.44c-1.82-.16-5.11-.36-5.71.79-12.85,23.52-15.59,20.42-12.66,13.48,1.12-2.64,5.68-10.71,6.55-13.06.12-.31-.12-.64-.45-.64-1.5,0-3.53.12-4.85.39-.6.13-1.15.46-1.42,1.02-1.07,1.69-2.05,3.42-3.09,5.12-1.64,2.5-9.26,14.99-11.92,15.26-4.23-.09,11.64-26.71,14.98-32.4,1.22-2.08,4.09-5.29.83-4.3-5.19,1.57-4.83,3.26-6.39,5.78,0,0-6.58,11.64-8.45,14.94-1.43-6.84-8.85-3.02-12.43.7-3.58,3.71-8.52,14.88-12.47,14.97-1.87.04,4.47-10.41,4.04-13.36-.27-2.33-2.23-4.35-4.65-4.21-2.24.2-4.08,1.84-5.67,3.3.51-1.6.26-2.62-.27-2.48.14-.09-3.96.54-5.34,1.13-1.76.25-10.04,19.34-12.17,18.62-1.22-.41,1.03-8.42,2.3-11.15,1.27-2.73,2.56-5.47,2.98-6.38.07-.15-.05-.32-.22-.3-1,.13-3.75.74-5.53,1.27-.78.23-.81,1.5-1.25,2.17-2.14-7.3-18.4,1.02-18.41,14.51-.61,1.33-3.31,5.01-4.33,6.05-1.13,1.14-3.98,3.18-6.53,2.39-1.86-.57-2.8-2.48-3.15-3.21-4.36-8.89,6.61-38.41,18.97-42.83.94-.34,3.5-1.25,4.74-.11,1.8,1.67-.4,6.66-1.02,8.06-1.74,3.94-4.43,6.75-4.94,6.45-.69-.41,4.3-9.39,1.02-8.99-3.28.4-5.52,3.95-4.4,6.69,2.94,7.21,9.92,1.58,11.28-2.78,1.28-4.1.99-8.59-1.66-10.45-3.46-2.43-12.23-2.22-23.2,11.42C.38,96.62,5.52,117.06,15.65,117.33c8.46.22,15.03-8.26,17.76-12.57.71.98,1.86,1.54,3.6,1.34,6.28-1.09,9.63-7.33,10.2-9.06.21,2.96.52,5.48,4.1,5.61,2.4.05,5.44-3.11,6.42-5.41-1.97,4.66-.97,4.89,2.73,4.54,1.69-.16,2.08-.89,2.09-.9.15-.33,10.08-19.67,13-17.73,1.41.92-1.4,5.91-4.4,12.92-2.19,5.14,2.57,4.53,4.08,4.1,3.12-.68,5.4-3.16,7.1-5.72-.65,3.23,1.75,5.99,5.05,5.64,3.01-.13,5.45-2.15,7.37-4.31.04,2.97,2.97,4.54,5.56,3.88,3.3-1.01,5.77-3.99,7.98-6.54-.49,2.13-.38,4.75,1.64,6.05,1.86,1.02,4.15.86,6.02-.07-1.31,2.17-4.94,7.79-4.96,7.8-2.94-.85-8.33-1.44-11.69-1.6h-.09c-17.69-.81-46.65,3.37-88.07,21.75-2.47,1.1-2.25,3.92-.72,6.15,1.54,2.24,4.78,2.45,7.18,1.19,31.69-16.69,54.34-23.08,70.14-24.88-1.57,1.96-2.21,4.63-1.71,8.02.65,4.37,4.26,8.18,8.81,8.25h.2c7.09.11,14.14-6.08,20.31-14.13,2.93,1.02,4.39,1.89,4.74,1.64,1.29-.91.4-2.64-2.81-4.26,8.87-12.47,15.61-28.06,17.49-32.4.23-.54-.13-1.15-.72-1.19ZM45.95,96.18c-2.66,4.52-6.05,7.44-7.57,6.55-1.52-.9-.61-5.28,2.05-9.79,2.66-4.51,6.05-7.44,7.57-6.54,1.52.89.6,5.28-2.05,9.79ZM96.27,90.42c-2.65,4.52-6.04,7.44-7.57,6.55-1.52-.9-.6-5.29,2.06-9.79,2.65-4.52,6.04-7.44,7.56-6.54,1.53.89.61,5.28-2.05,9.79ZM91.17,117.13c-.64-12.03,17.93-6.82,17.93-6.82-9.83,14.25-17.48,15.36-17.93,6.82Z"/>
  <path class="cls-1" d="M88.25,31.12c-3.38-3-5.73-4.45-7.45-1.46-3.37,5.84,2.98,15.83,14.19,22.3,11.21,6.47,23.04,6.99,26.41,1.14,1.73-2.99-.7-4.29-4.98-5.72-5.57,9.76-33.5-7.57-28.17-16.26Z"/>
</svg>